G04 EAGLE Gerber RS-274X export*
G75*
%MOMM*%
%FSLAX34Y34*%
%LPD*%
%INTop Copper*%
%IPPOS*%
%AMOC8*
5,1,8,0,0,1.08239X$1,22.5*%
G01*
%ADD10R,1.080000X1.050000*%
%ADD11C,1.524000*%
%ADD12R,1.100000X1.000000*%
%ADD13R,1.000000X1.100000*%
%ADD14R,0.600000X0.450000*%
%ADD15R,0.350000X0.350000*%
%ADD16C,0.152400*%
%ADD17C,0.756400*%

G36*
X289098Y10164D02*
X289098Y10164D01*
X289117Y10162D01*
X289219Y10184D01*
X289321Y10200D01*
X289338Y10210D01*
X289358Y10214D01*
X289447Y10267D01*
X289538Y10316D01*
X289552Y10330D01*
X289569Y10340D01*
X289636Y10419D01*
X289708Y10494D01*
X289716Y10512D01*
X289729Y10527D01*
X289768Y10623D01*
X289811Y10717D01*
X289813Y10737D01*
X289821Y10755D01*
X289839Y10922D01*
X289839Y76918D01*
X289828Y76988D01*
X289826Y77060D01*
X289808Y77109D01*
X289800Y77160D01*
X289766Y77224D01*
X289741Y77291D01*
X289709Y77332D01*
X289684Y77378D01*
X289632Y77427D01*
X289588Y77483D01*
X289544Y77511D01*
X289506Y77547D01*
X289441Y77577D01*
X289381Y77616D01*
X289330Y77629D01*
X289283Y77651D01*
X289212Y77659D01*
X289142Y77676D01*
X289090Y77672D01*
X289039Y77678D01*
X288968Y77663D01*
X288897Y77657D01*
X288849Y77637D01*
X288798Y77626D01*
X288737Y77589D01*
X288671Y77561D01*
X288615Y77516D01*
X288587Y77499D01*
X288572Y77482D01*
X288540Y77456D01*
X278548Y67464D01*
X278495Y67390D01*
X278435Y67320D01*
X278423Y67290D01*
X278404Y67264D01*
X278377Y67177D01*
X278343Y67092D01*
X278339Y67051D01*
X278332Y67029D01*
X278333Y66997D01*
X278325Y66925D01*
X278325Y57668D01*
X277432Y56775D01*
X265368Y56775D01*
X264475Y57668D01*
X264475Y61002D01*
X264472Y61022D01*
X264474Y61041D01*
X264452Y61143D01*
X264436Y61245D01*
X264426Y61262D01*
X264422Y61282D01*
X264369Y61371D01*
X264320Y61462D01*
X264306Y61476D01*
X264296Y61493D01*
X264217Y61560D01*
X264142Y61632D01*
X264124Y61640D01*
X264109Y61653D01*
X264013Y61692D01*
X263919Y61735D01*
X263899Y61737D01*
X263881Y61745D01*
X263714Y61763D01*
X236835Y61763D01*
X236745Y61749D01*
X236654Y61741D01*
X236624Y61729D01*
X236592Y61724D01*
X236511Y61681D01*
X236428Y61645D01*
X236395Y61619D01*
X236375Y61608D01*
X236353Y61585D01*
X236297Y61540D01*
X235532Y60775D01*
X230768Y60775D01*
X229875Y61668D01*
X229875Y66432D01*
X230205Y66762D01*
X230217Y66778D01*
X230233Y66790D01*
X230289Y66877D01*
X230349Y66961D01*
X230355Y66980D01*
X230366Y66997D01*
X230391Y67098D01*
X230421Y67197D01*
X230421Y67216D01*
X230426Y67236D01*
X230418Y67339D01*
X230415Y67442D01*
X230408Y67461D01*
X230407Y67481D01*
X230366Y67576D01*
X230331Y67673D01*
X230318Y67689D01*
X230310Y67707D01*
X230205Y67838D01*
X229875Y68168D01*
X229875Y72932D01*
X230768Y73825D01*
X235532Y73825D01*
X236425Y72932D01*
X236425Y68168D01*
X236095Y67838D01*
X236083Y67822D01*
X236067Y67810D01*
X236011Y67723D01*
X235951Y67639D01*
X235945Y67620D01*
X235934Y67603D01*
X235909Y67502D01*
X235879Y67403D01*
X235879Y67384D01*
X235874Y67364D01*
X235882Y67261D01*
X235885Y67158D01*
X235892Y67139D01*
X235893Y67119D01*
X235934Y67024D01*
X235969Y66927D01*
X235982Y66911D01*
X235990Y66893D01*
X236095Y66762D01*
X236297Y66560D01*
X236371Y66507D01*
X236440Y66447D01*
X236470Y66435D01*
X236496Y66416D01*
X236583Y66389D01*
X236668Y66355D01*
X236709Y66351D01*
X236731Y66344D01*
X236764Y66345D01*
X236835Y66337D01*
X263714Y66337D01*
X263734Y66340D01*
X263753Y66338D01*
X263855Y66360D01*
X263957Y66376D01*
X263974Y66386D01*
X263994Y66390D01*
X264083Y66443D01*
X264174Y66492D01*
X264188Y66506D01*
X264205Y66516D01*
X264272Y66595D01*
X264344Y66670D01*
X264352Y66688D01*
X264365Y66703D01*
X264404Y66799D01*
X264447Y66893D01*
X264449Y66913D01*
X264457Y66931D01*
X264475Y67098D01*
X264475Y69432D01*
X265368Y70325D01*
X274625Y70325D01*
X274716Y70339D01*
X274806Y70347D01*
X274836Y70359D01*
X274868Y70364D01*
X274949Y70407D01*
X275033Y70443D01*
X275065Y70469D01*
X275086Y70480D01*
X275108Y70503D01*
X275164Y70548D01*
X285990Y81374D01*
X286043Y81448D01*
X286103Y81518D01*
X286115Y81548D01*
X286134Y81574D01*
X286161Y81661D01*
X286195Y81746D01*
X286199Y81787D01*
X286206Y81809D01*
X286205Y81841D01*
X286213Y81913D01*
X286213Y143142D01*
X286202Y143212D01*
X286200Y143284D01*
X286182Y143333D01*
X286174Y143384D01*
X286140Y143448D01*
X286115Y143515D01*
X286083Y143556D01*
X286058Y143602D01*
X286006Y143651D01*
X285962Y143707D01*
X285918Y143735D01*
X285880Y143771D01*
X285815Y143801D01*
X285755Y143840D01*
X285704Y143853D01*
X285657Y143875D01*
X285586Y143883D01*
X285516Y143900D01*
X285464Y143896D01*
X285413Y143902D01*
X285342Y143887D01*
X285271Y143881D01*
X285223Y143861D01*
X285172Y143850D01*
X285111Y143813D01*
X285045Y143785D01*
X284989Y143740D01*
X284961Y143723D01*
X284946Y143706D01*
X284914Y143680D01*
X272297Y131063D01*
X257986Y131063D01*
X257966Y131060D01*
X257947Y131062D01*
X257845Y131040D01*
X257743Y131024D01*
X257726Y131014D01*
X257706Y131010D01*
X257617Y130957D01*
X257526Y130908D01*
X257512Y130894D01*
X257495Y130884D01*
X257428Y130805D01*
X257356Y130730D01*
X257348Y130712D01*
X257335Y130697D01*
X257296Y130601D01*
X257253Y130507D01*
X257251Y130487D01*
X257243Y130469D01*
X257225Y130302D01*
X257225Y127468D01*
X256332Y126575D01*
X244268Y126575D01*
X243375Y127468D01*
X243375Y132952D01*
X243372Y132972D01*
X243374Y132991D01*
X243352Y133093D01*
X243336Y133195D01*
X243326Y133212D01*
X243322Y133232D01*
X243269Y133321D01*
X243220Y133412D01*
X243206Y133426D01*
X243196Y133443D01*
X243117Y133510D01*
X243042Y133582D01*
X243024Y133590D01*
X243009Y133603D01*
X242913Y133642D01*
X242819Y133685D01*
X242799Y133687D01*
X242781Y133695D01*
X242614Y133713D01*
X238686Y133713D01*
X238666Y133710D01*
X238647Y133712D01*
X238545Y133690D01*
X238443Y133674D01*
X238426Y133664D01*
X238406Y133660D01*
X238317Y133607D01*
X238226Y133558D01*
X238212Y133544D01*
X238195Y133534D01*
X238128Y133455D01*
X238056Y133380D01*
X238048Y133362D01*
X238035Y133347D01*
X237996Y133251D01*
X237953Y133157D01*
X237952Y133145D01*
X237032Y132225D01*
X236448Y132225D01*
X236428Y132222D01*
X236409Y132224D01*
X236307Y132202D01*
X236205Y132186D01*
X236188Y132176D01*
X236168Y132172D01*
X236079Y132119D01*
X235988Y132070D01*
X235974Y132056D01*
X235957Y132046D01*
X235890Y131967D01*
X235818Y131892D01*
X235810Y131874D01*
X235797Y131859D01*
X235758Y131763D01*
X235715Y131669D01*
X235713Y131649D01*
X235705Y131631D01*
X235687Y131464D01*
X235687Y125453D01*
X214447Y104213D01*
X201686Y104213D01*
X201666Y104210D01*
X201647Y104212D01*
X201545Y104190D01*
X201443Y104174D01*
X201426Y104164D01*
X201406Y104160D01*
X201317Y104107D01*
X201226Y104058D01*
X201212Y104044D01*
X201195Y104034D01*
X201128Y103955D01*
X201056Y103880D01*
X201048Y103862D01*
X201035Y103847D01*
X200996Y103751D01*
X200953Y103657D01*
X200951Y103637D01*
X200943Y103619D01*
X200925Y103452D01*
X200925Y100868D01*
X200032Y99975D01*
X190924Y99975D01*
X190834Y99961D01*
X190743Y99953D01*
X190714Y99941D01*
X190682Y99936D01*
X190601Y99893D01*
X190517Y99857D01*
X190485Y99831D01*
X190464Y99820D01*
X190442Y99797D01*
X190386Y99752D01*
X181047Y90413D01*
X173886Y90413D01*
X173866Y90410D01*
X173847Y90412D01*
X173745Y90390D01*
X173643Y90374D01*
X173626Y90364D01*
X173606Y90360D01*
X173517Y90307D01*
X173426Y90258D01*
X173412Y90244D01*
X173395Y90234D01*
X173328Y90155D01*
X173256Y90080D01*
X173248Y90062D01*
X173235Y90047D01*
X173196Y89951D01*
X173153Y89857D01*
X173151Y89837D01*
X173143Y89819D01*
X173125Y89652D01*
X173125Y87068D01*
X172232Y86175D01*
X159968Y86175D01*
X159075Y87068D01*
X159075Y98332D01*
X159968Y99225D01*
X172232Y99225D01*
X173125Y98332D01*
X173125Y95748D01*
X173128Y95728D01*
X173126Y95709D01*
X173148Y95607D01*
X173164Y95505D01*
X173174Y95488D01*
X173178Y95468D01*
X173231Y95379D01*
X173280Y95288D01*
X173294Y95274D01*
X173304Y95257D01*
X173383Y95190D01*
X173458Y95118D01*
X173476Y95110D01*
X173491Y95097D01*
X173587Y95058D01*
X173681Y95015D01*
X173701Y95013D01*
X173719Y95005D01*
X173886Y94987D01*
X178837Y94987D01*
X178928Y95001D01*
X179018Y95009D01*
X179048Y95021D01*
X179080Y95026D01*
X179161Y95069D01*
X179245Y95105D01*
X179277Y95131D01*
X179298Y95142D01*
X179320Y95165D01*
X179376Y95210D01*
X186652Y102486D01*
X186705Y102560D01*
X186765Y102630D01*
X186777Y102660D01*
X186796Y102686D01*
X186823Y102773D01*
X186830Y102792D01*
X186847Y102828D01*
X186848Y102836D01*
X186857Y102858D01*
X186861Y102899D01*
X186868Y102921D01*
X186867Y102953D01*
X186875Y103024D01*
X186875Y112132D01*
X187768Y113025D01*
X200032Y113025D01*
X200925Y112132D01*
X200925Y109548D01*
X200928Y109528D01*
X200926Y109509D01*
X200948Y109407D01*
X200964Y109305D01*
X200974Y109288D01*
X200978Y109268D01*
X201031Y109179D01*
X201080Y109088D01*
X201094Y109074D01*
X201104Y109057D01*
X201183Y108990D01*
X201258Y108918D01*
X201276Y108910D01*
X201291Y108897D01*
X201387Y108858D01*
X201481Y108815D01*
X201501Y108813D01*
X201519Y108805D01*
X201686Y108787D01*
X212237Y108787D01*
X212328Y108801D01*
X212418Y108809D01*
X212448Y108821D01*
X212480Y108826D01*
X212561Y108869D01*
X212645Y108905D01*
X212677Y108931D01*
X212698Y108942D01*
X212720Y108965D01*
X212776Y109010D01*
X230890Y127124D01*
X230943Y127198D01*
X231003Y127268D01*
X231015Y127298D01*
X231034Y127324D01*
X231061Y127411D01*
X231095Y127496D01*
X231099Y127537D01*
X231106Y127559D01*
X231105Y127591D01*
X231113Y127663D01*
X231113Y131464D01*
X231110Y131484D01*
X231112Y131503D01*
X231090Y131605D01*
X231074Y131707D01*
X231064Y131724D01*
X231060Y131744D01*
X231007Y131833D01*
X230958Y131924D01*
X230944Y131938D01*
X230934Y131955D01*
X230855Y132022D01*
X230780Y132094D01*
X230762Y132102D01*
X230747Y132115D01*
X230651Y132154D01*
X230557Y132197D01*
X230537Y132199D01*
X230519Y132207D01*
X230352Y132225D01*
X229768Y132225D01*
X228875Y133118D01*
X228875Y133238D01*
X228872Y133258D01*
X228874Y133277D01*
X228852Y133379D01*
X228836Y133481D01*
X228826Y133498D01*
X228822Y133518D01*
X228769Y133607D01*
X228720Y133698D01*
X228706Y133712D01*
X228696Y133729D01*
X228617Y133796D01*
X228542Y133868D01*
X228524Y133876D01*
X228509Y133889D01*
X228413Y133928D01*
X228319Y133971D01*
X228299Y133973D01*
X228281Y133981D01*
X228114Y133999D01*
X223686Y133999D01*
X223666Y133996D01*
X223647Y133998D01*
X223545Y133976D01*
X223443Y133960D01*
X223426Y133950D01*
X223406Y133946D01*
X223317Y133893D01*
X223226Y133844D01*
X223212Y133830D01*
X223195Y133820D01*
X223128Y133741D01*
X223056Y133666D01*
X223048Y133648D01*
X223035Y133633D01*
X222996Y133537D01*
X222953Y133443D01*
X222951Y133423D01*
X222943Y133405D01*
X222925Y133238D01*
X222925Y133118D01*
X222032Y132225D01*
X214768Y132225D01*
X213843Y133151D01*
X213836Y133195D01*
X213826Y133212D01*
X213822Y133232D01*
X213769Y133321D01*
X213720Y133412D01*
X213706Y133426D01*
X213696Y133443D01*
X213617Y133510D01*
X213542Y133582D01*
X213524Y133590D01*
X213509Y133603D01*
X213413Y133642D01*
X213319Y133685D01*
X213299Y133687D01*
X213281Y133695D01*
X213114Y133713D01*
X207663Y133713D01*
X207572Y133699D01*
X207482Y133691D01*
X207452Y133679D01*
X207420Y133674D01*
X207339Y133631D01*
X207255Y133595D01*
X207223Y133569D01*
X207202Y133558D01*
X207180Y133535D01*
X207124Y133490D01*
X201148Y127514D01*
X201095Y127440D01*
X201035Y127370D01*
X201023Y127340D01*
X201004Y127314D01*
X200977Y127227D01*
X200943Y127142D01*
X200939Y127101D01*
X200932Y127079D01*
X200933Y127047D01*
X200925Y126975D01*
X200925Y117868D01*
X200032Y116975D01*
X187768Y116975D01*
X186875Y117868D01*
X186875Y121052D01*
X186872Y121072D01*
X186874Y121091D01*
X186852Y121193D01*
X186836Y121295D01*
X186826Y121312D01*
X186822Y121332D01*
X186769Y121421D01*
X186720Y121512D01*
X186706Y121526D01*
X186696Y121543D01*
X186617Y121610D01*
X186542Y121682D01*
X186524Y121690D01*
X186509Y121703D01*
X186413Y121742D01*
X186319Y121785D01*
X186299Y121787D01*
X186281Y121795D01*
X186114Y121813D01*
X170529Y121813D01*
X170459Y121802D01*
X170387Y121800D01*
X170338Y121782D01*
X170287Y121774D01*
X170223Y121740D01*
X170156Y121715D01*
X170115Y121683D01*
X170069Y121658D01*
X170020Y121606D01*
X169964Y121562D01*
X169936Y121518D01*
X169900Y121480D01*
X169870Y121415D01*
X169831Y121355D01*
X169818Y121304D01*
X169796Y121257D01*
X169788Y121186D01*
X169771Y121116D01*
X169775Y121064D01*
X169769Y121013D01*
X169784Y120942D01*
X169790Y120871D01*
X169810Y120823D01*
X169821Y120772D01*
X169858Y120711D01*
X169886Y120645D01*
X169931Y120589D01*
X169948Y120561D01*
X169965Y120546D01*
X169991Y120514D01*
X171307Y119198D01*
X171307Y114802D01*
X168198Y111693D01*
X163802Y111693D01*
X160693Y114802D01*
X160693Y116314D01*
X160690Y116334D01*
X160692Y116353D01*
X160670Y116455D01*
X160654Y116557D01*
X160644Y116574D01*
X160640Y116594D01*
X160587Y116683D01*
X160538Y116774D01*
X160524Y116788D01*
X160514Y116805D01*
X160435Y116872D01*
X160360Y116944D01*
X160342Y116952D01*
X160327Y116965D01*
X160231Y117004D01*
X160137Y117047D01*
X160117Y117049D01*
X160099Y117057D01*
X159932Y117075D01*
X148968Y117075D01*
X148075Y117968D01*
X148075Y130232D01*
X148968Y131125D01*
X160232Y131125D01*
X161125Y130232D01*
X161125Y127148D01*
X161128Y127128D01*
X161126Y127109D01*
X161148Y127007D01*
X161164Y126905D01*
X161174Y126888D01*
X161178Y126868D01*
X161231Y126779D01*
X161280Y126688D01*
X161294Y126674D01*
X161304Y126657D01*
X161383Y126590D01*
X161458Y126518D01*
X161476Y126510D01*
X161491Y126497D01*
X161587Y126458D01*
X161681Y126415D01*
X161701Y126413D01*
X161719Y126405D01*
X161886Y126387D01*
X186114Y126387D01*
X186134Y126390D01*
X186153Y126388D01*
X186255Y126410D01*
X186357Y126426D01*
X186374Y126436D01*
X186394Y126440D01*
X186483Y126493D01*
X186574Y126542D01*
X186588Y126556D01*
X186605Y126566D01*
X186672Y126645D01*
X186744Y126720D01*
X186752Y126738D01*
X186765Y126753D01*
X186804Y126849D01*
X186847Y126943D01*
X186849Y126963D01*
X186857Y126981D01*
X186875Y127148D01*
X186875Y129132D01*
X187768Y130025D01*
X196875Y130025D01*
X196966Y130039D01*
X197056Y130047D01*
X197086Y130059D01*
X197118Y130064D01*
X197199Y130107D01*
X197283Y130143D01*
X197315Y130169D01*
X197336Y130180D01*
X197358Y130203D01*
X197414Y130248D01*
X205453Y138287D01*
X213114Y138287D01*
X213134Y138290D01*
X213153Y138288D01*
X213255Y138310D01*
X213357Y138326D01*
X213374Y138336D01*
X213394Y138340D01*
X213483Y138393D01*
X213574Y138442D01*
X213588Y138456D01*
X213605Y138466D01*
X213672Y138545D01*
X213744Y138620D01*
X213752Y138638D01*
X213765Y138653D01*
X213804Y138749D01*
X213847Y138843D01*
X213848Y138855D01*
X214455Y139462D01*
X214467Y139478D01*
X214483Y139490D01*
X214539Y139578D01*
X214599Y139661D01*
X214605Y139680D01*
X214616Y139697D01*
X214641Y139798D01*
X214671Y139897D01*
X214671Y139916D01*
X214676Y139936D01*
X214668Y140039D01*
X214665Y140142D01*
X214658Y140161D01*
X214657Y140181D01*
X214616Y140276D01*
X214581Y140373D01*
X214568Y140389D01*
X214560Y140407D01*
X214455Y140538D01*
X213843Y141151D01*
X213836Y141195D01*
X213826Y141212D01*
X213822Y141232D01*
X213769Y141321D01*
X213720Y141412D01*
X213706Y141426D01*
X213696Y141443D01*
X213617Y141510D01*
X213542Y141582D01*
X213524Y141590D01*
X213509Y141603D01*
X213413Y141642D01*
X213319Y141685D01*
X213299Y141687D01*
X213281Y141695D01*
X213114Y141713D01*
X199453Y141713D01*
X197614Y143552D01*
X197540Y143605D01*
X197470Y143665D01*
X197440Y143677D01*
X197414Y143696D01*
X197327Y143723D01*
X197242Y143757D01*
X197201Y143761D01*
X197179Y143768D01*
X197147Y143767D01*
X197076Y143775D01*
X187968Y143775D01*
X187075Y144668D01*
X187075Y147052D01*
X187072Y147072D01*
X187074Y147091D01*
X187052Y147193D01*
X187036Y147295D01*
X187026Y147312D01*
X187022Y147332D01*
X186969Y147421D01*
X186920Y147512D01*
X186906Y147526D01*
X186896Y147543D01*
X186817Y147610D01*
X186742Y147682D01*
X186724Y147690D01*
X186709Y147703D01*
X186613Y147742D01*
X186519Y147785D01*
X186499Y147787D01*
X186481Y147795D01*
X186314Y147813D01*
X161386Y147813D01*
X161366Y147810D01*
X161347Y147812D01*
X161245Y147790D01*
X161143Y147774D01*
X161126Y147764D01*
X161106Y147760D01*
X161017Y147707D01*
X160926Y147658D01*
X160912Y147644D01*
X160895Y147634D01*
X160828Y147555D01*
X160756Y147480D01*
X160748Y147462D01*
X160735Y147447D01*
X160696Y147351D01*
X160653Y147257D01*
X160651Y147237D01*
X160643Y147219D01*
X160625Y147052D01*
X160625Y143968D01*
X159732Y143075D01*
X148468Y143075D01*
X147575Y143968D01*
X147575Y156232D01*
X148468Y157125D01*
X159932Y157125D01*
X159952Y157128D01*
X159971Y157126D01*
X160073Y157148D01*
X160175Y157164D01*
X160192Y157174D01*
X160212Y157178D01*
X160301Y157231D01*
X160392Y157280D01*
X160406Y157294D01*
X160423Y157304D01*
X160490Y157383D01*
X160562Y157458D01*
X160570Y157476D01*
X160583Y157491D01*
X160622Y157587D01*
X160665Y157681D01*
X160667Y157701D01*
X160675Y157719D01*
X160693Y157886D01*
X160693Y160198D01*
X163802Y163307D01*
X168198Y163307D01*
X171307Y160198D01*
X171307Y155802D01*
X169191Y153686D01*
X169149Y153628D01*
X169100Y153576D01*
X169078Y153529D01*
X169048Y153487D01*
X169026Y153418D01*
X168996Y153353D01*
X168991Y153301D01*
X168975Y153251D01*
X168977Y153180D01*
X168969Y153109D01*
X168980Y153058D01*
X168982Y153006D01*
X169006Y152938D01*
X169021Y152868D01*
X169048Y152823D01*
X169066Y152775D01*
X169111Y152719D01*
X169148Y152657D01*
X169187Y152623D01*
X169220Y152583D01*
X169280Y152544D01*
X169335Y152497D01*
X169383Y152478D01*
X169427Y152450D01*
X169496Y152432D01*
X169563Y152405D01*
X169634Y152397D01*
X169665Y152389D01*
X169688Y152391D01*
X169729Y152387D01*
X186314Y152387D01*
X186334Y152390D01*
X186353Y152388D01*
X186455Y152410D01*
X186557Y152426D01*
X186574Y152436D01*
X186594Y152440D01*
X186683Y152493D01*
X186774Y152542D01*
X186788Y152556D01*
X186805Y152566D01*
X186872Y152645D01*
X186944Y152720D01*
X186952Y152738D01*
X186965Y152753D01*
X187004Y152849D01*
X187047Y152943D01*
X187049Y152963D01*
X187057Y152981D01*
X187075Y153148D01*
X187075Y155932D01*
X187968Y156825D01*
X200232Y156825D01*
X201125Y155932D01*
X201125Y147048D01*
X201128Y147028D01*
X201126Y147009D01*
X201148Y146907D01*
X201164Y146805D01*
X201174Y146788D01*
X201178Y146768D01*
X201231Y146679D01*
X201280Y146588D01*
X201294Y146574D01*
X201304Y146557D01*
X201383Y146490D01*
X201458Y146418D01*
X201476Y146410D01*
X201491Y146397D01*
X201587Y146358D01*
X201681Y146315D01*
X201701Y146313D01*
X201719Y146305D01*
X201886Y146287D01*
X213114Y146287D01*
X213134Y146290D01*
X213153Y146288D01*
X213255Y146310D01*
X213357Y146326D01*
X213374Y146336D01*
X213394Y146340D01*
X213483Y146393D01*
X213574Y146442D01*
X213588Y146456D01*
X213605Y146466D01*
X213672Y146545D01*
X213744Y146620D01*
X213752Y146638D01*
X213765Y146653D01*
X213804Y146749D01*
X213847Y146843D01*
X213848Y146855D01*
X214768Y147775D01*
X222032Y147775D01*
X222925Y146882D01*
X222925Y146762D01*
X222928Y146742D01*
X222926Y146723D01*
X222948Y146621D01*
X222964Y146519D01*
X222974Y146502D01*
X222978Y146482D01*
X223031Y146393D01*
X223080Y146302D01*
X223094Y146288D01*
X223104Y146271D01*
X223183Y146204D01*
X223258Y146132D01*
X223276Y146124D01*
X223291Y146111D01*
X223387Y146072D01*
X223481Y146029D01*
X223501Y146027D01*
X223519Y146019D01*
X223686Y146001D01*
X227119Y146001D01*
X227162Y146008D01*
X227206Y146006D01*
X227283Y146028D01*
X227361Y146040D01*
X227400Y146061D01*
X227442Y146073D01*
X227508Y146118D01*
X227579Y146156D01*
X227609Y146187D01*
X227645Y146212D01*
X227693Y146276D01*
X227748Y146334D01*
X227767Y146374D01*
X227793Y146409D01*
X227846Y146545D01*
X227852Y146557D01*
X227852Y146560D01*
X227854Y146565D01*
X228032Y147231D01*
X228367Y147810D01*
X228840Y148283D01*
X229419Y148618D01*
X230066Y148791D01*
X232276Y148791D01*
X232276Y144363D01*
X232279Y144344D01*
X232277Y144324D01*
X232299Y144222D01*
X232315Y144120D01*
X232325Y144103D01*
X232329Y144083D01*
X232382Y143994D01*
X232431Y143903D01*
X232445Y143889D01*
X232455Y143872D01*
X232534Y143805D01*
X232609Y143734D01*
X232627Y143725D01*
X232642Y143712D01*
X232738Y143674D01*
X232832Y143630D01*
X232852Y143628D01*
X232870Y143620D01*
X233004Y143606D01*
X233003Y143597D01*
X233025Y143496D01*
X233042Y143394D01*
X233051Y143377D01*
X233055Y143357D01*
X233108Y143268D01*
X233157Y143177D01*
X233171Y143163D01*
X233181Y143146D01*
X233260Y143079D01*
X233335Y143007D01*
X233353Y142999D01*
X233368Y142986D01*
X233465Y142947D01*
X233558Y142904D01*
X233578Y142902D01*
X233596Y142894D01*
X233763Y142876D01*
X238941Y142876D01*
X238941Y141416D01*
X238768Y140769D01*
X238433Y140190D01*
X238063Y139820D01*
X238051Y139804D01*
X238036Y139791D01*
X237980Y139704D01*
X237919Y139620D01*
X237914Y139601D01*
X237903Y139584D01*
X237877Y139484D01*
X237847Y139385D01*
X237848Y139365D01*
X237843Y139346D01*
X237851Y139243D01*
X237853Y139139D01*
X237860Y139120D01*
X237862Y139100D01*
X237902Y139005D01*
X237938Y138908D01*
X237950Y138893D01*
X237964Y138805D01*
X237974Y138788D01*
X237978Y138768D01*
X238031Y138679D01*
X238080Y138588D01*
X238094Y138574D01*
X238104Y138557D01*
X238183Y138490D01*
X238258Y138418D01*
X238276Y138410D01*
X238291Y138397D01*
X238387Y138358D01*
X238481Y138315D01*
X238501Y138313D01*
X238519Y138305D01*
X238686Y138287D01*
X242614Y138287D01*
X242634Y138290D01*
X242653Y138288D01*
X242755Y138310D01*
X242857Y138326D01*
X242874Y138336D01*
X242894Y138340D01*
X242983Y138393D01*
X243074Y138442D01*
X243088Y138456D01*
X243105Y138466D01*
X243172Y138545D01*
X243244Y138620D01*
X243252Y138638D01*
X243265Y138653D01*
X243304Y138749D01*
X243347Y138843D01*
X243349Y138863D01*
X243357Y138881D01*
X243375Y139048D01*
X243375Y139232D01*
X244268Y140125D01*
X256332Y140125D01*
X257225Y139232D01*
X257225Y136398D01*
X257228Y136378D01*
X257226Y136359D01*
X257248Y136257D01*
X257264Y136155D01*
X257274Y136138D01*
X257278Y136118D01*
X257331Y136029D01*
X257380Y135938D01*
X257394Y135924D01*
X257404Y135907D01*
X257483Y135840D01*
X257558Y135768D01*
X257576Y135760D01*
X257591Y135747D01*
X257687Y135708D01*
X257781Y135665D01*
X257801Y135663D01*
X257819Y135655D01*
X257986Y135637D01*
X270087Y135637D01*
X270178Y135651D01*
X270268Y135659D01*
X270298Y135671D01*
X270330Y135676D01*
X270411Y135719D01*
X270495Y135755D01*
X270527Y135781D01*
X270548Y135792D01*
X270570Y135815D01*
X270626Y135860D01*
X285990Y151224D01*
X286034Y151284D01*
X286072Y151325D01*
X286079Y151340D01*
X286103Y151368D01*
X286115Y151398D01*
X286134Y151424D01*
X286161Y151511D01*
X286174Y151544D01*
X286176Y151548D01*
X286176Y151549D01*
X286195Y151596D01*
X286199Y151637D01*
X286206Y151659D01*
X286205Y151691D01*
X286213Y151762D01*
X286213Y165237D01*
X286199Y165328D01*
X286191Y165418D01*
X286179Y165448D01*
X286174Y165480D01*
X286131Y165561D01*
X286095Y165645D01*
X286069Y165677D01*
X286058Y165698D01*
X286035Y165720D01*
X285990Y165776D01*
X276276Y175490D01*
X276202Y175543D01*
X276132Y175603D01*
X276102Y175615D01*
X276076Y175634D01*
X275989Y175661D01*
X275904Y175695D01*
X275863Y175699D01*
X275841Y175706D01*
X275809Y175705D01*
X275737Y175713D01*
X175358Y175713D01*
X175288Y175702D01*
X175216Y175700D01*
X175167Y175682D01*
X175116Y175674D01*
X175052Y175640D01*
X174985Y175615D01*
X174944Y175583D01*
X174898Y175558D01*
X174849Y175506D01*
X174793Y175462D01*
X174765Y175418D01*
X174729Y175380D01*
X174699Y175315D01*
X174660Y175255D01*
X174647Y175204D01*
X174625Y175157D01*
X174617Y175086D01*
X174600Y175016D01*
X174604Y174964D01*
X174598Y174913D01*
X174613Y174842D01*
X174619Y174771D01*
X174639Y174723D01*
X174650Y174672D01*
X174687Y174611D01*
X174715Y174545D01*
X174760Y174489D01*
X174777Y174461D01*
X174794Y174446D01*
X174820Y174414D01*
X179424Y169810D01*
X179498Y169757D01*
X179568Y169697D01*
X179598Y169685D01*
X179624Y169666D01*
X179711Y169639D01*
X179796Y169605D01*
X179837Y169601D01*
X179859Y169594D01*
X179891Y169595D01*
X179963Y169587D01*
X186314Y169587D01*
X186334Y169590D01*
X186353Y169588D01*
X186455Y169610D01*
X186557Y169626D01*
X186574Y169636D01*
X186594Y169640D01*
X186683Y169693D01*
X186774Y169742D01*
X186788Y169756D01*
X186805Y169766D01*
X186872Y169845D01*
X186944Y169920D01*
X186952Y169938D01*
X186965Y169953D01*
X187004Y170049D01*
X187047Y170143D01*
X187049Y170163D01*
X187057Y170181D01*
X187075Y170348D01*
X187075Y172932D01*
X187968Y173825D01*
X200232Y173825D01*
X201125Y172932D01*
X201125Y161668D01*
X200232Y160775D01*
X187968Y160775D01*
X187075Y161668D01*
X187075Y164252D01*
X187072Y164272D01*
X187074Y164291D01*
X187052Y164393D01*
X187036Y164495D01*
X187026Y164512D01*
X187022Y164532D01*
X186969Y164621D01*
X186920Y164712D01*
X186906Y164726D01*
X186896Y164743D01*
X186817Y164810D01*
X186742Y164882D01*
X186724Y164890D01*
X186709Y164903D01*
X186613Y164942D01*
X186519Y164985D01*
X186499Y164987D01*
X186481Y164995D01*
X186314Y165013D01*
X177753Y165013D01*
X167276Y175490D01*
X167202Y175543D01*
X167132Y175603D01*
X167102Y175615D01*
X167076Y175634D01*
X166989Y175661D01*
X166904Y175695D01*
X166863Y175699D01*
X166841Y175706D01*
X166809Y175705D01*
X166738Y175713D01*
X73263Y175713D01*
X73172Y175699D01*
X73082Y175691D01*
X73052Y175679D01*
X73020Y175674D01*
X72939Y175631D01*
X72855Y175595D01*
X72823Y175569D01*
X72802Y175558D01*
X72780Y175535D01*
X72724Y175490D01*
X50610Y153376D01*
X50557Y153302D01*
X50497Y153232D01*
X50485Y153202D01*
X50466Y153176D01*
X50439Y153089D01*
X50405Y153004D01*
X50401Y152963D01*
X50394Y152941D01*
X50395Y152909D01*
X50387Y152837D01*
X50387Y137206D01*
X50390Y137186D01*
X50388Y137167D01*
X50410Y137065D01*
X50426Y136963D01*
X50436Y136946D01*
X50440Y136926D01*
X50493Y136837D01*
X50542Y136746D01*
X50556Y136732D01*
X50566Y136715D01*
X50645Y136648D01*
X50720Y136576D01*
X50738Y136568D01*
X50753Y136555D01*
X50849Y136516D01*
X50943Y136473D01*
X50963Y136471D01*
X50981Y136463D01*
X51148Y136445D01*
X57539Y136445D01*
X60900Y135053D01*
X63473Y132480D01*
X64865Y129119D01*
X64865Y125481D01*
X63473Y122120D01*
X60900Y119547D01*
X57539Y118155D01*
X38661Y118155D01*
X35300Y119547D01*
X32727Y122120D01*
X31724Y124543D01*
X31662Y124643D01*
X31602Y124743D01*
X31597Y124747D01*
X31594Y124752D01*
X31504Y124827D01*
X31415Y124903D01*
X31409Y124905D01*
X31405Y124909D01*
X31296Y124951D01*
X31187Y124995D01*
X31180Y124996D01*
X31175Y124997D01*
X31157Y124998D01*
X31020Y125013D01*
X30485Y125013D01*
X30394Y124999D01*
X30304Y124991D01*
X30274Y124979D01*
X30242Y124974D01*
X30161Y124931D01*
X30077Y124895D01*
X30045Y124869D01*
X30024Y124858D01*
X30002Y124835D01*
X29946Y124790D01*
X23432Y118276D01*
X23379Y118202D01*
X23319Y118132D01*
X23307Y118102D01*
X23288Y118076D01*
X23261Y117989D01*
X23227Y117904D01*
X23223Y117863D01*
X23216Y117841D01*
X23217Y117809D01*
X23209Y117737D01*
X23209Y43263D01*
X23223Y43172D01*
X23231Y43082D01*
X23243Y43052D01*
X23248Y43020D01*
X23291Y42939D01*
X23327Y42855D01*
X23353Y42823D01*
X23364Y42802D01*
X23387Y42780D01*
X23432Y42724D01*
X39724Y26432D01*
X39798Y26379D01*
X39868Y26319D01*
X39898Y26307D01*
X39924Y26288D01*
X40011Y26261D01*
X40096Y26227D01*
X40137Y26223D01*
X40159Y26216D01*
X40191Y26217D01*
X40263Y26209D01*
X151459Y26209D01*
X151550Y26223D01*
X151640Y26231D01*
X151670Y26243D01*
X151702Y26248D01*
X151783Y26291D01*
X151867Y26327D01*
X151899Y26353D01*
X151920Y26364D01*
X151942Y26387D01*
X151998Y26432D01*
X158652Y33086D01*
X158705Y33160D01*
X158765Y33230D01*
X158777Y33260D01*
X158796Y33286D01*
X158823Y33373D01*
X158857Y33458D01*
X158861Y33499D01*
X158868Y33521D01*
X158867Y33553D01*
X158875Y33625D01*
X158875Y42732D01*
X159768Y43625D01*
X172032Y43625D01*
X172925Y42732D01*
X172925Y31468D01*
X172032Y30575D01*
X162925Y30575D01*
X162834Y30561D01*
X162744Y30553D01*
X162714Y30541D01*
X162682Y30536D01*
X162601Y30493D01*
X162517Y30457D01*
X162485Y30431D01*
X162464Y30420D01*
X162442Y30397D01*
X162386Y30352D01*
X159542Y27508D01*
X159500Y27450D01*
X159451Y27398D01*
X159429Y27351D01*
X159399Y27309D01*
X159378Y27240D01*
X159347Y27175D01*
X159342Y27123D01*
X159326Y27073D01*
X159328Y27002D01*
X159320Y26931D01*
X159331Y26880D01*
X159333Y26828D01*
X159357Y26760D01*
X159372Y26690D01*
X159399Y26645D01*
X159417Y26597D01*
X159462Y26541D01*
X159499Y26479D01*
X159538Y26445D01*
X159571Y26405D01*
X159631Y26366D01*
X159686Y26319D01*
X159734Y26300D01*
X159778Y26272D01*
X159847Y26254D01*
X159914Y26227D01*
X159985Y26219D01*
X160016Y26211D01*
X160040Y26213D01*
X160080Y26209D01*
X227659Y26209D01*
X227750Y26223D01*
X227840Y26231D01*
X227870Y26243D01*
X227902Y26248D01*
X227983Y26291D01*
X228067Y26327D01*
X228099Y26353D01*
X228120Y26364D01*
X228142Y26387D01*
X228198Y26432D01*
X246080Y44314D01*
X246157Y44326D01*
X246174Y44336D01*
X246194Y44340D01*
X246283Y44393D01*
X246374Y44442D01*
X246388Y44456D01*
X246405Y44466D01*
X246472Y44545D01*
X246544Y44620D01*
X246552Y44638D01*
X246565Y44653D01*
X246604Y44749D01*
X246647Y44843D01*
X246649Y44863D01*
X246657Y44881D01*
X246675Y45048D01*
X246675Y48002D01*
X246672Y48022D01*
X246674Y48041D01*
X246652Y48143D01*
X246636Y48245D01*
X246626Y48262D01*
X246622Y48282D01*
X246569Y48371D01*
X246520Y48462D01*
X246506Y48476D01*
X246496Y48493D01*
X246417Y48560D01*
X246342Y48632D01*
X246324Y48640D01*
X246309Y48653D01*
X246213Y48692D01*
X246119Y48735D01*
X246099Y48737D01*
X246081Y48745D01*
X245914Y48763D01*
X236835Y48763D01*
X236745Y48749D01*
X236654Y48741D01*
X236624Y48729D01*
X236592Y48724D01*
X236511Y48681D01*
X236428Y48645D01*
X236395Y48619D01*
X236375Y48608D01*
X236353Y48585D01*
X236297Y48540D01*
X235532Y47775D01*
X230768Y47775D01*
X229875Y48668D01*
X229875Y53432D01*
X230768Y54325D01*
X235532Y54325D01*
X236297Y53560D01*
X236371Y53507D01*
X236440Y53447D01*
X236470Y53435D01*
X236496Y53416D01*
X236583Y53389D01*
X236668Y53355D01*
X236709Y53351D01*
X236731Y53344D01*
X236764Y53345D01*
X236835Y53337D01*
X245914Y53337D01*
X245934Y53340D01*
X245953Y53338D01*
X246055Y53360D01*
X246157Y53376D01*
X246174Y53386D01*
X246194Y53390D01*
X246283Y53443D01*
X246374Y53492D01*
X246388Y53506D01*
X246405Y53516D01*
X246472Y53595D01*
X246544Y53670D01*
X246552Y53688D01*
X246565Y53703D01*
X246604Y53799D01*
X246647Y53893D01*
X246649Y53913D01*
X246657Y53931D01*
X246675Y54098D01*
X246675Y56032D01*
X247568Y56925D01*
X259632Y56925D01*
X260525Y56032D01*
X260525Y44268D01*
X259632Y43375D01*
X256648Y43375D01*
X256628Y43372D01*
X256609Y43374D01*
X256507Y43352D01*
X256405Y43336D01*
X256388Y43326D01*
X256368Y43322D01*
X256279Y43269D01*
X256188Y43220D01*
X256174Y43206D01*
X256157Y43196D01*
X256090Y43117D01*
X256018Y43042D01*
X256010Y43024D01*
X255997Y43009D01*
X255958Y42913D01*
X255915Y42819D01*
X255913Y42799D01*
X255905Y42781D01*
X255887Y42614D01*
X255887Y41634D01*
X255883Y41630D01*
X255861Y41583D01*
X255831Y41541D01*
X255810Y41472D01*
X255779Y41407D01*
X255774Y41355D01*
X255758Y41306D01*
X255760Y41234D01*
X255752Y41162D01*
X255763Y41112D01*
X255765Y41060D01*
X255789Y40992D01*
X255804Y40922D01*
X255831Y40877D01*
X255849Y40829D01*
X255894Y40773D01*
X255931Y40711D01*
X255970Y40677D01*
X256003Y40637D01*
X256063Y40598D01*
X256118Y40551D01*
X256166Y40532D01*
X256210Y40504D01*
X256279Y40486D01*
X256346Y40459D01*
X256417Y40451D01*
X256448Y40443D01*
X256471Y40445D01*
X256512Y40441D01*
X259335Y40441D01*
X259981Y40268D01*
X260560Y39933D01*
X261033Y39460D01*
X261368Y38881D01*
X261541Y38234D01*
X261541Y34173D01*
X254362Y34173D01*
X254342Y34170D01*
X254323Y34172D01*
X254221Y34150D01*
X254119Y34133D01*
X254102Y34124D01*
X254082Y34120D01*
X253993Y34067D01*
X253902Y34018D01*
X253888Y34004D01*
X253871Y33994D01*
X253804Y33915D01*
X253733Y33840D01*
X253724Y33822D01*
X253711Y33807D01*
X253672Y33711D01*
X253629Y33617D01*
X253627Y33597D01*
X253619Y33579D01*
X253601Y33412D01*
X253601Y32649D01*
X253599Y32649D01*
X253599Y33412D01*
X253596Y33432D01*
X253598Y33451D01*
X253576Y33553D01*
X253559Y33655D01*
X253550Y33672D01*
X253546Y33692D01*
X253493Y33781D01*
X253444Y33872D01*
X253430Y33886D01*
X253420Y33903D01*
X253341Y33970D01*
X253266Y34041D01*
X253248Y34050D01*
X253233Y34063D01*
X253137Y34102D01*
X253043Y34145D01*
X253023Y34147D01*
X253005Y34155D01*
X252838Y34173D01*
X245659Y34173D01*
X245659Y35588D01*
X245648Y35658D01*
X245646Y35730D01*
X245628Y35779D01*
X245620Y35830D01*
X245586Y35894D01*
X245561Y35961D01*
X245529Y36002D01*
X245504Y36048D01*
X245452Y36097D01*
X245408Y36153D01*
X245364Y36181D01*
X245326Y36217D01*
X245261Y36247D01*
X245201Y36286D01*
X245150Y36299D01*
X245103Y36321D01*
X245032Y36329D01*
X244962Y36346D01*
X244910Y36342D01*
X244859Y36348D01*
X244788Y36333D01*
X244717Y36327D01*
X244669Y36307D01*
X244618Y36296D01*
X244557Y36259D01*
X244491Y36231D01*
X244435Y36186D01*
X244407Y36169D01*
X244392Y36152D01*
X244360Y36126D01*
X229869Y21635D01*
X38053Y21635D01*
X18635Y41053D01*
X18635Y119947D01*
X28275Y129587D01*
X31020Y129587D01*
X31135Y129606D01*
X31251Y129623D01*
X31257Y129625D01*
X31263Y129626D01*
X31366Y129681D01*
X31471Y129734D01*
X31475Y129739D01*
X31480Y129742D01*
X31560Y129826D01*
X31643Y129910D01*
X31646Y129916D01*
X31650Y129920D01*
X31658Y129937D01*
X31724Y130057D01*
X32727Y132480D01*
X35300Y135053D01*
X38661Y136445D01*
X45052Y136445D01*
X45072Y136448D01*
X45091Y136446D01*
X45193Y136468D01*
X45295Y136484D01*
X45312Y136494D01*
X45332Y136498D01*
X45421Y136551D01*
X45512Y136600D01*
X45526Y136614D01*
X45543Y136624D01*
X45610Y136703D01*
X45682Y136778D01*
X45690Y136796D01*
X45703Y136811D01*
X45742Y136907D01*
X45785Y137001D01*
X45787Y137021D01*
X45795Y137039D01*
X45813Y137206D01*
X45813Y155047D01*
X71053Y180287D01*
X277947Y180287D01*
X288540Y169694D01*
X288598Y169652D01*
X288650Y169603D01*
X288697Y169581D01*
X288739Y169551D01*
X288808Y169530D01*
X288873Y169499D01*
X288925Y169494D01*
X288975Y169478D01*
X289046Y169480D01*
X289117Y169472D01*
X289168Y169483D01*
X289220Y169485D01*
X289288Y169509D01*
X289358Y169524D01*
X289403Y169551D01*
X289451Y169569D01*
X289507Y169614D01*
X289569Y169651D01*
X289603Y169690D01*
X289643Y169723D01*
X289682Y169783D01*
X289729Y169838D01*
X289748Y169886D01*
X289776Y169930D01*
X289794Y169999D01*
X289821Y170066D01*
X289829Y170137D01*
X289837Y170168D01*
X289835Y170192D01*
X289839Y170232D01*
X289839Y189078D01*
X289838Y189088D01*
X289838Y189094D01*
X289837Y189102D01*
X289838Y189117D01*
X289816Y189219D01*
X289800Y189321D01*
X289790Y189338D01*
X289786Y189358D01*
X289733Y189447D01*
X289684Y189538D01*
X289670Y189552D01*
X289660Y189569D01*
X289581Y189636D01*
X289506Y189708D01*
X289488Y189716D01*
X289473Y189729D01*
X289377Y189768D01*
X289283Y189811D01*
X289263Y189813D01*
X289245Y189821D01*
X289078Y189839D01*
X10922Y189839D01*
X10902Y189836D01*
X10883Y189838D01*
X10781Y189816D01*
X10679Y189800D01*
X10662Y189790D01*
X10642Y189786D01*
X10553Y189733D01*
X10462Y189684D01*
X10448Y189670D01*
X10431Y189660D01*
X10364Y189581D01*
X10292Y189506D01*
X10284Y189488D01*
X10271Y189473D01*
X10232Y189377D01*
X10189Y189283D01*
X10187Y189263D01*
X10179Y189245D01*
X10161Y189078D01*
X10161Y10922D01*
X10164Y10902D01*
X10162Y10883D01*
X10184Y10781D01*
X10200Y10679D01*
X10210Y10662D01*
X10214Y10642D01*
X10267Y10553D01*
X10316Y10462D01*
X10330Y10448D01*
X10340Y10431D01*
X10419Y10364D01*
X10494Y10292D01*
X10512Y10284D01*
X10527Y10271D01*
X10623Y10232D01*
X10717Y10189D01*
X10737Y10187D01*
X10755Y10179D01*
X10922Y10161D01*
X289078Y10161D01*
X289098Y10164D01*
G37*
%LPC*%
G36*
X192802Y29693D02*
X192802Y29693D01*
X189693Y32802D01*
X189693Y37198D01*
X192802Y40307D01*
X194622Y40307D01*
X194692Y40318D01*
X194764Y40320D01*
X194813Y40338D01*
X194864Y40346D01*
X194928Y40380D01*
X194995Y40405D01*
X195036Y40437D01*
X195082Y40462D01*
X195131Y40514D01*
X195187Y40558D01*
X195215Y40602D01*
X195251Y40640D01*
X195281Y40705D01*
X195320Y40765D01*
X195333Y40816D01*
X195355Y40863D01*
X195363Y40934D01*
X195380Y41004D01*
X195376Y41056D01*
X195382Y41107D01*
X195367Y41178D01*
X195361Y41249D01*
X195341Y41297D01*
X195330Y41348D01*
X195293Y41409D01*
X195265Y41475D01*
X195220Y41531D01*
X195203Y41559D01*
X195186Y41574D01*
X195160Y41606D01*
X185176Y51590D01*
X185102Y51643D01*
X185032Y51703D01*
X185002Y51715D01*
X184976Y51734D01*
X184889Y51761D01*
X184804Y51795D01*
X184763Y51799D01*
X184741Y51806D01*
X184709Y51805D01*
X184637Y51813D01*
X173686Y51813D01*
X173666Y51810D01*
X173647Y51812D01*
X173545Y51790D01*
X173443Y51774D01*
X173426Y51764D01*
X173406Y51760D01*
X173317Y51707D01*
X173226Y51658D01*
X173212Y51644D01*
X173195Y51634D01*
X173128Y51555D01*
X173056Y51480D01*
X173048Y51462D01*
X173035Y51447D01*
X172996Y51351D01*
X172953Y51257D01*
X172951Y51237D01*
X172943Y51219D01*
X172925Y51052D01*
X172925Y48468D01*
X172032Y47575D01*
X159768Y47575D01*
X158875Y48468D01*
X158875Y50852D01*
X158872Y50872D01*
X158874Y50891D01*
X158852Y50993D01*
X158836Y51095D01*
X158826Y51112D01*
X158822Y51132D01*
X158769Y51221D01*
X158720Y51312D01*
X158706Y51326D01*
X158696Y51343D01*
X158617Y51410D01*
X158542Y51482D01*
X158524Y51490D01*
X158509Y51503D01*
X158413Y51542D01*
X158319Y51585D01*
X158299Y51587D01*
X158281Y51595D01*
X158114Y51613D01*
X153729Y51613D01*
X153659Y51602D01*
X153587Y51600D01*
X153538Y51582D01*
X153487Y51574D01*
X153423Y51540D01*
X153356Y51515D01*
X153315Y51483D01*
X153269Y51458D01*
X153220Y51406D01*
X153164Y51362D01*
X153136Y51318D01*
X153100Y51280D01*
X153070Y51215D01*
X153031Y51155D01*
X153018Y51104D01*
X152996Y51057D01*
X152988Y50986D01*
X152971Y50916D01*
X152975Y50864D01*
X152969Y50813D01*
X152984Y50742D01*
X152990Y50671D01*
X153010Y50623D01*
X153021Y50572D01*
X153058Y50511D01*
X153086Y50445D01*
X153131Y50389D01*
X153148Y50361D01*
X153165Y50346D01*
X153191Y50314D01*
X154307Y49198D01*
X154307Y44802D01*
X151198Y41693D01*
X146802Y41693D01*
X143693Y44802D01*
X143693Y49198D01*
X144809Y50314D01*
X144851Y50372D01*
X144900Y50424D01*
X144922Y50471D01*
X144952Y50513D01*
X144974Y50582D01*
X145004Y50647D01*
X145009Y50699D01*
X145025Y50749D01*
X145023Y50820D01*
X145031Y50891D01*
X145020Y50942D01*
X145018Y50994D01*
X144994Y51062D01*
X144979Y51132D01*
X144952Y51177D01*
X144934Y51225D01*
X144889Y51281D01*
X144852Y51343D01*
X144813Y51377D01*
X144780Y51417D01*
X144720Y51456D01*
X144665Y51503D01*
X144617Y51522D01*
X144573Y51550D01*
X144504Y51568D01*
X144437Y51595D01*
X144366Y51603D01*
X144335Y51611D01*
X144312Y51609D01*
X144271Y51613D01*
X140686Y51613D01*
X140666Y51610D01*
X140647Y51612D01*
X140545Y51590D01*
X140443Y51574D01*
X140426Y51564D01*
X140406Y51560D01*
X140317Y51507D01*
X140226Y51458D01*
X140212Y51444D01*
X140195Y51434D01*
X140128Y51355D01*
X140056Y51280D01*
X140048Y51262D01*
X140035Y51247D01*
X139996Y51151D01*
X139953Y51057D01*
X139951Y51037D01*
X139943Y51019D01*
X139925Y50852D01*
X139925Y47768D01*
X139032Y46875D01*
X127768Y46875D01*
X126875Y47768D01*
X126875Y60032D01*
X127768Y60925D01*
X139032Y60925D01*
X139925Y60032D01*
X139925Y56948D01*
X139928Y56928D01*
X139926Y56909D01*
X139948Y56807D01*
X139964Y56705D01*
X139974Y56688D01*
X139978Y56668D01*
X140031Y56579D01*
X140080Y56488D01*
X140094Y56474D01*
X140104Y56457D01*
X140183Y56390D01*
X140258Y56318D01*
X140276Y56310D01*
X140291Y56297D01*
X140387Y56258D01*
X140481Y56215D01*
X140501Y56213D01*
X140519Y56205D01*
X140686Y56187D01*
X158114Y56187D01*
X158134Y56190D01*
X158153Y56188D01*
X158255Y56210D01*
X158357Y56226D01*
X158374Y56236D01*
X158394Y56240D01*
X158483Y56293D01*
X158574Y56342D01*
X158588Y56356D01*
X158605Y56366D01*
X158672Y56445D01*
X158744Y56520D01*
X158752Y56538D01*
X158765Y56553D01*
X158804Y56649D01*
X158847Y56743D01*
X158849Y56763D01*
X158857Y56781D01*
X158875Y56948D01*
X158875Y59732D01*
X159768Y60625D01*
X172032Y60625D01*
X172925Y59732D01*
X172925Y57148D01*
X172928Y57128D01*
X172926Y57109D01*
X172948Y57007D01*
X172964Y56905D01*
X172974Y56888D01*
X172978Y56868D01*
X173031Y56779D01*
X173080Y56688D01*
X173094Y56674D01*
X173104Y56657D01*
X173183Y56590D01*
X173258Y56518D01*
X173276Y56510D01*
X173291Y56497D01*
X173387Y56458D01*
X173481Y56415D01*
X173501Y56413D01*
X173519Y56405D01*
X173686Y56387D01*
X186847Y56387D01*
X205724Y37510D01*
X205798Y37457D01*
X205868Y37397D01*
X205898Y37385D01*
X205924Y37366D01*
X206011Y37339D01*
X206096Y37305D01*
X206137Y37301D01*
X206159Y37294D01*
X206191Y37295D01*
X206263Y37287D01*
X216737Y37287D01*
X216828Y37301D01*
X216918Y37309D01*
X216948Y37321D01*
X216980Y37326D01*
X217061Y37369D01*
X217145Y37405D01*
X217177Y37431D01*
X217198Y37442D01*
X217220Y37465D01*
X217276Y37510D01*
X222490Y42724D01*
X222543Y42798D01*
X222603Y42868D01*
X222615Y42898D01*
X222634Y42924D01*
X222661Y43011D01*
X222695Y43096D01*
X222699Y43137D01*
X222706Y43159D01*
X222705Y43191D01*
X222713Y43263D01*
X222713Y54119D01*
X222702Y54190D01*
X222700Y54262D01*
X222682Y54311D01*
X222674Y54362D01*
X222640Y54425D01*
X222615Y54493D01*
X222583Y54533D01*
X222558Y54579D01*
X222507Y54629D01*
X222462Y54685D01*
X222418Y54713D01*
X222380Y54749D01*
X222315Y54779D01*
X222255Y54818D01*
X222204Y54830D01*
X222157Y54852D01*
X222086Y54860D01*
X222016Y54878D01*
X221964Y54874D01*
X221913Y54879D01*
X221842Y54864D01*
X221771Y54859D01*
X221723Y54838D01*
X221672Y54827D01*
X221611Y54790D01*
X221545Y54762D01*
X221489Y54717D01*
X221461Y54701D01*
X221446Y54683D01*
X221414Y54657D01*
X221032Y54275D01*
X216268Y54275D01*
X215375Y55168D01*
X215375Y59932D01*
X215705Y60262D01*
X215717Y60278D01*
X215733Y60290D01*
X215789Y60377D01*
X215849Y60461D01*
X215855Y60480D01*
X215866Y60497D01*
X215891Y60598D01*
X215921Y60697D01*
X215921Y60716D01*
X215926Y60736D01*
X215918Y60839D01*
X215915Y60942D01*
X215908Y60961D01*
X215907Y60981D01*
X215866Y61076D01*
X215831Y61173D01*
X215818Y61189D01*
X215810Y61207D01*
X215705Y61338D01*
X215503Y61540D01*
X215429Y61593D01*
X215360Y61653D01*
X215330Y61665D01*
X215304Y61684D01*
X215217Y61711D01*
X215132Y61745D01*
X215091Y61749D01*
X215069Y61756D01*
X215036Y61755D01*
X214965Y61763D01*
X205579Y61763D01*
X205509Y61752D01*
X205437Y61750D01*
X205388Y61732D01*
X205337Y61724D01*
X205273Y61690D01*
X205206Y61665D01*
X205165Y61633D01*
X205119Y61608D01*
X205070Y61556D01*
X205014Y61512D01*
X204986Y61468D01*
X204950Y61430D01*
X204920Y61365D01*
X204881Y61305D01*
X204868Y61254D01*
X204846Y61207D01*
X204838Y61136D01*
X204821Y61066D01*
X204825Y61014D01*
X204819Y60963D01*
X204834Y60892D01*
X204840Y60821D01*
X204860Y60773D01*
X204871Y60722D01*
X204908Y60661D01*
X204936Y60595D01*
X204981Y60539D01*
X204998Y60511D01*
X205015Y60496D01*
X205041Y60464D01*
X206307Y59198D01*
X206307Y54802D01*
X203198Y51693D01*
X198802Y51693D01*
X195693Y54802D01*
X195693Y59198D01*
X196959Y60464D01*
X197001Y60522D01*
X197050Y60574D01*
X197072Y60621D01*
X197102Y60663D01*
X197124Y60732D01*
X197154Y60797D01*
X197159Y60849D01*
X197175Y60899D01*
X197173Y60970D01*
X197181Y61041D01*
X197170Y61092D01*
X197168Y61144D01*
X197144Y61212D01*
X197129Y61282D01*
X197102Y61327D01*
X197084Y61375D01*
X197039Y61431D01*
X197002Y61493D01*
X196963Y61527D01*
X196930Y61567D01*
X196870Y61606D01*
X196815Y61653D01*
X196767Y61672D01*
X196723Y61700D01*
X196654Y61718D01*
X196587Y61745D01*
X196516Y61753D01*
X196485Y61761D01*
X196462Y61759D01*
X196421Y61763D01*
X176803Y61763D01*
X169614Y68952D01*
X169540Y69005D01*
X169470Y69065D01*
X169440Y69077D01*
X169414Y69096D01*
X169327Y69123D01*
X169242Y69157D01*
X169201Y69161D01*
X169179Y69168D01*
X169147Y69167D01*
X169076Y69175D01*
X159968Y69175D01*
X159075Y70068D01*
X159075Y73352D01*
X159073Y73369D01*
X159074Y73384D01*
X159074Y73386D01*
X159074Y73391D01*
X159052Y73493D01*
X159036Y73595D01*
X159026Y73612D01*
X159022Y73632D01*
X158969Y73721D01*
X158920Y73812D01*
X158906Y73826D01*
X158896Y73843D01*
X158817Y73910D01*
X158742Y73982D01*
X158724Y73990D01*
X158709Y74003D01*
X158613Y74042D01*
X158519Y74085D01*
X158499Y74087D01*
X158481Y74095D01*
X158314Y74113D01*
X140686Y74113D01*
X140666Y74110D01*
X140647Y74112D01*
X140545Y74090D01*
X140443Y74074D01*
X140426Y74064D01*
X140406Y74060D01*
X140317Y74007D01*
X140226Y73958D01*
X140212Y73944D01*
X140195Y73934D01*
X140128Y73855D01*
X140056Y73780D01*
X140048Y73762D01*
X140035Y73747D01*
X139996Y73651D01*
X139953Y73557D01*
X139951Y73537D01*
X139943Y73519D01*
X139925Y73352D01*
X139925Y70268D01*
X139032Y69375D01*
X127925Y69375D01*
X127834Y69361D01*
X127744Y69353D01*
X127714Y69341D01*
X127682Y69336D01*
X127601Y69293D01*
X127517Y69257D01*
X127485Y69231D01*
X127464Y69220D01*
X127442Y69197D01*
X127386Y69152D01*
X125724Y67490D01*
X122510Y64276D01*
X120947Y62713D01*
X96358Y62713D01*
X96288Y62702D01*
X96216Y62700D01*
X96167Y62682D01*
X96116Y62674D01*
X96052Y62640D01*
X95985Y62615D01*
X95944Y62583D01*
X95898Y62558D01*
X95849Y62506D01*
X95793Y62462D01*
X95765Y62418D01*
X95729Y62380D01*
X95699Y62315D01*
X95660Y62255D01*
X95647Y62204D01*
X95625Y62157D01*
X95617Y62086D01*
X95600Y62016D01*
X95604Y61964D01*
X95598Y61913D01*
X95613Y61842D01*
X95619Y61771D01*
X95639Y61723D01*
X95650Y61672D01*
X95687Y61611D01*
X95715Y61545D01*
X95760Y61489D01*
X95777Y61461D01*
X95794Y61446D01*
X95802Y61436D01*
X95803Y61435D01*
X95804Y61434D01*
X95820Y61414D01*
X100824Y56410D01*
X100898Y56357D01*
X100968Y56297D01*
X100998Y56285D01*
X101024Y56266D01*
X101111Y56239D01*
X101196Y56205D01*
X101237Y56201D01*
X101259Y56194D01*
X101291Y56195D01*
X101363Y56187D01*
X109114Y56187D01*
X109134Y56190D01*
X109153Y56188D01*
X109255Y56210D01*
X109357Y56226D01*
X109374Y56236D01*
X109394Y56240D01*
X109483Y56293D01*
X109574Y56342D01*
X109588Y56356D01*
X109605Y56366D01*
X109672Y56445D01*
X109744Y56520D01*
X109752Y56538D01*
X109765Y56553D01*
X109804Y56649D01*
X109847Y56743D01*
X109849Y56763D01*
X109857Y56781D01*
X109875Y56948D01*
X109875Y60032D01*
X110768Y60925D01*
X122032Y60925D01*
X122925Y60032D01*
X122925Y47768D01*
X122032Y46875D01*
X110768Y46875D01*
X109875Y47768D01*
X109875Y50852D01*
X109872Y50872D01*
X109874Y50891D01*
X109852Y50993D01*
X109836Y51095D01*
X109826Y51112D01*
X109822Y51132D01*
X109769Y51221D01*
X109720Y51312D01*
X109706Y51326D01*
X109696Y51343D01*
X109617Y51410D01*
X109542Y51482D01*
X109524Y51490D01*
X109509Y51503D01*
X109413Y51542D01*
X109319Y51585D01*
X109299Y51587D01*
X109281Y51595D01*
X109114Y51613D01*
X99153Y51613D01*
X92606Y58160D01*
X92548Y58202D01*
X92496Y58251D01*
X92449Y58273D01*
X92407Y58303D01*
X92338Y58324D01*
X92273Y58355D01*
X92221Y58360D01*
X92171Y58376D01*
X92100Y58374D01*
X92029Y58382D01*
X91978Y58371D01*
X91926Y58369D01*
X91858Y58345D01*
X91788Y58330D01*
X91743Y58303D01*
X91695Y58285D01*
X91639Y58240D01*
X91577Y58203D01*
X91543Y58164D01*
X91503Y58131D01*
X91464Y58071D01*
X91417Y58016D01*
X91398Y57968D01*
X91370Y57924D01*
X91352Y57855D01*
X91325Y57788D01*
X91317Y57717D01*
X91309Y57686D01*
X91311Y57662D01*
X91307Y57622D01*
X91307Y55802D01*
X88198Y52693D01*
X83802Y52693D01*
X80693Y55802D01*
X80693Y60198D01*
X83802Y63307D01*
X85622Y63307D01*
X85692Y63318D01*
X85764Y63320D01*
X85813Y63338D01*
X85864Y63346D01*
X85928Y63380D01*
X85995Y63405D01*
X86036Y63437D01*
X86082Y63462D01*
X86131Y63514D01*
X86187Y63558D01*
X86215Y63602D01*
X86251Y63640D01*
X86281Y63705D01*
X86320Y63765D01*
X86333Y63816D01*
X86355Y63863D01*
X86363Y63934D01*
X86380Y64004D01*
X86376Y64056D01*
X86382Y64107D01*
X86367Y64178D01*
X86361Y64249D01*
X86341Y64297D01*
X86330Y64348D01*
X86293Y64409D01*
X86265Y64475D01*
X86220Y64531D01*
X86203Y64559D01*
X86186Y64574D01*
X86160Y64606D01*
X76776Y73990D01*
X76702Y74043D01*
X76632Y74103D01*
X76602Y74115D01*
X76576Y74134D01*
X76489Y74161D01*
X76404Y74195D01*
X76363Y74199D01*
X76341Y74206D01*
X76309Y74205D01*
X76237Y74213D01*
X73129Y74213D01*
X73059Y74202D01*
X72987Y74200D01*
X72938Y74182D01*
X72887Y74174D01*
X72823Y74140D01*
X72756Y74115D01*
X72715Y74083D01*
X72669Y74058D01*
X72620Y74006D01*
X72564Y73962D01*
X72536Y73918D01*
X72500Y73880D01*
X72470Y73815D01*
X72431Y73755D01*
X72418Y73704D01*
X72396Y73657D01*
X72388Y73586D01*
X72371Y73516D01*
X72375Y73464D01*
X72369Y73413D01*
X72384Y73342D01*
X72390Y73271D01*
X72410Y73223D01*
X72421Y73172D01*
X72458Y73111D01*
X72486Y73045D01*
X72531Y72989D01*
X72548Y72961D01*
X72565Y72946D01*
X72591Y72914D01*
X74307Y71198D01*
X74307Y66802D01*
X71198Y63693D01*
X66802Y63693D01*
X63693Y66802D01*
X63693Y69703D01*
X63682Y69774D01*
X63680Y69845D01*
X63662Y69894D01*
X63654Y69946D01*
X63620Y70009D01*
X63595Y70076D01*
X63563Y70117D01*
X63538Y70163D01*
X63486Y70212D01*
X63442Y70268D01*
X63398Y70297D01*
X63360Y70332D01*
X63295Y70363D01*
X63235Y70401D01*
X63184Y70414D01*
X63137Y70436D01*
X63066Y70444D01*
X62996Y70461D01*
X62944Y70457D01*
X62893Y70463D01*
X62822Y70448D01*
X62751Y70442D01*
X62703Y70422D01*
X62652Y70411D01*
X62591Y70374D01*
X62525Y70346D01*
X62469Y70301D01*
X62441Y70285D01*
X62426Y70267D01*
X62394Y70241D01*
X60900Y68747D01*
X57539Y67355D01*
X38661Y67355D01*
X35300Y68747D01*
X32727Y71320D01*
X31335Y74681D01*
X31335Y78319D01*
X32727Y81680D01*
X35300Y84253D01*
X38661Y85645D01*
X57539Y85645D01*
X60900Y84253D01*
X63473Y81680D01*
X64476Y79257D01*
X64538Y79157D01*
X64598Y79057D01*
X64603Y79053D01*
X64606Y79048D01*
X64696Y78973D01*
X64785Y78897D01*
X64791Y78895D01*
X64795Y78891D01*
X64904Y78849D01*
X65013Y78805D01*
X65020Y78804D01*
X65025Y78803D01*
X65043Y78802D01*
X65180Y78787D01*
X78447Y78787D01*
X89724Y67510D01*
X89798Y67457D01*
X89868Y67397D01*
X89898Y67385D01*
X89924Y67366D01*
X90011Y67339D01*
X90096Y67305D01*
X90137Y67301D01*
X90159Y67294D01*
X90191Y67295D01*
X90263Y67287D01*
X118738Y67287D01*
X118828Y67301D01*
X118919Y67309D01*
X118948Y67321D01*
X118980Y67326D01*
X119061Y67369D01*
X119145Y67405D01*
X119177Y67431D01*
X119198Y67442D01*
X119220Y67465D01*
X119276Y67510D01*
X119842Y68076D01*
X119884Y68134D01*
X119933Y68186D01*
X119955Y68233D01*
X119985Y68275D01*
X120006Y68344D01*
X120037Y68409D01*
X120042Y68461D01*
X120058Y68511D01*
X120056Y68582D01*
X120064Y68653D01*
X120053Y68704D01*
X120051Y68756D01*
X120027Y68824D01*
X120012Y68894D01*
X119985Y68938D01*
X119967Y68987D01*
X119922Y69043D01*
X119885Y69105D01*
X119846Y69139D01*
X119813Y69179D01*
X119753Y69218D01*
X119698Y69265D01*
X119650Y69284D01*
X119606Y69312D01*
X119537Y69330D01*
X119470Y69357D01*
X119399Y69365D01*
X119368Y69373D01*
X119344Y69371D01*
X119304Y69375D01*
X110768Y69375D01*
X109875Y70268D01*
X109875Y73952D01*
X109872Y73972D01*
X109874Y73991D01*
X109852Y74093D01*
X109836Y74195D01*
X109826Y74212D01*
X109822Y74232D01*
X109769Y74321D01*
X109720Y74412D01*
X109706Y74426D01*
X109696Y74443D01*
X109617Y74510D01*
X109542Y74582D01*
X109524Y74590D01*
X109509Y74603D01*
X109413Y74642D01*
X109319Y74685D01*
X109299Y74687D01*
X109281Y74695D01*
X109114Y74713D01*
X98053Y74713D01*
X73376Y99390D01*
X73302Y99443D01*
X73232Y99503D01*
X73202Y99515D01*
X73176Y99534D01*
X73089Y99561D01*
X73004Y99595D01*
X72963Y99599D01*
X72941Y99606D01*
X72909Y99605D01*
X72837Y99613D01*
X65180Y99613D01*
X65065Y99594D01*
X64949Y99577D01*
X64943Y99575D01*
X64937Y99574D01*
X64834Y99519D01*
X64729Y99466D01*
X64725Y99461D01*
X64720Y99458D01*
X64640Y99374D01*
X64557Y99290D01*
X64554Y99284D01*
X64550Y99280D01*
X64542Y99263D01*
X64476Y99143D01*
X63473Y96720D01*
X60900Y94147D01*
X57539Y92755D01*
X38661Y92755D01*
X35300Y94147D01*
X32727Y96720D01*
X31335Y100081D01*
X31335Y103719D01*
X32727Y107080D01*
X35300Y109653D01*
X38661Y111045D01*
X57539Y111045D01*
X60900Y109653D01*
X62394Y108159D01*
X62452Y108117D01*
X62504Y108068D01*
X62551Y108046D01*
X62593Y108015D01*
X62662Y107994D01*
X62727Y107964D01*
X62779Y107958D01*
X62829Y107943D01*
X62900Y107945D01*
X62971Y107937D01*
X63022Y107948D01*
X63074Y107949D01*
X63142Y107974D01*
X63212Y107989D01*
X63257Y108016D01*
X63305Y108034D01*
X63361Y108079D01*
X63423Y108115D01*
X63457Y108155D01*
X63497Y108187D01*
X63536Y108248D01*
X63583Y108302D01*
X63602Y108351D01*
X63630Y108394D01*
X63648Y108464D01*
X63675Y108530D01*
X63683Y108602D01*
X63691Y108633D01*
X63689Y108656D01*
X63693Y108697D01*
X63693Y112198D01*
X66802Y115307D01*
X71198Y115307D01*
X74307Y112198D01*
X74307Y107802D01*
X71991Y105486D01*
X71949Y105428D01*
X71900Y105376D01*
X71878Y105329D01*
X71848Y105287D01*
X71826Y105218D01*
X71796Y105153D01*
X71791Y105101D01*
X71775Y105051D01*
X71777Y104980D01*
X71769Y104909D01*
X71780Y104858D01*
X71782Y104806D01*
X71806Y104738D01*
X71821Y104668D01*
X71848Y104623D01*
X71866Y104575D01*
X71911Y104519D01*
X71948Y104457D01*
X71987Y104423D01*
X72020Y104383D01*
X72080Y104344D01*
X72135Y104297D01*
X72183Y104278D01*
X72227Y104250D01*
X72296Y104232D01*
X72363Y104205D01*
X72434Y104197D01*
X72465Y104189D01*
X72488Y104191D01*
X72529Y104187D01*
X72637Y104187D01*
X72728Y104201D01*
X72818Y104209D01*
X72848Y104221D01*
X72880Y104226D01*
X72961Y104269D01*
X73045Y104305D01*
X73077Y104331D01*
X73098Y104342D01*
X73120Y104365D01*
X73176Y104410D01*
X73276Y104510D01*
X94160Y125394D01*
X94202Y125452D01*
X94251Y125504D01*
X94273Y125551D01*
X94303Y125593D01*
X94324Y125662D01*
X94355Y125727D01*
X94360Y125779D01*
X94376Y125829D01*
X94374Y125900D01*
X94382Y125971D01*
X94371Y126022D01*
X94369Y126074D01*
X94345Y126142D01*
X94330Y126212D01*
X94303Y126257D01*
X94285Y126305D01*
X94240Y126361D01*
X94203Y126423D01*
X94164Y126457D01*
X94131Y126497D01*
X94071Y126536D01*
X94016Y126583D01*
X93968Y126602D01*
X93924Y126630D01*
X93855Y126648D01*
X93788Y126675D01*
X93717Y126683D01*
X93686Y126691D01*
X93662Y126689D01*
X93622Y126693D01*
X90802Y126693D01*
X87693Y129802D01*
X87693Y134198D01*
X90802Y137307D01*
X95198Y137307D01*
X98307Y134198D01*
X98307Y131378D01*
X98318Y131308D01*
X98320Y131236D01*
X98338Y131187D01*
X98346Y131136D01*
X98380Y131072D01*
X98405Y131005D01*
X98437Y130964D01*
X98462Y130918D01*
X98514Y130869D01*
X98558Y130813D01*
X98602Y130785D01*
X98640Y130749D01*
X98705Y130719D01*
X98765Y130680D01*
X98816Y130667D01*
X98863Y130645D01*
X98934Y130637D01*
X99004Y130620D01*
X99056Y130624D01*
X99107Y130618D01*
X99178Y130633D01*
X99249Y130639D01*
X99297Y130659D01*
X99348Y130670D01*
X99409Y130707D01*
X99475Y130735D01*
X99531Y130780D01*
X99559Y130797D01*
X99574Y130814D01*
X99606Y130840D01*
X121153Y152387D01*
X129814Y152387D01*
X129834Y152390D01*
X129853Y152388D01*
X129955Y152410D01*
X130057Y152426D01*
X130074Y152436D01*
X130094Y152440D01*
X130183Y152493D01*
X130274Y152542D01*
X130288Y152556D01*
X130305Y152566D01*
X130372Y152645D01*
X130444Y152720D01*
X130452Y152738D01*
X130465Y152753D01*
X130504Y152849D01*
X130547Y152943D01*
X130549Y152963D01*
X130557Y152981D01*
X130575Y153148D01*
X130575Y156232D01*
X131468Y157125D01*
X142732Y157125D01*
X143625Y156232D01*
X143625Y143968D01*
X142732Y143075D01*
X131468Y143075D01*
X130575Y143968D01*
X130575Y147052D01*
X130572Y147072D01*
X130574Y147091D01*
X130552Y147193D01*
X130536Y147295D01*
X130526Y147312D01*
X130522Y147332D01*
X130469Y147421D01*
X130420Y147512D01*
X130406Y147526D01*
X130396Y147543D01*
X130317Y147610D01*
X130242Y147682D01*
X130224Y147690D01*
X130209Y147703D01*
X130113Y147742D01*
X130019Y147785D01*
X129999Y147787D01*
X129981Y147795D01*
X129814Y147813D01*
X123363Y147813D01*
X123272Y147799D01*
X123182Y147791D01*
X123152Y147779D01*
X123120Y147774D01*
X123039Y147731D01*
X122955Y147695D01*
X122923Y147669D01*
X122902Y147658D01*
X122880Y147635D01*
X122824Y147590D01*
X93840Y118606D01*
X93798Y118548D01*
X93749Y118496D01*
X93727Y118449D01*
X93697Y118407D01*
X93676Y118338D01*
X93645Y118273D01*
X93640Y118221D01*
X93624Y118171D01*
X93626Y118100D01*
X93618Y118029D01*
X93629Y117978D01*
X93631Y117926D01*
X93655Y117858D01*
X93670Y117788D01*
X93697Y117743D01*
X93715Y117695D01*
X93760Y117639D01*
X93797Y117577D01*
X93836Y117543D01*
X93869Y117503D01*
X93929Y117464D01*
X93984Y117417D01*
X94032Y117398D01*
X94076Y117370D01*
X94145Y117352D01*
X94212Y117325D01*
X94283Y117317D01*
X94314Y117309D01*
X94338Y117311D01*
X94378Y117307D01*
X96198Y117307D01*
X99307Y114198D01*
X99307Y109802D01*
X96198Y106693D01*
X91802Y106693D01*
X88693Y109802D01*
X88693Y111622D01*
X88682Y111692D01*
X88680Y111764D01*
X88662Y111813D01*
X88654Y111864D01*
X88620Y111928D01*
X88595Y111995D01*
X88563Y112036D01*
X88538Y112082D01*
X88487Y112131D01*
X88442Y112187D01*
X88398Y112215D01*
X88360Y112251D01*
X88295Y112281D01*
X88235Y112320D01*
X88184Y112333D01*
X88137Y112355D01*
X88066Y112363D01*
X87996Y112380D01*
X87944Y112376D01*
X87893Y112382D01*
X87822Y112367D01*
X87751Y112361D01*
X87703Y112341D01*
X87652Y112330D01*
X87591Y112293D01*
X87525Y112265D01*
X87469Y112220D01*
X87441Y112203D01*
X87426Y112186D01*
X87394Y112160D01*
X77772Y102538D01*
X77761Y102522D01*
X77745Y102510D01*
X77689Y102422D01*
X77629Y102339D01*
X77623Y102320D01*
X77612Y102303D01*
X77587Y102202D01*
X77556Y102103D01*
X77557Y102084D01*
X77552Y102064D01*
X77560Y101961D01*
X77563Y101858D01*
X77570Y101839D01*
X77571Y101819D01*
X77611Y101724D01*
X77647Y101627D01*
X77660Y101611D01*
X77667Y101593D01*
X77772Y101462D01*
X88394Y90840D01*
X88452Y90798D01*
X88504Y90749D01*
X88551Y90727D01*
X88593Y90697D01*
X88662Y90676D01*
X88727Y90645D01*
X88779Y90640D01*
X88829Y90624D01*
X88900Y90626D01*
X88971Y90618D01*
X89022Y90629D01*
X89074Y90631D01*
X89142Y90655D01*
X89212Y90670D01*
X89257Y90697D01*
X89305Y90715D01*
X89361Y90760D01*
X89423Y90797D01*
X89457Y90836D01*
X89497Y90869D01*
X89536Y90929D01*
X89583Y90984D01*
X89602Y91032D01*
X89630Y91076D01*
X89648Y91145D01*
X89675Y91212D01*
X89683Y91283D01*
X89691Y91314D01*
X89689Y91338D01*
X89693Y91378D01*
X89693Y94198D01*
X92802Y97307D01*
X97198Y97307D01*
X100307Y94198D01*
X100307Y89802D01*
X97198Y86693D01*
X94378Y86693D01*
X94308Y86682D01*
X94236Y86680D01*
X94187Y86662D01*
X94136Y86654D01*
X94072Y86620D01*
X94005Y86595D01*
X93964Y86563D01*
X93918Y86538D01*
X93869Y86486D01*
X93813Y86442D01*
X93785Y86398D01*
X93749Y86360D01*
X93719Y86295D01*
X93680Y86235D01*
X93667Y86184D01*
X93645Y86137D01*
X93637Y86066D01*
X93620Y85996D01*
X93624Y85944D01*
X93618Y85893D01*
X93633Y85822D01*
X93639Y85751D01*
X93659Y85703D01*
X93670Y85652D01*
X93707Y85591D01*
X93735Y85525D01*
X93780Y85469D01*
X93797Y85441D01*
X93814Y85426D01*
X93840Y85394D01*
X99724Y79510D01*
X99798Y79457D01*
X99868Y79397D01*
X99898Y79385D01*
X99924Y79366D01*
X100011Y79339D01*
X100096Y79305D01*
X100137Y79301D01*
X100159Y79294D01*
X100191Y79295D01*
X100263Y79287D01*
X109114Y79287D01*
X109134Y79290D01*
X109153Y79288D01*
X109255Y79310D01*
X109357Y79326D01*
X109374Y79336D01*
X109394Y79340D01*
X109483Y79393D01*
X109574Y79442D01*
X109588Y79456D01*
X109605Y79466D01*
X109672Y79545D01*
X109744Y79620D01*
X109752Y79638D01*
X109765Y79653D01*
X109804Y79749D01*
X109847Y79843D01*
X109849Y79863D01*
X109857Y79881D01*
X109875Y80048D01*
X109875Y82532D01*
X110768Y83425D01*
X121952Y83425D01*
X121972Y83428D01*
X121991Y83426D01*
X122093Y83448D01*
X122195Y83464D01*
X122212Y83474D01*
X122232Y83478D01*
X122321Y83531D01*
X122412Y83580D01*
X122426Y83594D01*
X122443Y83604D01*
X122510Y83683D01*
X122582Y83758D01*
X122590Y83776D01*
X122603Y83791D01*
X122642Y83887D01*
X122685Y83981D01*
X122687Y84001D01*
X122695Y84019D01*
X122713Y84186D01*
X122713Y112447D01*
X130852Y120586D01*
X130905Y120660D01*
X130965Y120730D01*
X130977Y120760D01*
X130996Y120786D01*
X131023Y120873D01*
X131057Y120958D01*
X131061Y120999D01*
X131068Y121021D01*
X131067Y121053D01*
X131075Y121125D01*
X131075Y130232D01*
X131968Y131125D01*
X143232Y131125D01*
X144125Y130232D01*
X144125Y117968D01*
X143232Y117075D01*
X134125Y117075D01*
X134034Y117061D01*
X133944Y117053D01*
X133914Y117041D01*
X133882Y117036D01*
X133801Y116993D01*
X133717Y116957D01*
X133685Y116931D01*
X133664Y116920D01*
X133642Y116897D01*
X133586Y116852D01*
X127510Y110776D01*
X127457Y110702D01*
X127397Y110632D01*
X127385Y110602D01*
X127366Y110576D01*
X127339Y110489D01*
X127305Y110404D01*
X127301Y110363D01*
X127294Y110341D01*
X127295Y110309D01*
X127287Y110237D01*
X127287Y84186D01*
X127290Y84166D01*
X127288Y84147D01*
X127310Y84045D01*
X127326Y83943D01*
X127336Y83926D01*
X127340Y83906D01*
X127393Y83817D01*
X127442Y83726D01*
X127456Y83712D01*
X127466Y83695D01*
X127545Y83628D01*
X127620Y83556D01*
X127638Y83548D01*
X127653Y83535D01*
X127749Y83496D01*
X127843Y83453D01*
X127863Y83451D01*
X127881Y83443D01*
X128048Y83425D01*
X139032Y83425D01*
X139925Y82532D01*
X139925Y79448D01*
X139928Y79428D01*
X139926Y79409D01*
X139948Y79307D01*
X139964Y79205D01*
X139974Y79188D01*
X139978Y79168D01*
X140031Y79079D01*
X140080Y78988D01*
X140094Y78974D01*
X140104Y78957D01*
X140183Y78890D01*
X140258Y78818D01*
X140276Y78810D01*
X140291Y78797D01*
X140387Y78758D01*
X140481Y78715D01*
X140501Y78713D01*
X140519Y78705D01*
X140686Y78687D01*
X144971Y78687D01*
X145041Y78698D01*
X145113Y78700D01*
X145162Y78718D01*
X145213Y78726D01*
X145277Y78760D01*
X145344Y78785D01*
X145385Y78817D01*
X145431Y78842D01*
X145480Y78894D01*
X145536Y78938D01*
X145564Y78982D01*
X145600Y79020D01*
X145630Y79085D01*
X145669Y79145D01*
X145682Y79196D01*
X145704Y79243D01*
X145712Y79314D01*
X145729Y79384D01*
X145725Y79436D01*
X145731Y79487D01*
X145716Y79558D01*
X145710Y79629D01*
X145690Y79677D01*
X145679Y79728D01*
X145642Y79789D01*
X145614Y79855D01*
X145569Y79911D01*
X145552Y79939D01*
X145535Y79954D01*
X145509Y79986D01*
X143693Y81802D01*
X143693Y86198D01*
X146802Y89307D01*
X151198Y89307D01*
X154307Y86198D01*
X154307Y81802D01*
X152491Y79986D01*
X152449Y79928D01*
X152400Y79876D01*
X152378Y79829D01*
X152348Y79787D01*
X152326Y79718D01*
X152296Y79653D01*
X152291Y79601D01*
X152275Y79551D01*
X152277Y79480D01*
X152269Y79409D01*
X152280Y79358D01*
X152282Y79306D01*
X152306Y79238D01*
X152321Y79168D01*
X152348Y79123D01*
X152366Y79075D01*
X152411Y79019D01*
X152448Y78957D01*
X152487Y78923D01*
X152520Y78883D01*
X152580Y78844D01*
X152635Y78797D01*
X152683Y78778D01*
X152727Y78750D01*
X152796Y78732D01*
X152863Y78705D01*
X152934Y78697D01*
X152965Y78689D01*
X152988Y78691D01*
X153029Y78687D01*
X158314Y78687D01*
X158334Y78690D01*
X158353Y78688D01*
X158455Y78710D01*
X158557Y78726D01*
X158574Y78736D01*
X158594Y78740D01*
X158683Y78793D01*
X158774Y78842D01*
X158788Y78856D01*
X158805Y78866D01*
X158872Y78945D01*
X158944Y79020D01*
X158952Y79038D01*
X158965Y79053D01*
X159004Y79149D01*
X159047Y79243D01*
X159049Y79263D01*
X159057Y79281D01*
X159075Y79448D01*
X159075Y81332D01*
X159968Y82225D01*
X172232Y82225D01*
X173125Y81332D01*
X173125Y72224D01*
X173139Y72134D01*
X173147Y72043D01*
X173159Y72014D01*
X173164Y71982D01*
X173207Y71901D01*
X173243Y71817D01*
X173269Y71785D01*
X173280Y71764D01*
X173303Y71742D01*
X173348Y71686D01*
X178474Y66560D01*
X178548Y66507D01*
X178618Y66447D01*
X178648Y66435D01*
X178674Y66416D01*
X178761Y66389D01*
X178846Y66355D01*
X178887Y66351D01*
X178909Y66344D01*
X178941Y66345D01*
X179013Y66337D01*
X197321Y66337D01*
X197391Y66348D01*
X197463Y66350D01*
X197512Y66368D01*
X197563Y66376D01*
X197627Y66410D01*
X197694Y66435D01*
X197735Y66467D01*
X197781Y66492D01*
X197830Y66544D01*
X197886Y66588D01*
X197914Y66632D01*
X197950Y66670D01*
X197980Y66735D01*
X198019Y66795D01*
X198032Y66846D01*
X198054Y66893D01*
X198062Y66964D01*
X198079Y67034D01*
X198075Y67086D01*
X198081Y67137D01*
X198066Y67208D01*
X198060Y67279D01*
X198040Y67327D01*
X198029Y67378D01*
X197992Y67439D01*
X197964Y67505D01*
X197919Y67561D01*
X197902Y67589D01*
X197885Y67604D01*
X197859Y67636D01*
X195693Y69802D01*
X195693Y74198D01*
X198802Y77307D01*
X203198Y77307D01*
X206307Y74198D01*
X206307Y69802D01*
X204141Y67636D01*
X204099Y67578D01*
X204050Y67526D01*
X204028Y67479D01*
X203998Y67437D01*
X203976Y67368D01*
X203946Y67303D01*
X203941Y67251D01*
X203925Y67201D01*
X203927Y67130D01*
X203919Y67059D01*
X203930Y67008D01*
X203932Y66956D01*
X203956Y66888D01*
X203971Y66818D01*
X203998Y66773D01*
X204016Y66725D01*
X204061Y66669D01*
X204098Y66607D01*
X204137Y66573D01*
X204170Y66533D01*
X204230Y66494D01*
X204285Y66447D01*
X204333Y66428D01*
X204377Y66400D01*
X204446Y66382D01*
X204513Y66355D01*
X204584Y66347D01*
X204615Y66339D01*
X204638Y66341D01*
X204679Y66337D01*
X214965Y66337D01*
X215055Y66351D01*
X215146Y66359D01*
X215176Y66371D01*
X215208Y66376D01*
X215288Y66419D01*
X215372Y66455D01*
X215405Y66481D01*
X215425Y66492D01*
X215447Y66515D01*
X215503Y66560D01*
X215705Y66762D01*
X215717Y66778D01*
X215733Y66790D01*
X215789Y66877D01*
X215849Y66961D01*
X215855Y66980D01*
X215866Y66997D01*
X215891Y67097D01*
X215921Y67196D01*
X215921Y67216D01*
X215926Y67236D01*
X215918Y67339D01*
X215915Y67442D01*
X215908Y67461D01*
X215907Y67481D01*
X215866Y67576D01*
X215831Y67673D01*
X215818Y67689D01*
X215810Y67707D01*
X215705Y67838D01*
X215375Y68168D01*
X215375Y72932D01*
X216268Y73825D01*
X221032Y73825D01*
X221797Y73060D01*
X221871Y73007D01*
X221940Y72947D01*
X221970Y72935D01*
X221996Y72916D01*
X222083Y72889D01*
X222168Y72855D01*
X222209Y72851D01*
X222231Y72844D01*
X222264Y72845D01*
X222335Y72837D01*
X222397Y72837D01*
X227287Y67947D01*
X227287Y41053D01*
X218947Y32713D01*
X204053Y32713D01*
X201606Y35160D01*
X201548Y35202D01*
X201496Y35251D01*
X201449Y35273D01*
X201407Y35303D01*
X201338Y35324D01*
X201273Y35355D01*
X201221Y35360D01*
X201171Y35376D01*
X201100Y35374D01*
X201029Y35382D01*
X200978Y35371D01*
X200926Y35369D01*
X200858Y35345D01*
X200788Y35330D01*
X200743Y35303D01*
X200695Y35285D01*
X200639Y35240D01*
X200577Y35203D01*
X200543Y35164D01*
X200503Y35131D01*
X200464Y35071D01*
X200417Y35016D01*
X200398Y34968D01*
X200370Y34924D01*
X200352Y34855D01*
X200325Y34788D01*
X200317Y34717D01*
X200309Y34686D01*
X200311Y34662D01*
X200307Y34622D01*
X200307Y32802D01*
X197198Y29693D01*
X192802Y29693D01*
G37*
%LPD*%
%LPC*%
G36*
X49623Y52623D02*
X49623Y52623D01*
X49623Y61261D01*
X56520Y61261D01*
X58099Y61011D01*
X59620Y60516D01*
X61045Y59790D01*
X62339Y58850D01*
X63470Y57719D01*
X64410Y56425D01*
X65136Y55000D01*
X65631Y53479D01*
X65766Y52623D01*
X49623Y52623D01*
G37*
%LPD*%
%LPC*%
G36*
X30434Y52623D02*
X30434Y52623D01*
X30569Y53479D01*
X31064Y55000D01*
X31790Y56425D01*
X32730Y57719D01*
X33861Y58850D01*
X35155Y59790D01*
X36580Y60516D01*
X38101Y61011D01*
X39680Y61261D01*
X46577Y61261D01*
X46577Y52623D01*
X30434Y52623D01*
G37*
%LPD*%
%LPC*%
G36*
X49623Y40939D02*
X49623Y40939D01*
X49623Y49577D01*
X65766Y49577D01*
X65631Y48721D01*
X65136Y47200D01*
X64410Y45775D01*
X63470Y44481D01*
X62339Y43350D01*
X61045Y42410D01*
X59620Y41684D01*
X58099Y41189D01*
X56520Y40939D01*
X49623Y40939D01*
G37*
%LPD*%
%LPC*%
G36*
X39680Y40939D02*
X39680Y40939D01*
X38101Y41189D01*
X36580Y41684D01*
X35155Y42410D01*
X33861Y43350D01*
X32730Y44481D01*
X31790Y45775D01*
X31064Y47200D01*
X30569Y48721D01*
X30434Y49577D01*
X46577Y49577D01*
X46577Y40939D01*
X39680Y40939D01*
G37*
%LPD*%
%LPC*%
G36*
X146802Y59693D02*
X146802Y59693D01*
X143693Y62802D01*
X143693Y67198D01*
X146802Y70307D01*
X151198Y70307D01*
X154307Y67198D01*
X154307Y62802D01*
X151198Y59693D01*
X146802Y59693D01*
G37*
%LPD*%
%LPC*%
G36*
X164802Y131693D02*
X164802Y131693D01*
X161693Y134802D01*
X161693Y139198D01*
X164802Y142307D01*
X169198Y142307D01*
X172307Y139198D01*
X172307Y134802D01*
X169198Y131693D01*
X164802Y131693D01*
G37*
%LPD*%
%LPC*%
G36*
X66802Y83693D02*
X66802Y83693D01*
X63693Y86802D01*
X63693Y91198D01*
X66802Y94307D01*
X71198Y94307D01*
X74307Y91198D01*
X74307Y86802D01*
X71198Y83693D01*
X66802Y83693D01*
G37*
%LPD*%
%LPC*%
G36*
X251823Y152373D02*
X251823Y152373D01*
X251823Y158641D01*
X256034Y158641D01*
X256681Y158468D01*
X257260Y158133D01*
X257733Y157660D01*
X258068Y157081D01*
X258241Y156434D01*
X258241Y152373D01*
X251823Y152373D01*
G37*
%LPD*%
%LPC*%
G36*
X272923Y47573D02*
X272923Y47573D01*
X272923Y53841D01*
X277135Y53841D01*
X277781Y53668D01*
X278360Y53333D01*
X278833Y52860D01*
X279168Y52281D01*
X279341Y51634D01*
X279341Y47573D01*
X272923Y47573D01*
G37*
%LPD*%
%LPC*%
G36*
X263459Y47573D02*
X263459Y47573D01*
X263459Y51634D01*
X263632Y52281D01*
X263967Y52860D01*
X264440Y53333D01*
X265019Y53668D01*
X265666Y53841D01*
X269877Y53841D01*
X269877Y47573D01*
X263459Y47573D01*
G37*
%LPD*%
%LPC*%
G36*
X242359Y152373D02*
X242359Y152373D01*
X242359Y156434D01*
X242532Y157081D01*
X242867Y157660D01*
X243340Y158133D01*
X243919Y158468D01*
X244566Y158641D01*
X248777Y158641D01*
X248777Y152373D01*
X242359Y152373D01*
G37*
%LPD*%
%LPC*%
G36*
X251823Y143059D02*
X251823Y143059D01*
X251823Y149327D01*
X258241Y149327D01*
X258241Y145266D01*
X258068Y144619D01*
X257733Y144040D01*
X257260Y143567D01*
X256681Y143232D01*
X256034Y143059D01*
X251823Y143059D01*
G37*
%LPD*%
%LPC*%
G36*
X272923Y38259D02*
X272923Y38259D01*
X272923Y44527D01*
X279341Y44527D01*
X279341Y40466D01*
X279168Y39819D01*
X278833Y39240D01*
X278360Y38767D01*
X277781Y38432D01*
X277134Y38259D01*
X272923Y38259D01*
G37*
%LPD*%
%LPC*%
G36*
X255123Y24859D02*
X255123Y24859D01*
X255123Y31127D01*
X261541Y31127D01*
X261541Y27066D01*
X261368Y26419D01*
X261033Y25840D01*
X260560Y25367D01*
X259981Y25032D01*
X259334Y24859D01*
X255123Y24859D01*
G37*
%LPD*%
%LPC*%
G36*
X244566Y143059D02*
X244566Y143059D01*
X243919Y143232D01*
X243340Y143567D01*
X242867Y144040D01*
X242532Y144619D01*
X242359Y145266D01*
X242359Y149327D01*
X248777Y149327D01*
X248777Y143059D01*
X244566Y143059D01*
G37*
%LPD*%
%LPC*%
G36*
X265666Y38259D02*
X265666Y38259D01*
X265019Y38432D01*
X264440Y38767D01*
X263967Y39240D01*
X263632Y39819D01*
X263459Y40466D01*
X263459Y44527D01*
X269877Y44527D01*
X269877Y38259D01*
X265666Y38259D01*
G37*
%LPD*%
%LPC*%
G36*
X247866Y24859D02*
X247866Y24859D01*
X247219Y25032D01*
X246640Y25367D01*
X246167Y25840D01*
X245832Y26419D01*
X245659Y27066D01*
X245659Y31127D01*
X252077Y31127D01*
X252077Y24859D01*
X247866Y24859D01*
G37*
%LPD*%
%LPC*%
G36*
X234524Y145124D02*
X234524Y145124D01*
X234524Y148791D01*
X236734Y148791D01*
X237381Y148618D01*
X237960Y148283D01*
X238433Y147810D01*
X238768Y147231D01*
X238941Y146584D01*
X238941Y145124D01*
X234524Y145124D01*
G37*
%LPD*%
%LPC*%
G36*
X48099Y51099D02*
X48099Y51099D01*
X48099Y51101D01*
X48101Y51101D01*
X48101Y51099D01*
X48099Y51099D01*
G37*
%LPD*%
%LPC*%
G36*
X250299Y150849D02*
X250299Y150849D01*
X250299Y150851D01*
X250301Y150851D01*
X250301Y150849D01*
X250299Y150849D01*
G37*
%LPD*%
%LPC*%
G36*
X271399Y46049D02*
X271399Y46049D01*
X271399Y46051D01*
X271401Y46051D01*
X271401Y46049D01*
X271399Y46049D01*
G37*
%LPD*%
D10*
X271400Y63550D03*
X271400Y46050D03*
X250300Y133350D03*
X250300Y150850D03*
X253600Y50150D03*
X253600Y32650D03*
D11*
X55720Y127300D02*
X40480Y127300D01*
X40480Y101900D02*
X55720Y101900D01*
X55720Y76500D02*
X40480Y76500D01*
X40480Y51100D02*
X55720Y51100D01*
D12*
X194100Y150300D03*
X194100Y167300D03*
X193900Y123500D03*
X193900Y106500D03*
X166100Y75700D03*
X166100Y92700D03*
X165900Y54100D03*
X165900Y37100D03*
D13*
X133400Y76400D03*
X116400Y76400D03*
X133400Y53900D03*
X116400Y53900D03*
X137100Y150100D03*
X154100Y150100D03*
X137600Y124100D03*
X154600Y124100D03*
D14*
X218400Y144000D03*
X233400Y144000D03*
X218400Y136000D03*
X233400Y136000D03*
D15*
X218650Y51050D03*
X218650Y57550D03*
X218650Y64050D03*
X218650Y70550D03*
X233150Y70550D03*
X233150Y64050D03*
X233150Y57550D03*
X233150Y51050D03*
D16*
X48100Y127300D02*
X29222Y127300D01*
X20922Y119000D01*
X20922Y42000D01*
X39000Y23922D01*
X152722Y23922D01*
X165900Y37100D01*
X48100Y127300D02*
X48100Y154100D01*
X72000Y178000D01*
X168000Y178000D01*
X233150Y64050D02*
X270900Y64050D01*
X271400Y63550D01*
X252700Y51050D02*
X233150Y51050D01*
X252700Y51050D02*
X253600Y50150D01*
X194100Y167300D02*
X178700Y167300D01*
X168000Y178000D01*
X250300Y133350D02*
X271350Y133350D01*
X180100Y92700D02*
X166100Y92700D01*
X180100Y92700D02*
X193900Y106500D01*
X233400Y126400D02*
X233400Y136000D01*
X213500Y106500D02*
X193900Y106500D01*
X213500Y106500D02*
X233400Y126400D01*
X247650Y136000D02*
X250300Y133350D01*
X247650Y136000D02*
X233400Y136000D01*
X271350Y133350D02*
X288500Y150500D01*
X277000Y178000D02*
X168000Y178000D01*
X288500Y150500D02*
X288500Y80650D01*
X271400Y63550D01*
X228922Y23922D02*
X152722Y23922D01*
X228922Y23922D02*
X247000Y42000D01*
X253000Y42000D01*
X253600Y42600D01*
X253600Y50150D01*
X288500Y166500D02*
X277000Y178000D01*
X288500Y166500D02*
X288500Y150500D01*
X137100Y150100D02*
X122100Y150100D01*
X115800Y77000D02*
X116400Y76400D01*
X73900Y101900D02*
X48100Y101900D01*
X73900Y101900D02*
X74000Y102000D01*
X122100Y150100D01*
X74000Y102000D02*
X99000Y77000D01*
X115800Y77000D01*
X116400Y53900D02*
X100100Y53900D01*
X77500Y76500D02*
X69000Y76500D01*
X48100Y76500D01*
X89000Y65000D02*
X100100Y53900D01*
X89000Y65000D02*
X77500Y76500D01*
X125000Y111500D02*
X137600Y124100D01*
X125000Y111500D02*
X125000Y70000D01*
X120000Y65000D01*
X89000Y65000D01*
X133400Y53900D02*
X165700Y53900D01*
X165900Y54100D01*
X205000Y35000D02*
X218000Y35000D01*
X185900Y54100D02*
X165900Y54100D01*
X185900Y54100D02*
X205000Y35000D01*
X225000Y67000D02*
X221450Y70550D01*
X225000Y67000D02*
X225000Y42000D01*
X218000Y35000D01*
X218650Y70550D02*
X221450Y70550D01*
X165400Y76400D02*
X133400Y76400D01*
X165400Y76400D02*
X166100Y75700D01*
X177750Y64050D02*
X218650Y64050D01*
X177750Y64050D02*
X166100Y75700D01*
X154100Y150100D02*
X193900Y150100D01*
X194100Y150300D01*
X200400Y144000D02*
X218400Y144000D01*
X200400Y144000D02*
X194100Y150300D01*
X193300Y124100D02*
X154600Y124100D01*
X193300Y124100D02*
X193900Y123500D01*
X206400Y136000D02*
X218400Y136000D01*
X206400Y136000D02*
X193900Y123500D01*
D17*
X69000Y89000D03*
X69000Y69000D03*
X86000Y58000D03*
X69000Y110000D03*
X93000Y132000D03*
X94000Y112000D03*
X95000Y92000D03*
X166000Y158000D03*
X166000Y117000D03*
X149000Y84000D03*
X149000Y65000D03*
X149000Y47000D03*
X201000Y72000D03*
X201000Y57000D03*
X195000Y35000D03*
X167000Y137000D03*
M02*
