G04 EAGLE Gerber RS-274X export*
G75*
%MOMM*%
%FSLAX34Y34*%
%LPD*%
%INTop Copper*%
%IPPOS*%
%AMOC8*
5,1,8,0,0,1.08239X$1,22.5*%
G01*
%ADD10R,1.080000X1.050000*%
%ADD11C,1.524000*%
%ADD12R,1.100000X1.000000*%
%ADD13R,1.000000X1.100000*%
%ADD14R,0.600000X0.450000*%
%ADD15R,0.350000X0.350000*%
%ADD16C,0.300000*%
%ADD17C,0.304800*%
%ADD18C,0.756400*%

G36*
X296718Y2544D02*
X296718Y2544D01*
X296737Y2542D01*
X296839Y2564D01*
X296941Y2580D01*
X296958Y2590D01*
X296978Y2594D01*
X297067Y2647D01*
X297158Y2696D01*
X297172Y2710D01*
X297189Y2720D01*
X297256Y2799D01*
X297328Y2874D01*
X297336Y2892D01*
X297349Y2907D01*
X297388Y3003D01*
X297431Y3097D01*
X297433Y3117D01*
X297441Y3135D01*
X297459Y3302D01*
X297459Y196698D01*
X297456Y196718D01*
X297458Y196737D01*
X297436Y196839D01*
X297420Y196941D01*
X297410Y196958D01*
X297406Y196978D01*
X297353Y197067D01*
X297304Y197158D01*
X297290Y197172D01*
X297280Y197189D01*
X297201Y197256D01*
X297126Y197328D01*
X297108Y197336D01*
X297093Y197349D01*
X296997Y197388D01*
X296903Y197431D01*
X296883Y197433D01*
X296865Y197441D01*
X296698Y197459D01*
X3302Y197459D01*
X3282Y197456D01*
X3263Y197458D01*
X3161Y197436D01*
X3059Y197420D01*
X3042Y197410D01*
X3022Y197406D01*
X2933Y197353D01*
X2842Y197304D01*
X2828Y197290D01*
X2811Y197280D01*
X2744Y197201D01*
X2672Y197126D01*
X2664Y197108D01*
X2651Y197093D01*
X2612Y196997D01*
X2569Y196903D01*
X2567Y196883D01*
X2559Y196865D01*
X2541Y196698D01*
X2541Y3302D01*
X2544Y3282D01*
X2542Y3263D01*
X2564Y3161D01*
X2580Y3059D01*
X2590Y3042D01*
X2594Y3022D01*
X2647Y2933D01*
X2696Y2842D01*
X2710Y2828D01*
X2720Y2811D01*
X2799Y2744D01*
X2874Y2672D01*
X2892Y2664D01*
X2907Y2651D01*
X3003Y2612D01*
X3097Y2569D01*
X3117Y2567D01*
X3135Y2559D01*
X3302Y2541D01*
X296698Y2541D01*
X296718Y2544D01*
G37*
%LPC*%
G36*
X30995Y24129D02*
X30995Y24129D01*
X16255Y38869D01*
X16255Y116833D01*
X29771Y130349D01*
X34638Y130349D01*
X34753Y130368D01*
X34869Y130385D01*
X34875Y130387D01*
X34881Y130388D01*
X34983Y130443D01*
X35088Y130496D01*
X35093Y130501D01*
X35098Y130504D01*
X35178Y130588D01*
X35260Y130672D01*
X35264Y130678D01*
X35267Y130682D01*
X35275Y130699D01*
X35341Y130819D01*
X36029Y132480D01*
X38602Y135053D01*
X41963Y136445D01*
X47592Y136445D01*
X47612Y136448D01*
X47631Y136446D01*
X47733Y136468D01*
X47835Y136484D01*
X47852Y136494D01*
X47872Y136498D01*
X47961Y136551D01*
X48052Y136600D01*
X48066Y136614D01*
X48083Y136624D01*
X48150Y136703D01*
X48222Y136778D01*
X48230Y136796D01*
X48243Y136811D01*
X48282Y136907D01*
X48325Y137001D01*
X48327Y137021D01*
X48335Y137039D01*
X48353Y137206D01*
X48353Y158966D01*
X48350Y158986D01*
X48352Y159005D01*
X48330Y159107D01*
X48314Y159209D01*
X48304Y159226D01*
X48300Y159246D01*
X48247Y159335D01*
X48198Y159426D01*
X48184Y159440D01*
X48174Y159457D01*
X48095Y159524D01*
X48020Y159596D01*
X48002Y159604D01*
X47987Y159617D01*
X47891Y159656D01*
X47797Y159699D01*
X47777Y159701D01*
X47759Y159709D01*
X47592Y159727D01*
X45430Y159727D01*
X44537Y160620D01*
X44537Y171884D01*
X45430Y172777D01*
X57694Y172777D01*
X58587Y171884D01*
X58587Y160620D01*
X57694Y159727D01*
X55212Y159727D01*
X55192Y159724D01*
X55173Y159726D01*
X55071Y159704D01*
X54969Y159688D01*
X54952Y159678D01*
X54932Y159674D01*
X54843Y159621D01*
X54752Y159572D01*
X54738Y159558D01*
X54721Y159548D01*
X54654Y159469D01*
X54582Y159394D01*
X54574Y159376D01*
X54561Y159361D01*
X54522Y159265D01*
X54479Y159171D01*
X54477Y159151D01*
X54469Y159133D01*
X54451Y158966D01*
X54451Y137206D01*
X54454Y137186D01*
X54452Y137167D01*
X54474Y137065D01*
X54490Y136963D01*
X54500Y136946D01*
X54504Y136926D01*
X54557Y136837D01*
X54606Y136746D01*
X54620Y136732D01*
X54630Y136715D01*
X54709Y136648D01*
X54784Y136576D01*
X54802Y136568D01*
X54817Y136555D01*
X54913Y136516D01*
X55007Y136473D01*
X55027Y136471D01*
X55045Y136463D01*
X55212Y136445D01*
X60841Y136445D01*
X64202Y135053D01*
X66775Y132480D01*
X67463Y130819D01*
X67524Y130719D01*
X67584Y130619D01*
X67589Y130615D01*
X67592Y130610D01*
X67682Y130535D01*
X67771Y130459D01*
X67777Y130457D01*
X67782Y130453D01*
X67890Y130411D01*
X67999Y130367D01*
X68007Y130366D01*
X68011Y130365D01*
X68030Y130364D01*
X68166Y130349D01*
X81026Y130349D01*
X81046Y130352D01*
X81065Y130350D01*
X81167Y130372D01*
X81269Y130388D01*
X81286Y130398D01*
X81306Y130402D01*
X81395Y130455D01*
X81486Y130504D01*
X81500Y130518D01*
X81517Y130528D01*
X81584Y130607D01*
X81656Y130682D01*
X81664Y130700D01*
X81677Y130715D01*
X81716Y130811D01*
X81759Y130905D01*
X81761Y130925D01*
X81769Y130943D01*
X81787Y131110D01*
X81787Y164585D01*
X104909Y187707D01*
X277107Y187707D01*
X288822Y175992D01*
X290831Y173983D01*
X290831Y55379D01*
X281791Y46339D01*
X273732Y46339D01*
X273712Y46336D01*
X273693Y46338D01*
X273591Y46316D01*
X273489Y46300D01*
X273472Y46290D01*
X273452Y46286D01*
X273363Y46233D01*
X273272Y46184D01*
X273258Y46170D01*
X273241Y46160D01*
X273174Y46081D01*
X273102Y46006D01*
X273094Y45988D01*
X273081Y45973D01*
X273042Y45877D01*
X272999Y45783D01*
X272997Y45763D01*
X272989Y45745D01*
X272971Y45578D01*
X272971Y43506D01*
X272078Y42613D01*
X260014Y42613D01*
X259121Y43506D01*
X259121Y46478D01*
X259118Y46498D01*
X259120Y46517D01*
X259098Y46619D01*
X259082Y46721D01*
X259072Y46738D01*
X259068Y46758D01*
X259015Y46847D01*
X258966Y46938D01*
X258952Y46952D01*
X258942Y46969D01*
X258863Y47036D01*
X258788Y47108D01*
X258770Y47116D01*
X258755Y47129D01*
X258659Y47168D01*
X258565Y47211D01*
X258545Y47213D01*
X258527Y47221D01*
X258360Y47239D01*
X248519Y47239D01*
X248429Y47225D01*
X248338Y47217D01*
X248308Y47205D01*
X248276Y47200D01*
X248196Y47157D01*
X248111Y47121D01*
X248079Y47095D01*
X248059Y47084D01*
X248037Y47061D01*
X247981Y47016D01*
X247978Y47013D01*
X243214Y47013D01*
X242321Y47906D01*
X242321Y52670D01*
X243214Y53563D01*
X247978Y53563D01*
X247981Y53560D01*
X248055Y53507D01*
X248124Y53447D01*
X248154Y53435D01*
X248180Y53416D01*
X248267Y53389D01*
X248352Y53355D01*
X248393Y53351D01*
X248415Y53344D01*
X248448Y53345D01*
X248519Y53337D01*
X258360Y53337D01*
X258380Y53340D01*
X258399Y53338D01*
X258501Y53360D01*
X258603Y53376D01*
X258620Y53386D01*
X258640Y53390D01*
X258729Y53443D01*
X258820Y53492D01*
X258834Y53506D01*
X258851Y53516D01*
X258918Y53595D01*
X258990Y53670D01*
X258998Y53688D01*
X259011Y53703D01*
X259050Y53799D01*
X259093Y53893D01*
X259095Y53913D01*
X259103Y53931D01*
X259121Y54098D01*
X259121Y55270D01*
X260014Y56163D01*
X272078Y56163D01*
X272971Y55270D01*
X272971Y53198D01*
X272974Y53178D01*
X272972Y53159D01*
X272994Y53057D01*
X273010Y52955D01*
X273020Y52938D01*
X273024Y52918D01*
X273077Y52829D01*
X273126Y52738D01*
X273140Y52724D01*
X273150Y52707D01*
X273229Y52640D01*
X273304Y52568D01*
X273322Y52560D01*
X273337Y52547D01*
X273433Y52508D01*
X273527Y52465D01*
X273547Y52463D01*
X273565Y52455D01*
X273732Y52437D01*
X278950Y52437D01*
X279040Y52451D01*
X279131Y52459D01*
X279161Y52471D01*
X279193Y52476D01*
X279273Y52519D01*
X279357Y52555D01*
X279389Y52581D01*
X279410Y52592D01*
X279432Y52615D01*
X279488Y52660D01*
X284510Y57682D01*
X284563Y57756D01*
X284623Y57825D01*
X284635Y57855D01*
X284654Y57882D01*
X284681Y57969D01*
X284715Y58053D01*
X284719Y58094D01*
X284726Y58117D01*
X284725Y58149D01*
X284733Y58220D01*
X284733Y61722D01*
X284730Y61742D01*
X284732Y61761D01*
X284710Y61863D01*
X284694Y61965D01*
X284684Y61982D01*
X284680Y62002D01*
X284627Y62091D01*
X284578Y62182D01*
X284564Y62196D01*
X284554Y62213D01*
X284475Y62280D01*
X284400Y62352D01*
X284382Y62360D01*
X284367Y62373D01*
X284271Y62412D01*
X284177Y62455D01*
X284157Y62457D01*
X284139Y62465D01*
X283972Y62483D01*
X273750Y62483D01*
X273730Y62480D01*
X273711Y62482D01*
X273609Y62460D01*
X273507Y62444D01*
X273490Y62434D01*
X273470Y62430D01*
X273381Y62377D01*
X273290Y62328D01*
X273276Y62314D01*
X273259Y62304D01*
X273192Y62225D01*
X273120Y62150D01*
X273112Y62132D01*
X273099Y62117D01*
X273060Y62021D01*
X273017Y61927D01*
X273015Y61907D01*
X273007Y61889D01*
X272989Y61722D01*
X272989Y58838D01*
X272096Y57945D01*
X260032Y57945D01*
X259139Y58838D01*
X259139Y59478D01*
X259136Y59498D01*
X259138Y59517D01*
X259116Y59619D01*
X259100Y59721D01*
X259090Y59738D01*
X259086Y59758D01*
X259033Y59847D01*
X258984Y59938D01*
X258970Y59952D01*
X258960Y59969D01*
X258881Y60036D01*
X258806Y60108D01*
X258788Y60116D01*
X258773Y60129D01*
X258677Y60168D01*
X258583Y60211D01*
X258563Y60213D01*
X258545Y60221D01*
X258378Y60239D01*
X248519Y60239D01*
X248429Y60225D01*
X248338Y60217D01*
X248308Y60205D01*
X248276Y60200D01*
X248196Y60157D01*
X248111Y60121D01*
X248079Y60095D01*
X248059Y60084D01*
X248037Y60061D01*
X247981Y60016D01*
X247978Y60013D01*
X243214Y60013D01*
X242321Y60906D01*
X242321Y65670D01*
X242651Y66000D01*
X242663Y66016D01*
X242679Y66028D01*
X242735Y66115D01*
X242795Y66199D01*
X242801Y66218D01*
X242812Y66235D01*
X242837Y66336D01*
X242867Y66435D01*
X242867Y66454D01*
X242872Y66474D01*
X242864Y66577D01*
X242861Y66680D01*
X242854Y66699D01*
X242853Y66719D01*
X242812Y66814D01*
X242777Y66911D01*
X242764Y66927D01*
X242756Y66945D01*
X242651Y67076D01*
X242321Y67406D01*
X242321Y72170D01*
X243214Y73063D01*
X247978Y73063D01*
X248871Y72170D01*
X248871Y67098D01*
X248874Y67078D01*
X248872Y67059D01*
X248894Y66957D01*
X248910Y66855D01*
X248920Y66838D01*
X248924Y66818D01*
X248977Y66729D01*
X249026Y66638D01*
X249040Y66624D01*
X249050Y66607D01*
X249129Y66540D01*
X249204Y66468D01*
X249222Y66460D01*
X249237Y66447D01*
X249333Y66408D01*
X249427Y66365D01*
X249447Y66363D01*
X249465Y66355D01*
X249632Y66337D01*
X258378Y66337D01*
X258398Y66340D01*
X258417Y66338D01*
X258519Y66360D01*
X258621Y66376D01*
X258638Y66386D01*
X258658Y66390D01*
X258747Y66443D01*
X258838Y66492D01*
X258852Y66506D01*
X258869Y66516D01*
X258936Y66595D01*
X259008Y66670D01*
X259016Y66688D01*
X259029Y66703D01*
X259068Y66799D01*
X259111Y66893D01*
X259113Y66913D01*
X259121Y66931D01*
X259139Y67098D01*
X259139Y70602D01*
X260032Y71495D01*
X272096Y71495D01*
X272989Y70602D01*
X272989Y69342D01*
X272992Y69322D01*
X272990Y69303D01*
X273012Y69201D01*
X273028Y69099D01*
X273038Y69082D01*
X273042Y69062D01*
X273095Y68973D01*
X273144Y68882D01*
X273158Y68868D01*
X273168Y68851D01*
X273247Y68784D01*
X273322Y68712D01*
X273340Y68704D01*
X273355Y68691D01*
X273451Y68652D01*
X273545Y68609D01*
X273565Y68607D01*
X273583Y68599D01*
X273750Y68581D01*
X283972Y68581D01*
X283992Y68584D01*
X284011Y68582D01*
X284113Y68604D01*
X284215Y68620D01*
X284232Y68630D01*
X284252Y68634D01*
X284341Y68687D01*
X284432Y68736D01*
X284446Y68750D01*
X284463Y68760D01*
X284530Y68839D01*
X284602Y68914D01*
X284610Y68932D01*
X284623Y68947D01*
X284662Y69043D01*
X284705Y69137D01*
X284707Y69157D01*
X284715Y69175D01*
X284733Y69342D01*
X284733Y131572D01*
X284730Y131592D01*
X284732Y131611D01*
X284710Y131713D01*
X284694Y131815D01*
X284684Y131832D01*
X284680Y131852D01*
X284627Y131941D01*
X284578Y132032D01*
X284564Y132046D01*
X284554Y132063D01*
X284475Y132130D01*
X284400Y132202D01*
X284382Y132210D01*
X284367Y132223D01*
X284271Y132262D01*
X284177Y132305D01*
X284157Y132307D01*
X284139Y132315D01*
X283972Y132333D01*
X270178Y132333D01*
X270158Y132330D01*
X270139Y132332D01*
X270037Y132310D01*
X269935Y132294D01*
X269918Y132284D01*
X269898Y132280D01*
X269809Y132227D01*
X269718Y132178D01*
X269704Y132164D01*
X269687Y132154D01*
X269620Y132075D01*
X269548Y132000D01*
X269540Y131982D01*
X269527Y131967D01*
X269488Y131871D01*
X269445Y131777D01*
X269443Y131757D01*
X269435Y131739D01*
X269417Y131572D01*
X269417Y129500D01*
X268524Y128607D01*
X256460Y128607D01*
X255567Y129500D01*
X255567Y131428D01*
X255564Y131448D01*
X255566Y131467D01*
X255544Y131569D01*
X255528Y131671D01*
X255518Y131688D01*
X255514Y131708D01*
X255461Y131797D01*
X255412Y131888D01*
X255398Y131902D01*
X255388Y131919D01*
X255309Y131986D01*
X255234Y132058D01*
X255216Y132066D01*
X255201Y132079D01*
X255105Y132118D01*
X255011Y132161D01*
X254991Y132163D01*
X254973Y132171D01*
X254806Y132189D01*
X250519Y132189D01*
X250429Y132175D01*
X250338Y132167D01*
X250308Y132155D01*
X250276Y132150D01*
X250195Y132107D01*
X250112Y132071D01*
X250079Y132045D01*
X250059Y132034D01*
X250037Y132011D01*
X249981Y131966D01*
X249478Y131463D01*
X242214Y131463D01*
X241321Y132356D01*
X241321Y132476D01*
X241318Y132496D01*
X241320Y132515D01*
X241298Y132617D01*
X241282Y132719D01*
X241272Y132736D01*
X241268Y132756D01*
X241215Y132845D01*
X241166Y132936D01*
X241152Y132950D01*
X241142Y132967D01*
X241063Y133034D01*
X240988Y133106D01*
X240970Y133114D01*
X240955Y133127D01*
X240859Y133166D01*
X240765Y133209D01*
X240745Y133211D01*
X240727Y133219D01*
X240560Y133237D01*
X236132Y133237D01*
X236112Y133234D01*
X236093Y133236D01*
X235991Y133214D01*
X235889Y133198D01*
X235872Y133188D01*
X235852Y133184D01*
X235763Y133131D01*
X235672Y133082D01*
X235658Y133068D01*
X235641Y133058D01*
X235574Y132979D01*
X235502Y132904D01*
X235494Y132886D01*
X235481Y132871D01*
X235442Y132775D01*
X235399Y132681D01*
X235397Y132661D01*
X235389Y132643D01*
X235371Y132476D01*
X235371Y132356D01*
X234478Y131463D01*
X227214Y131463D01*
X226567Y132110D01*
X226493Y132163D01*
X226424Y132223D01*
X226394Y132235D01*
X226368Y132254D01*
X226281Y132281D01*
X226196Y132315D01*
X226155Y132319D01*
X226133Y132326D01*
X226100Y132325D01*
X226029Y132333D01*
X220526Y132333D01*
X220436Y132319D01*
X220345Y132311D01*
X220315Y132299D01*
X220283Y132294D01*
X220203Y132251D01*
X220119Y132215D01*
X220087Y132189D01*
X220066Y132178D01*
X220044Y132155D01*
X219988Y132110D01*
X207913Y120035D01*
X196380Y120035D01*
X196360Y120032D01*
X196341Y120034D01*
X196239Y120012D01*
X196137Y119996D01*
X196120Y119986D01*
X196100Y119982D01*
X196011Y119929D01*
X195920Y119880D01*
X195906Y119866D01*
X195889Y119856D01*
X195822Y119777D01*
X195750Y119702D01*
X195742Y119684D01*
X195729Y119669D01*
X195690Y119573D01*
X195647Y119479D01*
X195645Y119459D01*
X195637Y119441D01*
X195619Y119274D01*
X195619Y116952D01*
X194726Y116059D01*
X183462Y116059D01*
X182569Y116952D01*
X182569Y129216D01*
X183462Y130109D01*
X194726Y130109D01*
X195619Y129216D01*
X195619Y126894D01*
X195622Y126874D01*
X195620Y126855D01*
X195642Y126753D01*
X195658Y126651D01*
X195668Y126634D01*
X195672Y126614D01*
X195725Y126525D01*
X195774Y126434D01*
X195788Y126420D01*
X195798Y126403D01*
X195877Y126336D01*
X195952Y126264D01*
X195970Y126256D01*
X195985Y126243D01*
X196081Y126204D01*
X196175Y126161D01*
X196195Y126159D01*
X196213Y126151D01*
X196380Y126133D01*
X205072Y126133D01*
X205162Y126147D01*
X205253Y126155D01*
X205283Y126167D01*
X205315Y126172D01*
X205395Y126215D01*
X205479Y126251D01*
X205511Y126277D01*
X205532Y126288D01*
X205554Y126311D01*
X205610Y126356D01*
X217685Y138431D01*
X226317Y138431D01*
X226407Y138446D01*
X226498Y138453D01*
X226528Y138465D01*
X226560Y138470D01*
X226641Y138513D01*
X226725Y138549D01*
X226757Y138575D01*
X226777Y138586D01*
X226799Y138609D01*
X226856Y138654D01*
X226902Y138700D01*
X226913Y138716D01*
X226929Y138728D01*
X226985Y138816D01*
X227045Y138900D01*
X227051Y138919D01*
X227062Y138935D01*
X227087Y139036D01*
X227117Y139135D01*
X227117Y139155D01*
X227122Y139174D01*
X227114Y139277D01*
X227111Y139381D01*
X227104Y139399D01*
X227103Y139419D01*
X227062Y139514D01*
X227026Y139612D01*
X227014Y139627D01*
X227006Y139645D01*
X226901Y139776D01*
X226711Y139966D01*
X226637Y140019D01*
X226568Y140079D01*
X226538Y140091D01*
X226512Y140110D01*
X226425Y140137D01*
X226340Y140171D01*
X226299Y140175D01*
X226277Y140182D01*
X226244Y140181D01*
X226173Y140189D01*
X218465Y140189D01*
X212828Y145826D01*
X212754Y145879D01*
X212685Y145939D01*
X212655Y145951D01*
X212628Y145970D01*
X212541Y145997D01*
X212457Y146031D01*
X212416Y146035D01*
X212393Y146042D01*
X212361Y146041D01*
X212290Y146049D01*
X196380Y146049D01*
X196360Y146046D01*
X196341Y146048D01*
X196239Y146026D01*
X196137Y146010D01*
X196120Y146000D01*
X196100Y145996D01*
X196011Y145943D01*
X195920Y145894D01*
X195906Y145880D01*
X195889Y145870D01*
X195822Y145791D01*
X195750Y145716D01*
X195742Y145698D01*
X195729Y145683D01*
X195690Y145587D01*
X195647Y145493D01*
X195645Y145473D01*
X195637Y145455D01*
X195619Y145288D01*
X195619Y142952D01*
X194726Y142059D01*
X183462Y142059D01*
X182569Y142952D01*
X182569Y155216D01*
X183462Y156109D01*
X194726Y156109D01*
X195619Y155216D01*
X195619Y152908D01*
X195622Y152888D01*
X195620Y152869D01*
X195642Y152767D01*
X195658Y152665D01*
X195668Y152648D01*
X195672Y152628D01*
X195725Y152539D01*
X195774Y152448D01*
X195788Y152434D01*
X195798Y152417D01*
X195877Y152350D01*
X195952Y152278D01*
X195970Y152270D01*
X195985Y152257D01*
X196081Y152218D01*
X196175Y152175D01*
X196195Y152173D01*
X196213Y152165D01*
X196380Y152147D01*
X215131Y152147D01*
X220768Y146510D01*
X220842Y146456D01*
X220911Y146397D01*
X220941Y146385D01*
X220968Y146366D01*
X221055Y146339D01*
X221139Y146305D01*
X221180Y146301D01*
X221203Y146294D01*
X221235Y146295D01*
X221306Y146287D01*
X226173Y146287D01*
X226263Y146301D01*
X226354Y146309D01*
X226384Y146321D01*
X226416Y146326D01*
X226497Y146369D01*
X226580Y146405D01*
X226613Y146431D01*
X226633Y146442D01*
X226655Y146465D01*
X226711Y146510D01*
X227214Y147013D01*
X234478Y147013D01*
X235371Y146120D01*
X235371Y146000D01*
X235374Y145980D01*
X235372Y145961D01*
X235394Y145859D01*
X235410Y145757D01*
X235420Y145740D01*
X235424Y145720D01*
X235477Y145631D01*
X235526Y145540D01*
X235540Y145526D01*
X235550Y145509D01*
X235629Y145442D01*
X235704Y145370D01*
X235722Y145362D01*
X235737Y145349D01*
X235833Y145310D01*
X235927Y145267D01*
X235947Y145265D01*
X235965Y145257D01*
X236132Y145239D01*
X239565Y145239D01*
X239608Y145246D01*
X239652Y145244D01*
X239729Y145266D01*
X239807Y145278D01*
X239846Y145299D01*
X239888Y145311D01*
X239954Y145356D01*
X240025Y145394D01*
X240055Y145425D01*
X240091Y145450D01*
X240139Y145514D01*
X240194Y145572D01*
X240213Y145612D01*
X240239Y145647D01*
X240292Y145783D01*
X240298Y145795D01*
X240298Y145798D01*
X240300Y145803D01*
X240478Y146469D01*
X240813Y147048D01*
X241286Y147521D01*
X241865Y147856D01*
X242512Y148029D01*
X244722Y148029D01*
X244722Y143601D01*
X244725Y143582D01*
X244723Y143562D01*
X244745Y143460D01*
X244761Y143358D01*
X244771Y143341D01*
X244775Y143321D01*
X244828Y143232D01*
X244877Y143141D01*
X244891Y143127D01*
X244901Y143110D01*
X244980Y143043D01*
X245055Y142972D01*
X245073Y142963D01*
X245088Y142950D01*
X245184Y142912D01*
X245278Y142868D01*
X245298Y142866D01*
X245316Y142858D01*
X245450Y142844D01*
X245449Y142835D01*
X245471Y142734D01*
X245488Y142632D01*
X245497Y142615D01*
X245501Y142595D01*
X245554Y142506D01*
X245603Y142415D01*
X245617Y142401D01*
X245627Y142384D01*
X245706Y142317D01*
X245781Y142245D01*
X245799Y142237D01*
X245814Y142224D01*
X245911Y142185D01*
X246004Y142142D01*
X246024Y142140D01*
X246042Y142132D01*
X246209Y142114D01*
X251387Y142114D01*
X251387Y140654D01*
X251214Y140007D01*
X250879Y139429D01*
X250846Y139339D01*
X250806Y139253D01*
X250802Y139225D01*
X250792Y139199D01*
X250789Y139103D01*
X250778Y139009D01*
X250784Y138981D01*
X250783Y138953D01*
X250810Y138861D01*
X250831Y138768D01*
X250845Y138744D01*
X250853Y138717D01*
X250908Y138639D01*
X250957Y138557D01*
X250978Y138539D01*
X250995Y138516D01*
X251071Y138459D01*
X251144Y138397D01*
X251170Y138387D01*
X251193Y138370D01*
X251283Y138341D01*
X251372Y138305D01*
X251407Y138301D01*
X251427Y138295D01*
X251460Y138295D01*
X251539Y138287D01*
X254806Y138287D01*
X254826Y138290D01*
X254845Y138288D01*
X254947Y138310D01*
X255049Y138326D01*
X255066Y138336D01*
X255086Y138340D01*
X255175Y138393D01*
X255266Y138442D01*
X255280Y138456D01*
X255297Y138466D01*
X255364Y138545D01*
X255436Y138620D01*
X255444Y138638D01*
X255457Y138653D01*
X255496Y138749D01*
X255539Y138843D01*
X255541Y138863D01*
X255549Y138881D01*
X255567Y139048D01*
X255567Y141264D01*
X256460Y142157D01*
X268524Y142157D01*
X269417Y141264D01*
X269417Y139192D01*
X269420Y139172D01*
X269418Y139153D01*
X269440Y139051D01*
X269456Y138949D01*
X269466Y138932D01*
X269470Y138912D01*
X269523Y138823D01*
X269572Y138732D01*
X269586Y138718D01*
X269596Y138701D01*
X269675Y138634D01*
X269750Y138562D01*
X269768Y138554D01*
X269783Y138541D01*
X269879Y138502D01*
X269973Y138459D01*
X269993Y138457D01*
X270011Y138449D01*
X270178Y138431D01*
X283972Y138431D01*
X283992Y138434D01*
X284011Y138432D01*
X284113Y138454D01*
X284215Y138470D01*
X284232Y138480D01*
X284252Y138484D01*
X284341Y138537D01*
X284432Y138586D01*
X284446Y138600D01*
X284463Y138610D01*
X284530Y138689D01*
X284602Y138764D01*
X284610Y138782D01*
X284623Y138797D01*
X284662Y138893D01*
X284705Y138987D01*
X284707Y139007D01*
X284715Y139025D01*
X284733Y139192D01*
X284733Y171142D01*
X284719Y171232D01*
X284711Y171323D01*
X284699Y171353D01*
X284694Y171385D01*
X284651Y171465D01*
X284615Y171549D01*
X284589Y171581D01*
X284578Y171602D01*
X284555Y171624D01*
X284510Y171680D01*
X274804Y181386D01*
X274730Y181439D01*
X274661Y181499D01*
X274631Y181511D01*
X274604Y181530D01*
X274517Y181557D01*
X274433Y181591D01*
X274392Y181595D01*
X274369Y181602D01*
X274337Y181601D01*
X274266Y181609D01*
X107750Y181609D01*
X107660Y181595D01*
X107569Y181587D01*
X107539Y181575D01*
X107507Y181570D01*
X107427Y181527D01*
X107343Y181491D01*
X107311Y181465D01*
X107290Y181454D01*
X107268Y181431D01*
X107212Y181386D01*
X88108Y162282D01*
X88055Y162208D01*
X87995Y162139D01*
X87983Y162109D01*
X87964Y162082D01*
X87937Y161995D01*
X87903Y161911D01*
X87899Y161870D01*
X87892Y161847D01*
X87893Y161815D01*
X87885Y161744D01*
X87885Y131110D01*
X87888Y131090D01*
X87886Y131071D01*
X87908Y130969D01*
X87924Y130867D01*
X87934Y130850D01*
X87938Y130830D01*
X87991Y130741D01*
X88040Y130650D01*
X88054Y130636D01*
X88064Y130619D01*
X88143Y130552D01*
X88218Y130480D01*
X88236Y130472D01*
X88251Y130459D01*
X88347Y130420D01*
X88441Y130377D01*
X88461Y130375D01*
X88479Y130367D01*
X88646Y130349D01*
X90371Y130349D01*
X99354Y121366D01*
X99428Y121313D01*
X99497Y121253D01*
X99527Y121241D01*
X99554Y121222D01*
X99641Y121195D01*
X99725Y121161D01*
X99766Y121157D01*
X99789Y121150D01*
X99821Y121151D01*
X99892Y121143D01*
X103428Y121143D01*
X103448Y121146D01*
X103467Y121144D01*
X103569Y121166D01*
X103671Y121182D01*
X103688Y121192D01*
X103708Y121196D01*
X103797Y121249D01*
X103888Y121298D01*
X103902Y121312D01*
X103919Y121322D01*
X103986Y121401D01*
X104058Y121476D01*
X104066Y121494D01*
X104079Y121509D01*
X104118Y121605D01*
X104161Y121699D01*
X104163Y121719D01*
X104171Y121737D01*
X104189Y121904D01*
X104189Y123726D01*
X105082Y124619D01*
X117346Y124619D01*
X118239Y123726D01*
X118239Y112462D01*
X117346Y111569D01*
X105082Y111569D01*
X104189Y112462D01*
X104189Y114284D01*
X104186Y114304D01*
X104188Y114323D01*
X104166Y114425D01*
X104150Y114527D01*
X104140Y114544D01*
X104136Y114564D01*
X104083Y114653D01*
X104034Y114744D01*
X104020Y114758D01*
X104010Y114775D01*
X103931Y114842D01*
X103856Y114914D01*
X103838Y114922D01*
X103823Y114935D01*
X103727Y114974D01*
X103633Y115017D01*
X103613Y115019D01*
X103595Y115027D01*
X103428Y115045D01*
X97051Y115045D01*
X88068Y124028D01*
X87994Y124081D01*
X87925Y124141D01*
X87895Y124153D01*
X87868Y124172D01*
X87781Y124199D01*
X87697Y124233D01*
X87656Y124237D01*
X87633Y124244D01*
X87601Y124243D01*
X87530Y124251D01*
X68166Y124251D01*
X68051Y124232D01*
X67935Y124215D01*
X67929Y124213D01*
X67923Y124212D01*
X67821Y124157D01*
X67716Y124104D01*
X67711Y124099D01*
X67706Y124096D01*
X67626Y124012D01*
X67544Y123928D01*
X67540Y123922D01*
X67537Y123918D01*
X67529Y123901D01*
X67463Y123781D01*
X66775Y122120D01*
X64202Y119547D01*
X60841Y118155D01*
X41963Y118155D01*
X38602Y119547D01*
X36029Y122120D01*
X35341Y123781D01*
X35280Y123881D01*
X35220Y123981D01*
X35215Y123985D01*
X35212Y123990D01*
X35122Y124065D01*
X35033Y124141D01*
X35027Y124143D01*
X35022Y124147D01*
X34914Y124189D01*
X34805Y124233D01*
X34797Y124234D01*
X34793Y124235D01*
X34774Y124236D01*
X34638Y124251D01*
X32612Y124251D01*
X32522Y124237D01*
X32431Y124229D01*
X32401Y124217D01*
X32369Y124212D01*
X32289Y124169D01*
X32205Y124133D01*
X32173Y124107D01*
X32152Y124096D01*
X32130Y124073D01*
X32074Y124028D01*
X22576Y114530D01*
X22523Y114456D01*
X22463Y114387D01*
X22451Y114357D01*
X22432Y114330D01*
X22405Y114243D01*
X22371Y114159D01*
X22367Y114118D01*
X22360Y114095D01*
X22361Y114063D01*
X22353Y113992D01*
X22353Y41710D01*
X22367Y41620D01*
X22375Y41529D01*
X22387Y41499D01*
X22392Y41467D01*
X22435Y41387D01*
X22471Y41303D01*
X22497Y41271D01*
X22508Y41250D01*
X22531Y41228D01*
X22576Y41172D01*
X33298Y30450D01*
X33372Y30397D01*
X33441Y30337D01*
X33471Y30325D01*
X33498Y30306D01*
X33585Y30279D01*
X33669Y30245D01*
X33710Y30241D01*
X33733Y30234D01*
X33765Y30235D01*
X33836Y30227D01*
X90370Y30227D01*
X90460Y30241D01*
X90551Y30249D01*
X90581Y30261D01*
X90613Y30266D01*
X90693Y30309D01*
X90777Y30345D01*
X90809Y30371D01*
X90830Y30382D01*
X90852Y30405D01*
X90908Y30450D01*
X107996Y47538D01*
X108049Y47612D01*
X108109Y47681D01*
X108121Y47711D01*
X108140Y47738D01*
X108167Y47825D01*
X108201Y47909D01*
X108205Y47950D01*
X108212Y47973D01*
X108211Y48005D01*
X108219Y48076D01*
X108219Y51144D01*
X108216Y51164D01*
X108218Y51183D01*
X108196Y51285D01*
X108180Y51387D01*
X108170Y51404D01*
X108166Y51424D01*
X108113Y51513D01*
X108064Y51604D01*
X108050Y51618D01*
X108040Y51635D01*
X107961Y51702D01*
X107886Y51774D01*
X107868Y51782D01*
X107853Y51795D01*
X107757Y51834D01*
X107663Y51877D01*
X107643Y51879D01*
X107625Y51887D01*
X107458Y51905D01*
X105136Y51905D01*
X104243Y52798D01*
X104243Y64062D01*
X105136Y64955D01*
X117400Y64955D01*
X118293Y64062D01*
X118293Y52798D01*
X117400Y51905D01*
X115078Y51905D01*
X115058Y51902D01*
X115039Y51904D01*
X114937Y51882D01*
X114835Y51866D01*
X114818Y51856D01*
X114798Y51852D01*
X114709Y51799D01*
X114618Y51750D01*
X114604Y51736D01*
X114587Y51726D01*
X114520Y51647D01*
X114448Y51572D01*
X114440Y51554D01*
X114427Y51539D01*
X114388Y51443D01*
X114345Y51349D01*
X114343Y51329D01*
X114335Y51311D01*
X114317Y51144D01*
X114317Y45235D01*
X93211Y24129D01*
X30995Y24129D01*
G37*
%LPD*%
%LPC*%
G36*
X166462Y41181D02*
X166462Y41181D01*
X165569Y42074D01*
X165569Y44396D01*
X165566Y44416D01*
X165568Y44435D01*
X165546Y44537D01*
X165530Y44639D01*
X165520Y44656D01*
X165516Y44676D01*
X165463Y44765D01*
X165414Y44856D01*
X165400Y44870D01*
X165390Y44887D01*
X165311Y44954D01*
X165236Y45026D01*
X165218Y45034D01*
X165203Y45047D01*
X165107Y45086D01*
X165013Y45129D01*
X164993Y45131D01*
X164975Y45139D01*
X164808Y45157D01*
X158303Y45157D01*
X148589Y54871D01*
X148589Y97284D01*
X148586Y97304D01*
X148588Y97323D01*
X148566Y97425D01*
X148550Y97527D01*
X148540Y97544D01*
X148536Y97564D01*
X148483Y97653D01*
X148434Y97744D01*
X148420Y97758D01*
X148410Y97775D01*
X148331Y97842D01*
X148256Y97914D01*
X148238Y97922D01*
X148223Y97935D01*
X148127Y97974D01*
X148033Y98017D01*
X148013Y98019D01*
X147995Y98027D01*
X147828Y98045D01*
X119000Y98045D01*
X118980Y98042D01*
X118961Y98044D01*
X118859Y98022D01*
X118757Y98006D01*
X118740Y97996D01*
X118720Y97992D01*
X118631Y97939D01*
X118540Y97890D01*
X118526Y97876D01*
X118509Y97866D01*
X118442Y97787D01*
X118370Y97712D01*
X118362Y97694D01*
X118349Y97679D01*
X118310Y97583D01*
X118267Y97489D01*
X118265Y97469D01*
X118257Y97451D01*
X118239Y97284D01*
X118239Y95462D01*
X117346Y94569D01*
X105082Y94569D01*
X104189Y95462D01*
X104189Y97284D01*
X104186Y97304D01*
X104188Y97323D01*
X104166Y97425D01*
X104150Y97527D01*
X104140Y97544D01*
X104136Y97564D01*
X104083Y97653D01*
X104034Y97744D01*
X104020Y97758D01*
X104010Y97775D01*
X103931Y97842D01*
X103856Y97914D01*
X103838Y97922D01*
X103823Y97935D01*
X103727Y97974D01*
X103633Y98017D01*
X103613Y98019D01*
X103595Y98027D01*
X103428Y98045D01*
X67832Y98045D01*
X67717Y98026D01*
X67601Y98009D01*
X67596Y98007D01*
X67589Y98006D01*
X67487Y97951D01*
X67382Y97898D01*
X67378Y97893D01*
X67372Y97890D01*
X67292Y97806D01*
X67210Y97722D01*
X67206Y97716D01*
X67203Y97712D01*
X67195Y97695D01*
X67129Y97575D01*
X66775Y96720D01*
X64202Y94147D01*
X60841Y92755D01*
X41963Y92755D01*
X38602Y94147D01*
X36029Y96720D01*
X34637Y100081D01*
X34637Y103719D01*
X36029Y107080D01*
X38602Y109653D01*
X41963Y111045D01*
X60841Y111045D01*
X64202Y109653D01*
X66775Y107080D01*
X67797Y104613D01*
X67858Y104513D01*
X67918Y104413D01*
X67923Y104409D01*
X67926Y104404D01*
X68016Y104329D01*
X68105Y104253D01*
X68111Y104251D01*
X68116Y104247D01*
X68224Y104205D01*
X68333Y104161D01*
X68341Y104160D01*
X68345Y104159D01*
X68364Y104158D01*
X68500Y104143D01*
X103428Y104143D01*
X103448Y104146D01*
X103467Y104144D01*
X103569Y104166D01*
X103671Y104182D01*
X103688Y104192D01*
X103708Y104196D01*
X103797Y104249D01*
X103888Y104298D01*
X103902Y104312D01*
X103919Y104322D01*
X103986Y104401D01*
X104058Y104476D01*
X104066Y104494D01*
X104079Y104509D01*
X104118Y104605D01*
X104161Y104699D01*
X104163Y104719D01*
X104171Y104737D01*
X104189Y104904D01*
X104189Y106726D01*
X105082Y107619D01*
X117346Y107619D01*
X118239Y106726D01*
X118239Y104904D01*
X118242Y104884D01*
X118240Y104865D01*
X118262Y104763D01*
X118278Y104661D01*
X118288Y104644D01*
X118292Y104624D01*
X118345Y104535D01*
X118394Y104444D01*
X118408Y104430D01*
X118418Y104413D01*
X118497Y104346D01*
X118572Y104274D01*
X118590Y104266D01*
X118605Y104253D01*
X118701Y104214D01*
X118795Y104171D01*
X118815Y104169D01*
X118833Y104161D01*
X119000Y104143D01*
X147828Y104143D01*
X147848Y104146D01*
X147867Y104144D01*
X147969Y104166D01*
X148071Y104182D01*
X148088Y104192D01*
X148108Y104196D01*
X148197Y104249D01*
X148288Y104298D01*
X148302Y104312D01*
X148319Y104322D01*
X148386Y104401D01*
X148458Y104476D01*
X148466Y104494D01*
X148479Y104509D01*
X148518Y104605D01*
X148561Y104699D01*
X148563Y104719D01*
X148571Y104737D01*
X148589Y104904D01*
X148589Y142487D01*
X158235Y152133D01*
X164808Y152133D01*
X164828Y152136D01*
X164847Y152134D01*
X164949Y152156D01*
X165051Y152172D01*
X165068Y152182D01*
X165088Y152186D01*
X165177Y152239D01*
X165268Y152288D01*
X165282Y152302D01*
X165299Y152312D01*
X165366Y152391D01*
X165438Y152466D01*
X165446Y152484D01*
X165459Y152499D01*
X165498Y152595D01*
X165541Y152689D01*
X165543Y152709D01*
X165551Y152727D01*
X165569Y152894D01*
X165569Y155216D01*
X166462Y156109D01*
X177726Y156109D01*
X178619Y155216D01*
X178619Y142952D01*
X177726Y142059D01*
X166462Y142059D01*
X165569Y142952D01*
X165569Y145274D01*
X165566Y145294D01*
X165568Y145313D01*
X165546Y145415D01*
X165530Y145517D01*
X165520Y145534D01*
X165516Y145554D01*
X165463Y145643D01*
X165414Y145734D01*
X165400Y145748D01*
X165390Y145765D01*
X165311Y145832D01*
X165236Y145904D01*
X165218Y145912D01*
X165203Y145925D01*
X165107Y145964D01*
X165013Y146007D01*
X164993Y146009D01*
X164975Y146017D01*
X164808Y146035D01*
X161076Y146035D01*
X160986Y146021D01*
X160895Y146013D01*
X160865Y146001D01*
X160833Y145996D01*
X160753Y145953D01*
X160669Y145917D01*
X160637Y145891D01*
X160616Y145880D01*
X160594Y145857D01*
X160538Y145812D01*
X154910Y140184D01*
X154857Y140110D01*
X154797Y140041D01*
X154785Y140011D01*
X154766Y139984D01*
X154739Y139897D01*
X154705Y139813D01*
X154701Y139772D01*
X154694Y139749D01*
X154695Y139717D01*
X154687Y139646D01*
X154687Y57712D01*
X154701Y57622D01*
X154709Y57531D01*
X154721Y57501D01*
X154726Y57469D01*
X154769Y57389D01*
X154805Y57305D01*
X154831Y57273D01*
X154842Y57252D01*
X154865Y57230D01*
X154910Y57174D01*
X160606Y51478D01*
X160680Y51425D01*
X160749Y51365D01*
X160779Y51353D01*
X160806Y51334D01*
X160893Y51307D01*
X160977Y51273D01*
X161018Y51269D01*
X161041Y51262D01*
X161073Y51263D01*
X161144Y51255D01*
X164808Y51255D01*
X164828Y51258D01*
X164847Y51256D01*
X164949Y51278D01*
X165051Y51294D01*
X165068Y51304D01*
X165088Y51308D01*
X165177Y51361D01*
X165268Y51410D01*
X165282Y51424D01*
X165299Y51434D01*
X165366Y51513D01*
X165438Y51588D01*
X165446Y51606D01*
X165459Y51621D01*
X165498Y51717D01*
X165541Y51811D01*
X165543Y51831D01*
X165551Y51849D01*
X165569Y52016D01*
X165569Y54338D01*
X166462Y55231D01*
X177726Y55231D01*
X178619Y54338D01*
X178619Y42074D01*
X177726Y41181D01*
X166462Y41181D01*
G37*
%LPD*%
%LPC*%
G36*
X41963Y67355D02*
X41963Y67355D01*
X38602Y68747D01*
X36029Y71320D01*
X34637Y74681D01*
X34637Y78319D01*
X36029Y81680D01*
X38602Y84253D01*
X41963Y85645D01*
X60841Y85645D01*
X64202Y84253D01*
X66775Y81680D01*
X67884Y79003D01*
X67945Y78903D01*
X68005Y78803D01*
X68010Y78799D01*
X68013Y78794D01*
X68103Y78719D01*
X68192Y78643D01*
X68198Y78641D01*
X68203Y78637D01*
X68311Y78595D01*
X68420Y78551D01*
X68428Y78550D01*
X68432Y78549D01*
X68451Y78548D01*
X68587Y78533D01*
X103482Y78533D01*
X103502Y78536D01*
X103521Y78534D01*
X103623Y78556D01*
X103725Y78572D01*
X103742Y78582D01*
X103762Y78586D01*
X103851Y78639D01*
X103942Y78688D01*
X103956Y78702D01*
X103973Y78712D01*
X104040Y78791D01*
X104112Y78866D01*
X104120Y78884D01*
X104133Y78899D01*
X104172Y78995D01*
X104215Y79089D01*
X104217Y79109D01*
X104225Y79127D01*
X104243Y79294D01*
X104243Y81062D01*
X105136Y81955D01*
X117400Y81955D01*
X118293Y81062D01*
X118293Y79248D01*
X118296Y79228D01*
X118294Y79209D01*
X118316Y79107D01*
X118332Y79005D01*
X118342Y78988D01*
X118346Y78968D01*
X118399Y78879D01*
X118448Y78788D01*
X118462Y78774D01*
X118472Y78757D01*
X118551Y78690D01*
X118626Y78618D01*
X118644Y78610D01*
X118659Y78597D01*
X118755Y78558D01*
X118849Y78515D01*
X118869Y78513D01*
X118887Y78505D01*
X119054Y78487D01*
X129595Y78487D01*
X129685Y78501D01*
X129776Y78509D01*
X129805Y78521D01*
X129837Y78526D01*
X129918Y78569D01*
X130002Y78605D01*
X130034Y78631D01*
X130055Y78642D01*
X130077Y78665D01*
X130133Y78710D01*
X132168Y80745D01*
X136564Y80745D01*
X139673Y77636D01*
X139673Y73240D01*
X136564Y70131D01*
X132168Y70131D01*
X130133Y72166D01*
X130059Y72219D01*
X129989Y72279D01*
X129959Y72291D01*
X129933Y72310D01*
X129846Y72337D01*
X129761Y72371D01*
X129720Y72375D01*
X129698Y72382D01*
X129666Y72381D01*
X129595Y72389D01*
X119054Y72389D01*
X119034Y72386D01*
X119015Y72388D01*
X118913Y72366D01*
X118811Y72350D01*
X118794Y72340D01*
X118774Y72336D01*
X118685Y72283D01*
X118594Y72234D01*
X118580Y72220D01*
X118563Y72210D01*
X118496Y72131D01*
X118424Y72056D01*
X118416Y72038D01*
X118403Y72023D01*
X118364Y71927D01*
X118321Y71833D01*
X118319Y71813D01*
X118311Y71795D01*
X118293Y71628D01*
X118293Y69798D01*
X117400Y68905D01*
X105136Y68905D01*
X104243Y69798D01*
X104243Y71674D01*
X104240Y71694D01*
X104242Y71713D01*
X104220Y71814D01*
X104204Y71917D01*
X104194Y71934D01*
X104190Y71954D01*
X104137Y72043D01*
X104088Y72134D01*
X104074Y72148D01*
X104064Y72165D01*
X103985Y72232D01*
X103910Y72304D01*
X103892Y72312D01*
X103877Y72325D01*
X103781Y72364D01*
X103687Y72407D01*
X103667Y72409D01*
X103649Y72417D01*
X103482Y72435D01*
X67745Y72435D01*
X67630Y72416D01*
X67514Y72399D01*
X67509Y72397D01*
X67502Y72396D01*
X67400Y72341D01*
X67295Y72288D01*
X67291Y72283D01*
X67285Y72280D01*
X67205Y72196D01*
X67123Y72112D01*
X67119Y72106D01*
X67116Y72102D01*
X67108Y72085D01*
X67042Y71965D01*
X66775Y71320D01*
X64202Y68747D01*
X60841Y67355D01*
X41963Y67355D01*
G37*
%LPD*%
%LPC*%
G36*
X183462Y41181D02*
X183462Y41181D01*
X182569Y42074D01*
X182569Y54338D01*
X183462Y55231D01*
X194726Y55231D01*
X195619Y54338D01*
X195619Y52016D01*
X195622Y51999D01*
X195620Y51983D01*
X195620Y51980D01*
X195620Y51977D01*
X195642Y51875D01*
X195658Y51773D01*
X195668Y51756D01*
X195672Y51736D01*
X195725Y51647D01*
X195774Y51556D01*
X195788Y51542D01*
X195798Y51525D01*
X195877Y51458D01*
X195952Y51386D01*
X195970Y51378D01*
X195985Y51365D01*
X196081Y51326D01*
X196175Y51283D01*
X196195Y51281D01*
X196213Y51273D01*
X196380Y51255D01*
X208426Y51255D01*
X208516Y51269D01*
X208607Y51277D01*
X208637Y51289D01*
X208669Y51294D01*
X208749Y51337D01*
X208833Y51373D01*
X208865Y51399D01*
X208886Y51410D01*
X208891Y51415D01*
X208892Y51416D01*
X208909Y51434D01*
X208964Y51478D01*
X209072Y51586D01*
X209125Y51660D01*
X209185Y51729D01*
X209197Y51759D01*
X209216Y51786D01*
X209243Y51873D01*
X209277Y51957D01*
X209281Y51998D01*
X209288Y52021D01*
X209287Y52053D01*
X209295Y52124D01*
X209295Y58667D01*
X215928Y65300D01*
X215970Y65358D01*
X216019Y65410D01*
X216041Y65457D01*
X216072Y65499D01*
X216093Y65568D01*
X216123Y65633D01*
X216129Y65685D01*
X216144Y65735D01*
X216142Y65806D01*
X216150Y65877D01*
X216139Y65928D01*
X216138Y65980D01*
X216113Y66048D01*
X216098Y66118D01*
X216071Y66163D01*
X216053Y66211D01*
X216008Y66267D01*
X215972Y66329D01*
X215932Y66363D01*
X215900Y66403D01*
X215839Y66442D01*
X215785Y66489D01*
X215736Y66508D01*
X215693Y66536D01*
X215623Y66554D01*
X215557Y66581D01*
X215485Y66589D01*
X215454Y66597D01*
X215431Y66595D01*
X215390Y66599D01*
X196380Y66599D01*
X196360Y66596D01*
X196341Y66598D01*
X196239Y66576D01*
X196137Y66560D01*
X196120Y66550D01*
X196100Y66546D01*
X196011Y66493D01*
X195920Y66444D01*
X195906Y66430D01*
X195889Y66420D01*
X195822Y66341D01*
X195750Y66266D01*
X195742Y66248D01*
X195729Y66233D01*
X195690Y66137D01*
X195647Y66043D01*
X195645Y66023D01*
X195637Y66005D01*
X195619Y65838D01*
X195619Y63516D01*
X194726Y62623D01*
X183462Y62623D01*
X182569Y63516D01*
X182569Y75780D01*
X183462Y76673D01*
X194726Y76673D01*
X195619Y75780D01*
X195619Y73458D01*
X195622Y73438D01*
X195620Y73419D01*
X195642Y73317D01*
X195658Y73215D01*
X195668Y73198D01*
X195672Y73178D01*
X195725Y73089D01*
X195774Y72998D01*
X195788Y72984D01*
X195798Y72967D01*
X195877Y72900D01*
X195952Y72828D01*
X195970Y72820D01*
X195985Y72807D01*
X196081Y72768D01*
X196175Y72725D01*
X196195Y72723D01*
X196213Y72715D01*
X196380Y72697D01*
X228033Y72697D01*
X228123Y72711D01*
X228214Y72719D01*
X228244Y72731D01*
X228276Y72736D01*
X228357Y72779D01*
X228440Y72815D01*
X228473Y72841D01*
X228493Y72852D01*
X228515Y72875D01*
X228571Y72920D01*
X228714Y73063D01*
X233478Y73063D01*
X234371Y72170D01*
X234371Y67406D01*
X234041Y67076D01*
X234029Y67060D01*
X234013Y67048D01*
X233957Y66961D01*
X233897Y66877D01*
X233891Y66858D01*
X233880Y66841D01*
X233855Y66740D01*
X233825Y66641D01*
X233825Y66622D01*
X233820Y66602D01*
X233828Y66499D01*
X233831Y66396D01*
X233838Y66377D01*
X233839Y66357D01*
X233880Y66262D01*
X233915Y66165D01*
X233928Y66149D01*
X233936Y66131D01*
X234041Y66000D01*
X234371Y65670D01*
X234371Y60906D01*
X234041Y60576D01*
X234029Y60560D01*
X234013Y60548D01*
X233957Y60461D01*
X233897Y60377D01*
X233891Y60358D01*
X233880Y60341D01*
X233855Y60240D01*
X233825Y60141D01*
X233825Y60122D01*
X233820Y60102D01*
X233828Y59999D01*
X233831Y59896D01*
X233838Y59877D01*
X233839Y59857D01*
X233880Y59762D01*
X233915Y59665D01*
X233928Y59649D01*
X233936Y59631D01*
X234041Y59500D01*
X234371Y59170D01*
X234371Y54406D01*
X233478Y53513D01*
X228714Y53513D01*
X227821Y54406D01*
X227821Y59478D01*
X227818Y59498D01*
X227820Y59517D01*
X227798Y59619D01*
X227782Y59721D01*
X227772Y59738D01*
X227768Y59758D01*
X227715Y59847D01*
X227666Y59938D01*
X227652Y59952D01*
X227642Y59969D01*
X227563Y60036D01*
X227488Y60108D01*
X227470Y60116D01*
X227455Y60129D01*
X227359Y60168D01*
X227265Y60211D01*
X227245Y60213D01*
X227227Y60221D01*
X227060Y60239D01*
X219806Y60239D01*
X219716Y60225D01*
X219625Y60217D01*
X219595Y60205D01*
X219563Y60200D01*
X219483Y60157D01*
X219399Y60121D01*
X219367Y60095D01*
X219346Y60084D01*
X219324Y60061D01*
X219268Y60016D01*
X215616Y56364D01*
X215574Y56305D01*
X215527Y56256D01*
X215519Y56239D01*
X215503Y56221D01*
X215491Y56191D01*
X215472Y56164D01*
X215449Y56088D01*
X215423Y56033D01*
X215422Y56018D01*
X215411Y55993D01*
X215407Y55952D01*
X215400Y55929D01*
X215401Y55897D01*
X215393Y55826D01*
X215393Y49283D01*
X211267Y45157D01*
X196380Y45157D01*
X196360Y45154D01*
X196341Y45156D01*
X196239Y45134D01*
X196137Y45118D01*
X196120Y45108D01*
X196100Y45104D01*
X196011Y45051D01*
X195920Y45002D01*
X195906Y44988D01*
X195889Y44978D01*
X195822Y44899D01*
X195750Y44824D01*
X195742Y44806D01*
X195729Y44791D01*
X195690Y44695D01*
X195647Y44601D01*
X195645Y44581D01*
X195637Y44563D01*
X195619Y44396D01*
X195619Y42074D01*
X194726Y41181D01*
X183462Y41181D01*
G37*
%LPD*%
%LPC*%
G36*
X166462Y62623D02*
X166462Y62623D01*
X165569Y63516D01*
X165569Y75780D01*
X166462Y76673D01*
X168284Y76673D01*
X168304Y76676D01*
X168323Y76674D01*
X168425Y76696D01*
X168527Y76712D01*
X168544Y76722D01*
X168564Y76726D01*
X168653Y76779D01*
X168744Y76828D01*
X168758Y76842D01*
X168775Y76852D01*
X168842Y76931D01*
X168914Y77006D01*
X168922Y77024D01*
X168935Y77039D01*
X168974Y77135D01*
X169017Y77229D01*
X169019Y77249D01*
X169027Y77267D01*
X169045Y77434D01*
X169045Y86106D01*
X169042Y86126D01*
X169044Y86145D01*
X169022Y86247D01*
X169006Y86349D01*
X168996Y86366D01*
X168992Y86386D01*
X168939Y86475D01*
X168890Y86566D01*
X168876Y86580D01*
X168866Y86597D01*
X168787Y86664D01*
X168712Y86736D01*
X168694Y86744D01*
X168679Y86757D01*
X168583Y86796D01*
X168489Y86839D01*
X168469Y86841D01*
X168451Y86849D01*
X168284Y86867D01*
X167077Y86867D01*
X166987Y86853D01*
X166896Y86845D01*
X166867Y86833D01*
X166835Y86828D01*
X166754Y86785D01*
X166670Y86749D01*
X166638Y86723D01*
X166617Y86712D01*
X166595Y86689D01*
X166539Y86644D01*
X164504Y84609D01*
X160108Y84609D01*
X156999Y87718D01*
X156999Y92114D01*
X160108Y95223D01*
X164504Y95223D01*
X166539Y93188D01*
X166613Y93135D01*
X166683Y93075D01*
X166713Y93063D01*
X166739Y93044D01*
X166826Y93017D01*
X166911Y92983D01*
X166952Y92979D01*
X166974Y92972D01*
X167006Y92973D01*
X167077Y92965D01*
X168284Y92965D01*
X168304Y92968D01*
X168323Y92966D01*
X168425Y92988D01*
X168527Y93004D01*
X168544Y93014D01*
X168564Y93018D01*
X168653Y93071D01*
X168744Y93120D01*
X168758Y93134D01*
X168775Y93144D01*
X168842Y93223D01*
X168914Y93298D01*
X168922Y93316D01*
X168935Y93331D01*
X168974Y93427D01*
X169017Y93521D01*
X169019Y93541D01*
X169027Y93559D01*
X169045Y93726D01*
X169045Y115298D01*
X169042Y115318D01*
X169044Y115337D01*
X169022Y115439D01*
X169006Y115541D01*
X168996Y115558D01*
X168992Y115578D01*
X168939Y115667D01*
X168890Y115758D01*
X168876Y115772D01*
X168866Y115789D01*
X168787Y115856D01*
X168712Y115928D01*
X168694Y115936D01*
X168679Y115949D01*
X168583Y115988D01*
X168489Y116031D01*
X168469Y116033D01*
X168451Y116041D01*
X168284Y116059D01*
X166462Y116059D01*
X165569Y116952D01*
X165569Y129216D01*
X166462Y130109D01*
X177726Y130109D01*
X178619Y129216D01*
X178619Y116952D01*
X177726Y116059D01*
X175904Y116059D01*
X175884Y116056D01*
X175865Y116058D01*
X175763Y116036D01*
X175661Y116020D01*
X175644Y116010D01*
X175624Y116006D01*
X175535Y115953D01*
X175444Y115904D01*
X175430Y115890D01*
X175413Y115880D01*
X175346Y115801D01*
X175274Y115726D01*
X175266Y115708D01*
X175253Y115693D01*
X175214Y115597D01*
X175171Y115503D01*
X175169Y115483D01*
X175161Y115465D01*
X175143Y115298D01*
X175143Y77434D01*
X175146Y77414D01*
X175144Y77395D01*
X175166Y77293D01*
X175182Y77191D01*
X175192Y77174D01*
X175196Y77154D01*
X175249Y77065D01*
X175298Y76974D01*
X175312Y76960D01*
X175322Y76943D01*
X175401Y76876D01*
X175476Y76804D01*
X175494Y76796D01*
X175509Y76783D01*
X175605Y76744D01*
X175699Y76701D01*
X175719Y76699D01*
X175737Y76691D01*
X175904Y76673D01*
X177726Y76673D01*
X178619Y75780D01*
X178619Y63516D01*
X177726Y62623D01*
X166462Y62623D01*
G37*
%LPD*%
%LPC*%
G36*
X45430Y176727D02*
X45430Y176727D01*
X44537Y177620D01*
X44537Y188884D01*
X45430Y189777D01*
X57694Y189777D01*
X58587Y188884D01*
X58587Y187062D01*
X58590Y187042D01*
X58588Y187023D01*
X58610Y186921D01*
X58626Y186819D01*
X58636Y186802D01*
X58640Y186782D01*
X58693Y186693D01*
X58742Y186602D01*
X58756Y186588D01*
X58766Y186571D01*
X58845Y186504D01*
X58920Y186432D01*
X58938Y186424D01*
X58953Y186411D01*
X59049Y186372D01*
X59143Y186329D01*
X59163Y186327D01*
X59181Y186319D01*
X59348Y186301D01*
X62564Y186301D01*
X62584Y186304D01*
X62603Y186302D01*
X62705Y186324D01*
X62807Y186340D01*
X62824Y186350D01*
X62844Y186354D01*
X62933Y186407D01*
X63024Y186456D01*
X63038Y186470D01*
X63055Y186480D01*
X63122Y186559D01*
X63194Y186634D01*
X63202Y186652D01*
X63215Y186667D01*
X63254Y186763D01*
X63297Y186857D01*
X63299Y186877D01*
X63307Y186895D01*
X63325Y187062D01*
X63325Y188021D01*
X65097Y189793D01*
X74603Y189793D01*
X76375Y188021D01*
X76375Y178515D01*
X74603Y176743D01*
X65097Y176743D01*
X63325Y178515D01*
X63325Y179442D01*
X63322Y179462D01*
X63324Y179481D01*
X63302Y179583D01*
X63286Y179685D01*
X63276Y179702D01*
X63272Y179722D01*
X63219Y179811D01*
X63170Y179902D01*
X63156Y179916D01*
X63146Y179933D01*
X63067Y180000D01*
X62992Y180072D01*
X62974Y180080D01*
X62959Y180093D01*
X62863Y180132D01*
X62769Y180175D01*
X62749Y180177D01*
X62731Y180185D01*
X62564Y180203D01*
X59348Y180203D01*
X59328Y180200D01*
X59309Y180202D01*
X59207Y180180D01*
X59105Y180164D01*
X59088Y180154D01*
X59068Y180150D01*
X58979Y180097D01*
X58888Y180048D01*
X58874Y180034D01*
X58857Y180024D01*
X58790Y179945D01*
X58718Y179870D01*
X58710Y179852D01*
X58697Y179837D01*
X58658Y179741D01*
X58615Y179647D01*
X58613Y179627D01*
X58605Y179609D01*
X58587Y179442D01*
X58587Y177620D01*
X57694Y176727D01*
X45430Y176727D01*
G37*
%LPD*%
%LPC*%
G36*
X52925Y52623D02*
X52925Y52623D01*
X52925Y61261D01*
X59822Y61261D01*
X61401Y61011D01*
X62922Y60516D01*
X64347Y59790D01*
X65641Y58850D01*
X66772Y57719D01*
X67712Y56425D01*
X68438Y55000D01*
X68933Y53479D01*
X69068Y52623D01*
X52925Y52623D01*
G37*
%LPD*%
%LPC*%
G36*
X33736Y52623D02*
X33736Y52623D01*
X33871Y53479D01*
X34366Y55000D01*
X35092Y56425D01*
X36032Y57719D01*
X37163Y58850D01*
X38457Y59790D01*
X39882Y60516D01*
X41403Y61011D01*
X42982Y61261D01*
X49879Y61261D01*
X49879Y52623D01*
X33736Y52623D01*
G37*
%LPD*%
%LPC*%
G36*
X52925Y40939D02*
X52925Y40939D01*
X52925Y49577D01*
X69068Y49577D01*
X68933Y48721D01*
X68438Y47200D01*
X67712Y45775D01*
X66772Y44481D01*
X65641Y43350D01*
X64347Y42410D01*
X62922Y41684D01*
X61401Y41189D01*
X59822Y40939D01*
X52925Y40939D01*
G37*
%LPD*%
%LPC*%
G36*
X42982Y40939D02*
X42982Y40939D01*
X41403Y41189D01*
X39882Y41684D01*
X38457Y42410D01*
X37163Y43350D01*
X36032Y44481D01*
X35092Y45775D01*
X34366Y47200D01*
X33871Y48721D01*
X33736Y49577D01*
X49879Y49577D01*
X49879Y40939D01*
X42982Y40939D01*
G37*
%LPD*%
%LPC*%
G36*
X264015Y154405D02*
X264015Y154405D01*
X264015Y160673D01*
X268226Y160673D01*
X268873Y160500D01*
X269452Y160165D01*
X269925Y159692D01*
X270260Y159113D01*
X270433Y158466D01*
X270433Y154405D01*
X264015Y154405D01*
G37*
%LPD*%
%LPC*%
G36*
X267587Y83743D02*
X267587Y83743D01*
X267587Y90011D01*
X271798Y90011D01*
X272445Y89838D01*
X273024Y89503D01*
X273497Y89030D01*
X273832Y88451D01*
X274005Y87804D01*
X274005Y83743D01*
X267587Y83743D01*
G37*
%LPD*%
%LPC*%
G36*
X267569Y33411D02*
X267569Y33411D01*
X267569Y39679D01*
X271781Y39679D01*
X272427Y39506D01*
X273006Y39171D01*
X273479Y38698D01*
X273814Y38119D01*
X273987Y37472D01*
X273987Y33411D01*
X267569Y33411D01*
G37*
%LPD*%
%LPC*%
G36*
X258123Y83743D02*
X258123Y83743D01*
X258123Y87804D01*
X258296Y88451D01*
X258631Y89030D01*
X259104Y89503D01*
X259683Y89838D01*
X260330Y90011D01*
X264541Y90011D01*
X264541Y83743D01*
X258123Y83743D01*
G37*
%LPD*%
%LPC*%
G36*
X258105Y33411D02*
X258105Y33411D01*
X258105Y37472D01*
X258278Y38119D01*
X258613Y38698D01*
X259086Y39171D01*
X259665Y39506D01*
X260312Y39679D01*
X264523Y39679D01*
X264523Y33411D01*
X258105Y33411D01*
G37*
%LPD*%
%LPC*%
G36*
X254551Y154405D02*
X254551Y154405D01*
X254551Y158466D01*
X254724Y159113D01*
X255059Y159692D01*
X255532Y160165D01*
X256111Y160500D01*
X256758Y160673D01*
X260969Y160673D01*
X260969Y154405D01*
X254551Y154405D01*
G37*
%LPD*%
%LPC*%
G36*
X264015Y145091D02*
X264015Y145091D01*
X264015Y151359D01*
X270433Y151359D01*
X270433Y147298D01*
X270260Y146651D01*
X269925Y146072D01*
X269452Y145599D01*
X268873Y145264D01*
X268226Y145091D01*
X264015Y145091D01*
G37*
%LPD*%
%LPC*%
G36*
X267569Y24097D02*
X267569Y24097D01*
X267569Y30365D01*
X273987Y30365D01*
X273987Y26304D01*
X273814Y25657D01*
X273479Y25078D01*
X273006Y24605D01*
X272427Y24270D01*
X271780Y24097D01*
X267569Y24097D01*
G37*
%LPD*%
%LPC*%
G36*
X267587Y74429D02*
X267587Y74429D01*
X267587Y80697D01*
X274005Y80697D01*
X274005Y76636D01*
X273832Y75989D01*
X273497Y75410D01*
X273024Y74937D01*
X272445Y74602D01*
X271798Y74429D01*
X267587Y74429D01*
G37*
%LPD*%
%LPC*%
G36*
X256758Y145091D02*
X256758Y145091D01*
X256111Y145264D01*
X255532Y145599D01*
X255059Y146072D01*
X254724Y146651D01*
X254551Y147298D01*
X254551Y151359D01*
X260969Y151359D01*
X260969Y145091D01*
X256758Y145091D01*
G37*
%LPD*%
%LPC*%
G36*
X260312Y24097D02*
X260312Y24097D01*
X259665Y24270D01*
X259086Y24605D01*
X258613Y25078D01*
X258278Y25657D01*
X258105Y26304D01*
X258105Y30365D01*
X264523Y30365D01*
X264523Y24097D01*
X260312Y24097D01*
G37*
%LPD*%
%LPC*%
G36*
X260330Y74429D02*
X260330Y74429D01*
X259683Y74602D01*
X259104Y74937D01*
X258631Y75410D01*
X258296Y75989D01*
X258123Y76636D01*
X258123Y80697D01*
X264541Y80697D01*
X264541Y74429D01*
X260330Y74429D01*
G37*
%LPD*%
%LPC*%
G36*
X71373Y167251D02*
X71373Y167251D01*
X71373Y173269D01*
X73882Y173269D01*
X74910Y172993D01*
X75831Y172461D01*
X76583Y171709D01*
X77115Y170788D01*
X77391Y169760D01*
X77391Y167251D01*
X71373Y167251D01*
G37*
%LPD*%
%LPC*%
G36*
X71373Y158187D02*
X71373Y158187D01*
X71373Y164205D01*
X77391Y164205D01*
X77391Y161696D01*
X77115Y160668D01*
X76583Y159747D01*
X75831Y158995D01*
X74910Y158463D01*
X73882Y158187D01*
X71373Y158187D01*
G37*
%LPD*%
%LPC*%
G36*
X62309Y167251D02*
X62309Y167251D01*
X62309Y169760D01*
X62585Y170788D01*
X63117Y171709D01*
X63869Y172461D01*
X64790Y172993D01*
X65818Y173269D01*
X68327Y173269D01*
X68327Y167251D01*
X62309Y167251D01*
G37*
%LPD*%
%LPC*%
G36*
X65818Y158187D02*
X65818Y158187D01*
X64790Y158463D01*
X63869Y158995D01*
X63117Y159747D01*
X62585Y160668D01*
X62309Y161696D01*
X62309Y164205D01*
X68327Y164205D01*
X68327Y158187D01*
X65818Y158187D01*
G37*
%LPD*%
%LPC*%
G36*
X246970Y144362D02*
X246970Y144362D01*
X246970Y148029D01*
X249180Y148029D01*
X249827Y147856D01*
X250406Y147521D01*
X250879Y147048D01*
X251214Y146469D01*
X251387Y145822D01*
X251387Y144362D01*
X246970Y144362D01*
G37*
%LPD*%
%LPC*%
G36*
X51401Y51099D02*
X51401Y51099D01*
X51401Y51101D01*
X51403Y51101D01*
X51403Y51099D01*
X51401Y51099D01*
G37*
%LPD*%
%LPC*%
G36*
X262491Y152881D02*
X262491Y152881D01*
X262491Y152883D01*
X262493Y152883D01*
X262493Y152881D01*
X262491Y152881D01*
G37*
%LPD*%
%LPC*%
G36*
X69849Y165727D02*
X69849Y165727D01*
X69849Y165729D01*
X69851Y165729D01*
X69851Y165727D01*
X69849Y165727D01*
G37*
%LPD*%
%LPC*%
G36*
X266045Y31887D02*
X266045Y31887D01*
X266045Y31889D01*
X266047Y31889D01*
X266047Y31887D01*
X266045Y31887D01*
G37*
%LPD*%
%LPC*%
G36*
X266063Y82219D02*
X266063Y82219D01*
X266063Y82221D01*
X266065Y82221D01*
X266065Y82219D01*
X266063Y82219D01*
G37*
%LPD*%
D10*
X266064Y64720D03*
X266064Y82220D03*
X262492Y135382D03*
X262492Y152882D03*
X266046Y49388D03*
X266046Y31888D03*
D11*
X59022Y127300D02*
X43782Y127300D01*
X43782Y101900D02*
X59022Y101900D01*
X59022Y76500D02*
X43782Y76500D01*
X43782Y51100D02*
X59022Y51100D01*
D12*
X111268Y75430D03*
X111268Y58430D03*
X111214Y101094D03*
X111214Y118094D03*
D13*
X189094Y48206D03*
X172094Y48206D03*
X189094Y69648D03*
X172094Y69648D03*
X172094Y149084D03*
X189094Y149084D03*
X172094Y123084D03*
X189094Y123084D03*
D14*
X230846Y143238D03*
X245846Y143238D03*
X230846Y135238D03*
X245846Y135238D03*
D15*
X231096Y50288D03*
X231096Y56788D03*
X231096Y63288D03*
X231096Y69788D03*
X245596Y69788D03*
X245596Y63288D03*
X245596Y56788D03*
X245596Y50288D03*
D12*
X51562Y166252D03*
X51562Y183252D03*
D16*
X66350Y169228D02*
X73350Y169228D01*
X73350Y162228D01*
X66350Y162228D01*
X66350Y169228D01*
X66350Y165078D02*
X73350Y165078D01*
X73350Y167928D02*
X66350Y167928D01*
X66350Y186768D02*
X73350Y186768D01*
X73350Y179768D01*
X66350Y179768D01*
X66350Y186768D01*
X66350Y182618D02*
X73350Y182618D01*
X73350Y185468D02*
X66350Y185468D01*
D17*
X51402Y166252D02*
X51402Y127300D01*
X51402Y166252D02*
X51562Y166252D01*
X245846Y135238D02*
X262348Y135238D01*
X262492Y135382D01*
X265146Y50288D02*
X245596Y50288D01*
X265146Y50288D02*
X266046Y49388D01*
X264632Y63288D02*
X266064Y64720D01*
X264632Y63288D02*
X245596Y63288D01*
X84836Y127300D02*
X51402Y127300D01*
X84836Y127300D02*
X89108Y127300D01*
X98314Y118094D02*
X111214Y118094D01*
X98314Y118094D02*
X89108Y127300D01*
X84836Y127300D02*
X84836Y163322D01*
X106172Y184658D02*
X275844Y184658D01*
X287782Y172720D01*
X280528Y49388D02*
X266046Y49388D01*
X106172Y184658D02*
X84836Y163322D01*
X287782Y172720D02*
X287782Y135382D01*
X287782Y65532D01*
X287782Y56642D01*
X280528Y49388D01*
X266064Y64720D02*
X266876Y65532D01*
X287782Y65532D01*
X287782Y135382D02*
X262492Y135382D01*
X51402Y127300D02*
X31034Y127300D01*
X19304Y115570D02*
X19304Y40132D01*
X32258Y27178D01*
X91948Y27178D01*
X111268Y46498D01*
X111268Y58430D01*
X31034Y127300D02*
X19304Y115570D01*
X159498Y149084D02*
X172094Y149084D01*
X172094Y48206D02*
X159566Y48206D01*
X151638Y141224D02*
X159498Y149084D01*
X151638Y141224D02*
X151638Y101092D01*
X151638Y56134D01*
X159566Y48206D01*
X151636Y101094D02*
X111214Y101094D01*
X151636Y101094D02*
X151638Y101092D01*
X111214Y101094D02*
X52208Y101094D01*
X51402Y101900D01*
X172094Y89916D02*
X172094Y123084D01*
X172094Y89916D02*
X172094Y69648D01*
X52418Y75484D02*
X51402Y76500D01*
X108966Y75484D02*
X111214Y75484D01*
X108966Y75484D02*
X52418Y75484D01*
X111214Y75484D02*
X111268Y75430D01*
X162306Y89916D02*
X172094Y89916D01*
D18*
X162306Y89916D03*
X134366Y75438D03*
D17*
X109012Y75438D01*
X108966Y75484D01*
X189094Y69648D02*
X230956Y69648D01*
X231096Y69788D01*
X231096Y63288D02*
X218228Y63288D01*
X212344Y57404D02*
X212344Y50546D01*
X210004Y48206D01*
X189094Y48206D01*
X212344Y57404D02*
X218228Y63288D01*
X219728Y143238D02*
X230846Y143238D01*
X219728Y143238D02*
X213868Y149098D01*
X190182Y149098D01*
X189094Y149084D01*
X189094Y123084D02*
X206650Y123084D01*
X218948Y135382D01*
X230846Y135238D02*
X230846Y135272D01*
X230736Y135382D01*
X218948Y135382D01*
X69850Y183252D02*
X51562Y183252D01*
X69850Y183252D02*
X69850Y183268D01*
M02*
