G04 EAGLE Gerber RS-274X export*
G75*
%MOMM*%
%FSLAX34Y34*%
%LPD*%
%INBottom Copper*%
%IPPOS*%
%AMOC8*
5,1,8,0,0,1.08239X$1,22.5*%
G01*
%ADD10C,1.524000*%
%ADD11C,0.756400*%
%ADD12C,0.304800*%

G36*
X296718Y2544D02*
X296718Y2544D01*
X296737Y2542D01*
X296839Y2564D01*
X296941Y2580D01*
X296958Y2590D01*
X296978Y2594D01*
X297067Y2647D01*
X297158Y2696D01*
X297172Y2710D01*
X297189Y2720D01*
X297256Y2799D01*
X297328Y2874D01*
X297336Y2892D01*
X297349Y2907D01*
X297388Y3003D01*
X297431Y3097D01*
X297433Y3117D01*
X297441Y3135D01*
X297459Y3302D01*
X297459Y196698D01*
X297456Y196718D01*
X297458Y196737D01*
X297436Y196839D01*
X297420Y196941D01*
X297410Y196958D01*
X297406Y196978D01*
X297353Y197067D01*
X297304Y197158D01*
X297290Y197172D01*
X297280Y197189D01*
X297201Y197256D01*
X297126Y197328D01*
X297108Y197336D01*
X297093Y197349D01*
X296997Y197388D01*
X296903Y197431D01*
X296883Y197433D01*
X296865Y197441D01*
X296698Y197459D01*
X3302Y197459D01*
X3282Y197456D01*
X3263Y197458D01*
X3161Y197436D01*
X3059Y197420D01*
X3042Y197410D01*
X3022Y197406D01*
X2933Y197353D01*
X2842Y197304D01*
X2828Y197290D01*
X2811Y197280D01*
X2744Y197201D01*
X2672Y197126D01*
X2664Y197108D01*
X2651Y197093D01*
X2612Y196997D01*
X2569Y196903D01*
X2567Y196883D01*
X2559Y196865D01*
X2541Y196698D01*
X2541Y3302D01*
X2544Y3282D01*
X2542Y3263D01*
X2564Y3161D01*
X2580Y3059D01*
X2590Y3042D01*
X2594Y3022D01*
X2647Y2933D01*
X2696Y2842D01*
X2710Y2828D01*
X2720Y2811D01*
X2799Y2744D01*
X2874Y2672D01*
X2892Y2664D01*
X2907Y2651D01*
X3003Y2612D01*
X3097Y2569D01*
X3117Y2567D01*
X3135Y2559D01*
X3302Y2541D01*
X296698Y2541D01*
X296718Y2544D01*
G37*
%LPC*%
G36*
X41963Y118155D02*
X41963Y118155D01*
X38602Y119547D01*
X36029Y122120D01*
X34637Y125481D01*
X34637Y129119D01*
X36029Y132480D01*
X38602Y135053D01*
X41963Y136445D01*
X60841Y136445D01*
X64202Y135053D01*
X66775Y132480D01*
X68167Y129119D01*
X68167Y125481D01*
X66775Y122120D01*
X64202Y119547D01*
X60841Y118155D01*
X41963Y118155D01*
G37*
%LPD*%
%LPC*%
G36*
X41963Y92755D02*
X41963Y92755D01*
X38602Y94147D01*
X36029Y96720D01*
X34637Y100081D01*
X34637Y103719D01*
X36029Y107080D01*
X38602Y109653D01*
X41963Y111045D01*
X60841Y111045D01*
X64202Y109653D01*
X66775Y107080D01*
X68167Y103719D01*
X68167Y100081D01*
X66775Y96720D01*
X64202Y94147D01*
X60841Y92755D01*
X41963Y92755D01*
G37*
%LPD*%
%LPC*%
G36*
X41963Y67355D02*
X41963Y67355D01*
X38602Y68747D01*
X36029Y71320D01*
X34637Y74681D01*
X34637Y78319D01*
X36029Y81680D01*
X38602Y84253D01*
X41963Y85645D01*
X60841Y85645D01*
X64202Y84253D01*
X66775Y81680D01*
X68167Y78319D01*
X68167Y74681D01*
X66775Y71320D01*
X64202Y68747D01*
X60841Y67355D01*
X41963Y67355D01*
G37*
%LPD*%
%LPC*%
G36*
X132168Y70131D02*
X132168Y70131D01*
X129059Y73240D01*
X129059Y77636D01*
X132168Y80745D01*
X136564Y80745D01*
X138599Y78710D01*
X138673Y78657D01*
X138743Y78597D01*
X138773Y78585D01*
X138799Y78566D01*
X138886Y78539D01*
X138971Y78505D01*
X139012Y78501D01*
X139034Y78494D01*
X139066Y78495D01*
X139137Y78487D01*
X146250Y78487D01*
X146340Y78501D01*
X146431Y78509D01*
X146461Y78521D01*
X146493Y78526D01*
X146573Y78569D01*
X146657Y78605D01*
X146689Y78631D01*
X146710Y78642D01*
X146732Y78665D01*
X146788Y78710D01*
X156776Y88698D01*
X156829Y88772D01*
X156889Y88841D01*
X156901Y88871D01*
X156920Y88898D01*
X156947Y88985D01*
X156981Y89069D01*
X156985Y89110D01*
X156992Y89133D01*
X156991Y89165D01*
X156999Y89236D01*
X156999Y92114D01*
X160108Y95223D01*
X164504Y95223D01*
X167613Y92114D01*
X167613Y87718D01*
X164504Y84609D01*
X161626Y84609D01*
X161536Y84595D01*
X161445Y84587D01*
X161415Y84575D01*
X161383Y84570D01*
X161303Y84527D01*
X161219Y84491D01*
X161187Y84465D01*
X161166Y84454D01*
X161144Y84431D01*
X161088Y84386D01*
X149091Y72389D01*
X139137Y72389D01*
X139047Y72375D01*
X138956Y72367D01*
X138927Y72355D01*
X138895Y72350D01*
X138814Y72307D01*
X138730Y72271D01*
X138698Y72245D01*
X138677Y72234D01*
X138655Y72211D01*
X138599Y72166D01*
X136564Y70131D01*
X132168Y70131D01*
G37*
%LPD*%
%LPC*%
G36*
X52925Y52623D02*
X52925Y52623D01*
X52925Y61261D01*
X59822Y61261D01*
X61401Y61011D01*
X62922Y60516D01*
X64347Y59790D01*
X65641Y58850D01*
X66772Y57719D01*
X67712Y56425D01*
X68438Y55000D01*
X68933Y53479D01*
X69068Y52623D01*
X52925Y52623D01*
G37*
%LPD*%
%LPC*%
G36*
X33736Y52623D02*
X33736Y52623D01*
X33871Y53479D01*
X34366Y55000D01*
X35092Y56425D01*
X36032Y57719D01*
X37163Y58850D01*
X38457Y59790D01*
X39882Y60516D01*
X41403Y61011D01*
X42982Y61261D01*
X49879Y61261D01*
X49879Y52623D01*
X33736Y52623D01*
G37*
%LPD*%
%LPC*%
G36*
X52925Y40939D02*
X52925Y40939D01*
X52925Y49577D01*
X69068Y49577D01*
X68933Y48721D01*
X68438Y47200D01*
X67712Y45775D01*
X66772Y44481D01*
X65641Y43350D01*
X64347Y42410D01*
X62922Y41684D01*
X61401Y41189D01*
X59822Y40939D01*
X52925Y40939D01*
G37*
%LPD*%
%LPC*%
G36*
X42982Y40939D02*
X42982Y40939D01*
X41403Y41189D01*
X39882Y41684D01*
X38457Y42410D01*
X37163Y43350D01*
X36032Y44481D01*
X35092Y45775D01*
X34366Y47200D01*
X33871Y48721D01*
X33736Y49577D01*
X49879Y49577D01*
X49879Y40939D01*
X42982Y40939D01*
G37*
%LPD*%
%LPC*%
G36*
X51401Y51099D02*
X51401Y51099D01*
X51401Y51101D01*
X51403Y51101D01*
X51403Y51099D01*
X51401Y51099D01*
G37*
%LPD*%
D10*
X43782Y127300D02*
X59022Y127300D01*
X59022Y101900D02*
X43782Y101900D01*
X43782Y76500D02*
X59022Y76500D01*
X59022Y51100D02*
X43782Y51100D01*
D11*
X162306Y89916D03*
D12*
X147828Y75438D01*
X134366Y75438D01*
D11*
X134366Y75438D03*
M02*
