G04 EAGLE Gerber RS-274X export*
G75*
%MOMM*%
%FSLAX34Y34*%
%LPD*%
%INSolderpaste Top*%
%IPPOS*%
%AMOC8*
5,1,8,0,0,1.08239X$1,22.5*%
G01*
%ADD10R,1.080000X1.050000*%
%ADD11R,1.100000X1.000000*%
%ADD12R,1.000000X1.100000*%
%ADD13R,0.600000X0.450000*%
%ADD14C,0.175000*%
%ADD15C,0.300000*%


D10*
X266064Y64720D03*
X266064Y82220D03*
X262492Y135382D03*
X262492Y152882D03*
X266046Y49388D03*
X266046Y31888D03*
D11*
X111268Y75430D03*
X111268Y58430D03*
X111214Y101094D03*
X111214Y118094D03*
D12*
X189094Y48206D03*
X172094Y48206D03*
X189094Y69648D03*
X172094Y69648D03*
X172094Y149084D03*
X189094Y149084D03*
X172094Y123084D03*
X189094Y123084D03*
D13*
X230846Y143238D03*
X245846Y143238D03*
X230846Y135238D03*
X245846Y135238D03*
D14*
X244721Y50288D02*
X244723Y50347D01*
X244729Y50406D01*
X244739Y50464D01*
X244753Y50522D01*
X244770Y50578D01*
X244792Y50633D01*
X244817Y50687D01*
X244846Y50738D01*
X244878Y50788D01*
X244913Y50835D01*
X244952Y50880D01*
X244993Y50922D01*
X245037Y50961D01*
X245084Y50998D01*
X245133Y51031D01*
X245184Y51060D01*
X245237Y51086D01*
X245292Y51109D01*
X245348Y51127D01*
X245405Y51142D01*
X245464Y51153D01*
X245522Y51160D01*
X245581Y51163D01*
X245640Y51162D01*
X245699Y51157D01*
X245758Y51148D01*
X245815Y51135D01*
X245872Y51118D01*
X245927Y51098D01*
X245981Y51074D01*
X246033Y51046D01*
X246084Y51015D01*
X246132Y50980D01*
X246177Y50942D01*
X246220Y50901D01*
X246260Y50858D01*
X246297Y50812D01*
X246331Y50763D01*
X246361Y50713D01*
X246388Y50660D01*
X246411Y50606D01*
X246431Y50550D01*
X246447Y50493D01*
X246459Y50435D01*
X246467Y50377D01*
X246471Y50318D01*
X246471Y50258D01*
X246467Y50199D01*
X246459Y50141D01*
X246447Y50083D01*
X246431Y50026D01*
X246411Y49970D01*
X246388Y49916D01*
X246361Y49863D01*
X246331Y49813D01*
X246297Y49764D01*
X246260Y49718D01*
X246220Y49675D01*
X246177Y49634D01*
X246132Y49596D01*
X246084Y49561D01*
X246034Y49530D01*
X245981Y49502D01*
X245927Y49478D01*
X245872Y49458D01*
X245815Y49441D01*
X245758Y49428D01*
X245699Y49419D01*
X245640Y49414D01*
X245581Y49413D01*
X245522Y49416D01*
X245464Y49423D01*
X245405Y49434D01*
X245348Y49449D01*
X245292Y49467D01*
X245237Y49490D01*
X245184Y49516D01*
X245133Y49545D01*
X245084Y49578D01*
X245037Y49615D01*
X244993Y49654D01*
X244952Y49696D01*
X244913Y49741D01*
X244878Y49788D01*
X244846Y49838D01*
X244817Y49889D01*
X244792Y49943D01*
X244770Y49998D01*
X244753Y50054D01*
X244739Y50112D01*
X244729Y50170D01*
X244723Y50229D01*
X244721Y50288D01*
X244721Y56788D02*
X244723Y56847D01*
X244729Y56906D01*
X244739Y56964D01*
X244753Y57022D01*
X244770Y57078D01*
X244792Y57133D01*
X244817Y57187D01*
X244846Y57238D01*
X244878Y57288D01*
X244913Y57335D01*
X244952Y57380D01*
X244993Y57422D01*
X245037Y57461D01*
X245084Y57498D01*
X245133Y57531D01*
X245184Y57560D01*
X245237Y57586D01*
X245292Y57609D01*
X245348Y57627D01*
X245405Y57642D01*
X245464Y57653D01*
X245522Y57660D01*
X245581Y57663D01*
X245640Y57662D01*
X245699Y57657D01*
X245758Y57648D01*
X245815Y57635D01*
X245872Y57618D01*
X245927Y57598D01*
X245981Y57574D01*
X246033Y57546D01*
X246084Y57515D01*
X246132Y57480D01*
X246177Y57442D01*
X246220Y57401D01*
X246260Y57358D01*
X246297Y57312D01*
X246331Y57263D01*
X246361Y57213D01*
X246388Y57160D01*
X246411Y57106D01*
X246431Y57050D01*
X246447Y56993D01*
X246459Y56935D01*
X246467Y56877D01*
X246471Y56818D01*
X246471Y56758D01*
X246467Y56699D01*
X246459Y56641D01*
X246447Y56583D01*
X246431Y56526D01*
X246411Y56470D01*
X246388Y56416D01*
X246361Y56363D01*
X246331Y56313D01*
X246297Y56264D01*
X246260Y56218D01*
X246220Y56175D01*
X246177Y56134D01*
X246132Y56096D01*
X246084Y56061D01*
X246034Y56030D01*
X245981Y56002D01*
X245927Y55978D01*
X245872Y55958D01*
X245815Y55941D01*
X245758Y55928D01*
X245699Y55919D01*
X245640Y55914D01*
X245581Y55913D01*
X245522Y55916D01*
X245464Y55923D01*
X245405Y55934D01*
X245348Y55949D01*
X245292Y55967D01*
X245237Y55990D01*
X245184Y56016D01*
X245133Y56045D01*
X245084Y56078D01*
X245037Y56115D01*
X244993Y56154D01*
X244952Y56196D01*
X244913Y56241D01*
X244878Y56288D01*
X244846Y56338D01*
X244817Y56389D01*
X244792Y56443D01*
X244770Y56498D01*
X244753Y56554D01*
X244739Y56612D01*
X244729Y56670D01*
X244723Y56729D01*
X244721Y56788D01*
X230221Y50288D02*
X230223Y50347D01*
X230229Y50406D01*
X230239Y50464D01*
X230253Y50522D01*
X230270Y50578D01*
X230292Y50633D01*
X230317Y50687D01*
X230346Y50738D01*
X230378Y50788D01*
X230413Y50835D01*
X230452Y50880D01*
X230493Y50922D01*
X230537Y50961D01*
X230584Y50998D01*
X230633Y51031D01*
X230684Y51060D01*
X230737Y51086D01*
X230792Y51109D01*
X230848Y51127D01*
X230905Y51142D01*
X230964Y51153D01*
X231022Y51160D01*
X231081Y51163D01*
X231140Y51162D01*
X231199Y51157D01*
X231258Y51148D01*
X231315Y51135D01*
X231372Y51118D01*
X231427Y51098D01*
X231481Y51074D01*
X231533Y51046D01*
X231584Y51015D01*
X231632Y50980D01*
X231677Y50942D01*
X231720Y50901D01*
X231760Y50858D01*
X231797Y50812D01*
X231831Y50763D01*
X231861Y50713D01*
X231888Y50660D01*
X231911Y50606D01*
X231931Y50550D01*
X231947Y50493D01*
X231959Y50435D01*
X231967Y50377D01*
X231971Y50318D01*
X231971Y50258D01*
X231967Y50199D01*
X231959Y50141D01*
X231947Y50083D01*
X231931Y50026D01*
X231911Y49970D01*
X231888Y49916D01*
X231861Y49863D01*
X231831Y49813D01*
X231797Y49764D01*
X231760Y49718D01*
X231720Y49675D01*
X231677Y49634D01*
X231632Y49596D01*
X231584Y49561D01*
X231534Y49530D01*
X231481Y49502D01*
X231427Y49478D01*
X231372Y49458D01*
X231315Y49441D01*
X231258Y49428D01*
X231199Y49419D01*
X231140Y49414D01*
X231081Y49413D01*
X231022Y49416D01*
X230964Y49423D01*
X230905Y49434D01*
X230848Y49449D01*
X230792Y49467D01*
X230737Y49490D01*
X230684Y49516D01*
X230633Y49545D01*
X230584Y49578D01*
X230537Y49615D01*
X230493Y49654D01*
X230452Y49696D01*
X230413Y49741D01*
X230378Y49788D01*
X230346Y49838D01*
X230317Y49889D01*
X230292Y49943D01*
X230270Y49998D01*
X230253Y50054D01*
X230239Y50112D01*
X230229Y50170D01*
X230223Y50229D01*
X230221Y50288D01*
X244721Y63288D02*
X244723Y63347D01*
X244729Y63406D01*
X244739Y63464D01*
X244753Y63522D01*
X244770Y63578D01*
X244792Y63633D01*
X244817Y63687D01*
X244846Y63738D01*
X244878Y63788D01*
X244913Y63835D01*
X244952Y63880D01*
X244993Y63922D01*
X245037Y63961D01*
X245084Y63998D01*
X245133Y64031D01*
X245184Y64060D01*
X245237Y64086D01*
X245292Y64109D01*
X245348Y64127D01*
X245405Y64142D01*
X245464Y64153D01*
X245522Y64160D01*
X245581Y64163D01*
X245640Y64162D01*
X245699Y64157D01*
X245758Y64148D01*
X245815Y64135D01*
X245872Y64118D01*
X245927Y64098D01*
X245981Y64074D01*
X246033Y64046D01*
X246084Y64015D01*
X246132Y63980D01*
X246177Y63942D01*
X246220Y63901D01*
X246260Y63858D01*
X246297Y63812D01*
X246331Y63763D01*
X246361Y63713D01*
X246388Y63660D01*
X246411Y63606D01*
X246431Y63550D01*
X246447Y63493D01*
X246459Y63435D01*
X246467Y63377D01*
X246471Y63318D01*
X246471Y63258D01*
X246467Y63199D01*
X246459Y63141D01*
X246447Y63083D01*
X246431Y63026D01*
X246411Y62970D01*
X246388Y62916D01*
X246361Y62863D01*
X246331Y62813D01*
X246297Y62764D01*
X246260Y62718D01*
X246220Y62675D01*
X246177Y62634D01*
X246132Y62596D01*
X246084Y62561D01*
X246034Y62530D01*
X245981Y62502D01*
X245927Y62478D01*
X245872Y62458D01*
X245815Y62441D01*
X245758Y62428D01*
X245699Y62419D01*
X245640Y62414D01*
X245581Y62413D01*
X245522Y62416D01*
X245464Y62423D01*
X245405Y62434D01*
X245348Y62449D01*
X245292Y62467D01*
X245237Y62490D01*
X245184Y62516D01*
X245133Y62545D01*
X245084Y62578D01*
X245037Y62615D01*
X244993Y62654D01*
X244952Y62696D01*
X244913Y62741D01*
X244878Y62788D01*
X244846Y62838D01*
X244817Y62889D01*
X244792Y62943D01*
X244770Y62998D01*
X244753Y63054D01*
X244739Y63112D01*
X244729Y63170D01*
X244723Y63229D01*
X244721Y63288D01*
X230221Y56788D02*
X230223Y56847D01*
X230229Y56906D01*
X230239Y56964D01*
X230253Y57022D01*
X230270Y57078D01*
X230292Y57133D01*
X230317Y57187D01*
X230346Y57238D01*
X230378Y57288D01*
X230413Y57335D01*
X230452Y57380D01*
X230493Y57422D01*
X230537Y57461D01*
X230584Y57498D01*
X230633Y57531D01*
X230684Y57560D01*
X230737Y57586D01*
X230792Y57609D01*
X230848Y57627D01*
X230905Y57642D01*
X230964Y57653D01*
X231022Y57660D01*
X231081Y57663D01*
X231140Y57662D01*
X231199Y57657D01*
X231258Y57648D01*
X231315Y57635D01*
X231372Y57618D01*
X231427Y57598D01*
X231481Y57574D01*
X231533Y57546D01*
X231584Y57515D01*
X231632Y57480D01*
X231677Y57442D01*
X231720Y57401D01*
X231760Y57358D01*
X231797Y57312D01*
X231831Y57263D01*
X231861Y57213D01*
X231888Y57160D01*
X231911Y57106D01*
X231931Y57050D01*
X231947Y56993D01*
X231959Y56935D01*
X231967Y56877D01*
X231971Y56818D01*
X231971Y56758D01*
X231967Y56699D01*
X231959Y56641D01*
X231947Y56583D01*
X231931Y56526D01*
X231911Y56470D01*
X231888Y56416D01*
X231861Y56363D01*
X231831Y56313D01*
X231797Y56264D01*
X231760Y56218D01*
X231720Y56175D01*
X231677Y56134D01*
X231632Y56096D01*
X231584Y56061D01*
X231534Y56030D01*
X231481Y56002D01*
X231427Y55978D01*
X231372Y55958D01*
X231315Y55941D01*
X231258Y55928D01*
X231199Y55919D01*
X231140Y55914D01*
X231081Y55913D01*
X231022Y55916D01*
X230964Y55923D01*
X230905Y55934D01*
X230848Y55949D01*
X230792Y55967D01*
X230737Y55990D01*
X230684Y56016D01*
X230633Y56045D01*
X230584Y56078D01*
X230537Y56115D01*
X230493Y56154D01*
X230452Y56196D01*
X230413Y56241D01*
X230378Y56288D01*
X230346Y56338D01*
X230317Y56389D01*
X230292Y56443D01*
X230270Y56498D01*
X230253Y56554D01*
X230239Y56612D01*
X230229Y56670D01*
X230223Y56729D01*
X230221Y56788D01*
X244721Y69788D02*
X244723Y69847D01*
X244729Y69906D01*
X244739Y69964D01*
X244753Y70022D01*
X244770Y70078D01*
X244792Y70133D01*
X244817Y70187D01*
X244846Y70238D01*
X244878Y70288D01*
X244913Y70335D01*
X244952Y70380D01*
X244993Y70422D01*
X245037Y70461D01*
X245084Y70498D01*
X245133Y70531D01*
X245184Y70560D01*
X245237Y70586D01*
X245292Y70609D01*
X245348Y70627D01*
X245405Y70642D01*
X245464Y70653D01*
X245522Y70660D01*
X245581Y70663D01*
X245640Y70662D01*
X245699Y70657D01*
X245758Y70648D01*
X245815Y70635D01*
X245872Y70618D01*
X245927Y70598D01*
X245981Y70574D01*
X246033Y70546D01*
X246084Y70515D01*
X246132Y70480D01*
X246177Y70442D01*
X246220Y70401D01*
X246260Y70358D01*
X246297Y70312D01*
X246331Y70263D01*
X246361Y70213D01*
X246388Y70160D01*
X246411Y70106D01*
X246431Y70050D01*
X246447Y69993D01*
X246459Y69935D01*
X246467Y69877D01*
X246471Y69818D01*
X246471Y69758D01*
X246467Y69699D01*
X246459Y69641D01*
X246447Y69583D01*
X246431Y69526D01*
X246411Y69470D01*
X246388Y69416D01*
X246361Y69363D01*
X246331Y69313D01*
X246297Y69264D01*
X246260Y69218D01*
X246220Y69175D01*
X246177Y69134D01*
X246132Y69096D01*
X246084Y69061D01*
X246034Y69030D01*
X245981Y69002D01*
X245927Y68978D01*
X245872Y68958D01*
X245815Y68941D01*
X245758Y68928D01*
X245699Y68919D01*
X245640Y68914D01*
X245581Y68913D01*
X245522Y68916D01*
X245464Y68923D01*
X245405Y68934D01*
X245348Y68949D01*
X245292Y68967D01*
X245237Y68990D01*
X245184Y69016D01*
X245133Y69045D01*
X245084Y69078D01*
X245037Y69115D01*
X244993Y69154D01*
X244952Y69196D01*
X244913Y69241D01*
X244878Y69288D01*
X244846Y69338D01*
X244817Y69389D01*
X244792Y69443D01*
X244770Y69498D01*
X244753Y69554D01*
X244739Y69612D01*
X244729Y69670D01*
X244723Y69729D01*
X244721Y69788D01*
X230221Y63288D02*
X230223Y63347D01*
X230229Y63406D01*
X230239Y63464D01*
X230253Y63522D01*
X230270Y63578D01*
X230292Y63633D01*
X230317Y63687D01*
X230346Y63738D01*
X230378Y63788D01*
X230413Y63835D01*
X230452Y63880D01*
X230493Y63922D01*
X230537Y63961D01*
X230584Y63998D01*
X230633Y64031D01*
X230684Y64060D01*
X230737Y64086D01*
X230792Y64109D01*
X230848Y64127D01*
X230905Y64142D01*
X230964Y64153D01*
X231022Y64160D01*
X231081Y64163D01*
X231140Y64162D01*
X231199Y64157D01*
X231258Y64148D01*
X231315Y64135D01*
X231372Y64118D01*
X231427Y64098D01*
X231481Y64074D01*
X231533Y64046D01*
X231584Y64015D01*
X231632Y63980D01*
X231677Y63942D01*
X231720Y63901D01*
X231760Y63858D01*
X231797Y63812D01*
X231831Y63763D01*
X231861Y63713D01*
X231888Y63660D01*
X231911Y63606D01*
X231931Y63550D01*
X231947Y63493D01*
X231959Y63435D01*
X231967Y63377D01*
X231971Y63318D01*
X231971Y63258D01*
X231967Y63199D01*
X231959Y63141D01*
X231947Y63083D01*
X231931Y63026D01*
X231911Y62970D01*
X231888Y62916D01*
X231861Y62863D01*
X231831Y62813D01*
X231797Y62764D01*
X231760Y62718D01*
X231720Y62675D01*
X231677Y62634D01*
X231632Y62596D01*
X231584Y62561D01*
X231534Y62530D01*
X231481Y62502D01*
X231427Y62478D01*
X231372Y62458D01*
X231315Y62441D01*
X231258Y62428D01*
X231199Y62419D01*
X231140Y62414D01*
X231081Y62413D01*
X231022Y62416D01*
X230964Y62423D01*
X230905Y62434D01*
X230848Y62449D01*
X230792Y62467D01*
X230737Y62490D01*
X230684Y62516D01*
X230633Y62545D01*
X230584Y62578D01*
X230537Y62615D01*
X230493Y62654D01*
X230452Y62696D01*
X230413Y62741D01*
X230378Y62788D01*
X230346Y62838D01*
X230317Y62889D01*
X230292Y62943D01*
X230270Y62998D01*
X230253Y63054D01*
X230239Y63112D01*
X230229Y63170D01*
X230223Y63229D01*
X230221Y63288D01*
X230221Y69788D02*
X230223Y69847D01*
X230229Y69906D01*
X230239Y69964D01*
X230253Y70022D01*
X230270Y70078D01*
X230292Y70133D01*
X230317Y70187D01*
X230346Y70238D01*
X230378Y70288D01*
X230413Y70335D01*
X230452Y70380D01*
X230493Y70422D01*
X230537Y70461D01*
X230584Y70498D01*
X230633Y70531D01*
X230684Y70560D01*
X230737Y70586D01*
X230792Y70609D01*
X230848Y70627D01*
X230905Y70642D01*
X230964Y70653D01*
X231022Y70660D01*
X231081Y70663D01*
X231140Y70662D01*
X231199Y70657D01*
X231258Y70648D01*
X231315Y70635D01*
X231372Y70618D01*
X231427Y70598D01*
X231481Y70574D01*
X231533Y70546D01*
X231584Y70515D01*
X231632Y70480D01*
X231677Y70442D01*
X231720Y70401D01*
X231760Y70358D01*
X231797Y70312D01*
X231831Y70263D01*
X231861Y70213D01*
X231888Y70160D01*
X231911Y70106D01*
X231931Y70050D01*
X231947Y69993D01*
X231959Y69935D01*
X231967Y69877D01*
X231971Y69818D01*
X231971Y69758D01*
X231967Y69699D01*
X231959Y69641D01*
X231947Y69583D01*
X231931Y69526D01*
X231911Y69470D01*
X231888Y69416D01*
X231861Y69363D01*
X231831Y69313D01*
X231797Y69264D01*
X231760Y69218D01*
X231720Y69175D01*
X231677Y69134D01*
X231632Y69096D01*
X231584Y69061D01*
X231534Y69030D01*
X231481Y69002D01*
X231427Y68978D01*
X231372Y68958D01*
X231315Y68941D01*
X231258Y68928D01*
X231199Y68919D01*
X231140Y68914D01*
X231081Y68913D01*
X231022Y68916D01*
X230964Y68923D01*
X230905Y68934D01*
X230848Y68949D01*
X230792Y68967D01*
X230737Y68990D01*
X230684Y69016D01*
X230633Y69045D01*
X230584Y69078D01*
X230537Y69115D01*
X230493Y69154D01*
X230452Y69196D01*
X230413Y69241D01*
X230378Y69288D01*
X230346Y69338D01*
X230317Y69389D01*
X230292Y69443D01*
X230270Y69498D01*
X230253Y69554D01*
X230239Y69612D01*
X230229Y69670D01*
X230223Y69729D01*
X230221Y69788D01*
D11*
X51562Y166252D03*
X51562Y183252D03*
D15*
X66350Y169228D02*
X73350Y169228D01*
X73350Y162228D01*
X66350Y162228D01*
X66350Y169228D01*
X66350Y165078D02*
X73350Y165078D01*
X73350Y167928D02*
X66350Y167928D01*
X66350Y186768D02*
X73350Y186768D01*
X73350Y179768D01*
X66350Y179768D01*
X66350Y186768D01*
X66350Y182618D02*
X73350Y182618D01*
X73350Y185468D02*
X66350Y185468D01*
M02*
