G04 EAGLE Gerber RS-274X export*
G75*
%MOMM*%
%FSLAX34Y34*%
%LPD*%
%INSoldermask Top*%
%IPPOS*%
%AMOC8*
5,1,8,0,0,1.08239X$1,22.5*%
G01*
%ADD10R,1.283200X1.253200*%
%ADD11C,1.727200*%
%ADD12R,1.303200X1.203200*%
%ADD13R,1.203200X1.303200*%
%ADD14R,0.803200X0.653200*%
%ADD15R,0.553200X0.553200*%
%ADD16C,0.959600*%


D10*
X271400Y63550D03*
X271400Y46050D03*
X250300Y133350D03*
X250300Y150850D03*
X253600Y50150D03*
X253600Y32650D03*
D11*
X55720Y127300D02*
X40480Y127300D01*
X40480Y101900D02*
X55720Y101900D01*
X55720Y76500D02*
X40480Y76500D01*
X40480Y51100D02*
X55720Y51100D01*
D12*
X194100Y150300D03*
X194100Y167300D03*
X193900Y123500D03*
X193900Y106500D03*
X166100Y75700D03*
X166100Y92700D03*
X165900Y54100D03*
X165900Y37100D03*
D13*
X133400Y76400D03*
X116400Y76400D03*
X133400Y53900D03*
X116400Y53900D03*
X137100Y150100D03*
X154100Y150100D03*
X137600Y124100D03*
X154600Y124100D03*
D14*
X218400Y144000D03*
X233400Y144000D03*
X218400Y136000D03*
X233400Y136000D03*
D15*
X218650Y51050D03*
X218650Y57550D03*
X218650Y64050D03*
X218650Y70550D03*
X233150Y70550D03*
X233150Y64050D03*
X233150Y57550D03*
X233150Y51050D03*
D16*
X69000Y89000D03*
X69000Y69000D03*
X86000Y58000D03*
X69000Y110000D03*
X93000Y132000D03*
X94000Y112000D03*
X95000Y92000D03*
X166000Y158000D03*
X166000Y117000D03*
X149000Y84000D03*
X149000Y65000D03*
X149000Y47000D03*
X201000Y72000D03*
X201000Y57000D03*
X195000Y35000D03*
X167000Y137000D03*
M02*
